<?xml version="1.0" encoding="UTF-8" standalone="no"?>
<svg width="958px" height="182px" viewBox="0 0 958 182" version="1.1" xmlns="http://www.w3.org/2000/svg" xmlns:xlink="http://www.w3.org/1999/xlink">
    <!-- Generator: Sketch 39.1 (31720) - http://www.bohemiancoding.com/sketch -->
    <title>Slice 1</title>
    <desc>Created with Sketch.</desc>
    <defs></defs>
    <g id="Page-1" stroke="none" stroke-width="1" fill="none" fill-rule="evenodd">
        <path d="M373.724111,142.019084 C338.724631,167.816474 287.995021,181.580314 244.317772,181.580314 C183.075222,181.580314 127.941212,158.928964 86.230202,121.255354 C82.953102,118.292834 85.889372,114.255454 89.821912,116.562524 C134.836222,142.753164 190.494602,158.509494 247.988142,158.509494 C286.762831,158.509494 329.417641,150.487124 368.638041,133.839434 C374.563051,131.322604 379.518031,137.719524 373.724111,142.019084" id="path8" fill="#FF9900"></path>
        <path d="M388.274471,125.371394 C383.817591,119.656124 358.701861,122.671064 347.428621,124.008124 C343.994201,124.427594 343.469881,121.438874 346.563451,119.289074 C366.566911,105.210634 399.390411,109.274244 403.218071,113.993274 C407.045711,118.738534 402.221831,151.640684 383.424341,167.344554 C380.540491,169.756504 377.787721,168.471894 379.072361,165.273424 C383.293261,154.734254 392.757551,131.112884 388.274471,125.371394" id="path10" fill="#FF9900"></path>
        <path d="M348.215131,19.901024 L348.215131,6.215834 C348.215131,4.144704 349.788141,2.755214 351.675751,2.755214 L412.944501,2.755214 C414.910781,2.755214 416.483791,4.170924 416.483791,6.215834 L416.483791,17.934764 C416.457591,19.901024 414.805911,22.470274 411.869611,26.533884 L380.121021,71.862814 C391.918611,71.574444 404.371611,73.330954 415.068081,79.360834 C417.480031,80.724104 418.135451,82.716584 418.318971,84.682864 L418.318971,99.285644 C418.318971,101.278124 416.116751,103.611404 413.809671,102.405444 C394.959751,92.521684 369.922671,91.446794 349.080281,102.510314 C346.956721,103.663854 344.728291,101.356774 344.728291,99.364294 L344.728291,85.495584 C344.728291,83.267154 344.754491,79.465694 346.982921,76.083724 L383.765161,23.335434 L351.754401,23.335434 C349.788141,23.335434 348.215131,21.945954 348.215131,19.901024" id="path12" fill="#FFFFFF"></path>
        <path d="M124.716522,105.289284 L106.076352,105.289284 C104.293622,105.158214 102.877902,103.821154 102.746812,102.117044 L102.746812,6.451804 C102.746812,4.537974 104.346042,3.017384 106.338522,3.017384 L123.720282,3.017384 C125.529262,3.095984 126.971172,4.485524 127.102272,6.215834 L127.102272,18.721284 L127.443092,18.721284 C131.978602,6.635304 140.499062,0.998684 151.982052,0.998684 C163.648542,0.998684 170.936822,6.635304 176.180192,18.721284 C180.689492,6.635304 190.940272,0.998684 201.925142,0.998684 C209.737762,0.998684 218.284452,4.223354 223.501602,11.459204 C229.400392,19.507774 228.194412,31.200484 228.194412,41.451284 L228.168202,101.828674 C228.168202,103.742504 226.568972,105.289284 224.576492,105.289284 L205.962522,105.289284 C204.101142,105.158214 202.606782,103.663854 202.606782,101.828674 L202.606782,51.125294 C202.606782,47.087904 202.973802,37.020634 202.082442,33.192964 C200.692952,26.769854 196.524472,24.960874 191.123792,24.960874 C186.614492,24.960874 181.895462,27.975814 179.981632,32.799724 C178.067802,37.623624 178.251322,45.698394 178.251322,51.125294 L178.251322,101.828674 C178.251322,103.742504 176.652092,105.289284 174.659612,105.289284 L156.045662,105.289284 C154.158052,105.158214 152.689902,103.663854 152.689902,101.828674 L152.663692,51.125294 C152.663692,40.455044 154.420202,24.751144 141.180712,24.751144 C127.783892,24.751144 128.308232,40.061774 128.308232,51.125294 L128.308232,101.828674 C128.308232,103.742504 126.709002,105.289284 124.716522,105.289284" id="path14" fill="#FFFFFF"></path>
        <path d="M469.232081,0.998684 C496.890851,0.998684 511.860661,24.751144 511.860661,54.952954 C511.860661,84.132294 495.317821,107.281764 469.232081,107.281764 C442.071421,107.281764 427.285111,83.529304 427.285111,53.930494 C427.285111,24.148154 442.254941,0.998684 469.232081,0.998684 M469.389371,20.530244 C455.651761,20.530244 454.786591,39.249054 454.786591,50.915564 C454.786591,62.608274 454.603071,87.566704 469.232081,87.566704 C483.677561,87.566704 484.359201,67.432184 484.359201,55.162674 C484.359201,47.087904 484.018381,37.440104 481.580201,29.784774 C479.482851,23.125714 475.314391,20.530244 469.389371,20.530244" id="path16" fill="#FFFFFF"></path>
        <path d="M547.725311,105.289284 L529.163791,105.289284 C527.302381,105.158214 525.808021,103.663854 525.808021,101.828674 L525.781821,6.137184 C525.939121,4.380654 527.485921,3.017384 529.373531,3.017384 L546.650441,3.017384 C548.275871,3.095984 549.612931,4.197144 549.979981,5.691504 L549.979981,20.320494 L550.320781,20.320494 C555.537951,7.238294 562.852431,0.998684 575.724901,0.998684 C584.088071,0.998684 592.241521,4.013624 597.484891,12.271924 C602.361221,19.927244 602.361221,32.799724 602.361221,42.054254 L602.361221,102.274364 C602.151491,103.952224 600.604691,105.289284 598.769531,105.289284 L580.076911,105.289284 C578.372801,105.158214 576.957091,103.899804 576.773591,102.274364 L576.773591,50.312574 C576.773591,39.852054 577.979561,24.541404 565.107081,24.541404 C560.571581,24.541404 556.403091,27.582574 554.331961,32.196724 C551.710291,38.043094 551.369471,43.863234 551.369471,50.312574 L551.369471,101.828674 C551.343271,103.742504 549.717811,105.289284 547.725331,105.289284" id="path18" fill="#FFFFFF"></path>
        <path d="M614.027711,97.686414 C614.027711,92.862504 618.143741,88.982424 623.203591,88.982424 C628.263441,88.982424 632.379481,92.862504 632.379481,97.686414 C632.379481,102.484084 628.263441,106.416624 623.203591,106.416624 C618.143741,106.416624 614.027711,102.484084 614.027711,97.686414" id="path20" fill="#FFFFFF"></path>
        <path d="M811.519181,105.315514 C809.579141,105.236814 808.058561,103.742504 808.058561,101.854894 L808.058561,6.189634 C808.163431,4.485524 809.605351,3.148464 811.388101,3.043614 L818.230691,3.043614 C820.118311,3.043614 821.638881,4.406874 821.796181,6.189634 L821.796181,20.136994 C826.672521,9.073474 835.743551,0.421914 847.200311,0.421914 L847.908161,0.421914 L848.589801,0.421914 C860.754411,0.421914 869.641921,9.388074 872.945251,22.417844 C878.109961,9.545374 887.810201,0.421914 900.604021,0.421914 L901.259441,0.421914 L902.019731,0.421914 C911.064541,0.421914 919.768531,6.242054 924.277831,15.103344 C928.629821,23.571384 928.472521,34.844624 928.472521,44.308904 L928.446321,101.854894 C928.472521,103.690054 926.978181,105.184414 925.116791,105.315514 L916.937131,105.315514 C915.154381,105.236814 913.712461,103.978454 913.476511,102.326794 L913.476511,44.308904 C913.476511,37.466324 913.817331,30.204244 911.038341,23.964634 C908.206921,17.593944 902.780031,13.608984 896.959901,13.320614 C890.458121,13.635204 884.480681,18.380464 880.600581,24.777374 C875.566951,33.035664 875.750471,40.481244 875.750471,50.129054 L875.750471,102.379214 C875.514521,103.952224 874.125021,105.184414 872.420931,105.315514 L864.293711,105.315514 C862.353661,105.236814 860.806871,103.742504 860.806871,101.854894 L860.754471,40.481244 C860.754471,34.844624 860.413651,28.211764 857.818191,23.151914 C854.803251,17.384224 849.402581,13.608984 843.739741,13.320614 C837.867171,13.661434 831.942161,18.144514 828.429111,23.361664 C823.893591,30.020724 823.028441,38.252814 823.028441,46.720864 L823.028441,101.854894 C823.028441,103.690054 821.534081,105.184414 819.672681,105.315514 L811.519241,105.315514" id="path22" fill="#FFFFFF"></path>
        <path d="M755.362701,107.307994 C728.909911,107.307994 717.059891,80.330854 717.059891,53.353724 C717.059891,24.987094 730.981041,0.421914 757.617351,0.421914 L758.298991,0.421914 L759.033061,0.421914 C784.935301,0.421914 797.833991,26.586334 797.833991,53.563464 C797.833991,82.139814 783.545811,107.307994 756.752201,107.307994 L756.070561,107.307994 L755.362701,107.307994 M757.302751,94.225794 C766.006741,93.937394 772.875551,88.536724 776.939171,79.544364 C780.583311,71.469564 781.291161,62.215014 781.291161,53.353724 C781.291161,43.705914 780.242491,33.638664 775.706971,25.380344 C771.643361,18.170714 764.669681,13.582784 757.276531,13.320614 C749.044441,13.608984 741.677511,19.193174 737.980941,27.792294 C734.651401,35.237894 733.628941,45.121624 733.628941,53.353724 C733.628941,62.608274 734.834911,73.304744 738.662571,81.353324 C742.385371,88.982424 749.542561,93.937394 757.302751,94.225794" id="path24" fill="#FFFFFF"></path>
        <path d="M672.700991,93.806324 C684.577231,93.439274 690.816831,83.922574 693.386081,71.600644 C693.910421,70.053854 695.090181,68.874094 696.820491,68.874094 L704.659331,68.847894 C706.520721,68.926494 708.224821,70.342254 708.067521,72.072584 C704.449591,93.072254 691.786861,107.308014 673.749671,107.308014 L673.015601,107.308014 L672.333961,107.308014 C646.064671,107.308014 634.739011,80.933864 634.739011,54.166454 C634.739011,27.608814 646.221991,0.421934 672.491261,0.421934 L673.199111,0.421934 L673.906971,0.421934 C692.153891,0.421934 705.157451,14.474164 707.988871,35.473864 C707.988871,37.046874 706.520721,38.410134 704.790411,38.593654 L696.584541,38.488784 C694.854231,38.252834 693.726901,36.784704 693.464731,35.133044 C691.498471,23.414104 684.760741,14.080924 673.539931,13.713874 C655.686251,14.290644 650.600201,36.260354 650.600201,53.170214 C650.600201,69.450884 654.847331,93.229574 672.700991,93.806344" id="path26" fill="#FFFFFF"></path>
        <path d="M299.373141,59.593334 C299.373141,66.855394 299.556661,72.911484 295.886301,79.360834 C292.923801,84.604214 288.204771,87.828884 282.987621,87.828884 C275.830421,87.828884 271.635731,82.375764 271.635731,74.327194 C271.635731,58.439794 285.871471,55.555944 299.373141,55.555944 L299.373141,59.593334 M318.170621,105.027114 C316.938441,106.128224 315.155681,106.206874 313.766191,105.472814 C307.579011,100.334314 306.451691,97.948584 303.069721,93.046034 C292.845151,103.480334 285.583071,106.600124 272.343571,106.600124 C256.639681,106.600124 244.448852,96.926114 244.448852,77.551884 C244.448852,62.424754 252.628521,52.121534 264.321231,47.087904 C274.440931,42.631024 288.571791,41.844534 299.373141,40.612344 L299.373141,38.200394 C299.373141,33.769734 299.713961,28.526364 297.092281,24.698724 C294.837631,21.264304 290.485621,19.848594 286.631761,19.848594 C279.526981,19.848594 273.208741,23.492734 271.661931,31.043184 C271.347331,32.721074 270.115151,34.372734 268.411041,34.451384 L250.347642,32.511324 C248.827062,32.170524 247.122972,30.938314 247.568662,28.605034 C251.710921,6.687754 271.530861,0.081094 289.253431,0.081094 C298.324471,0.081094 310.174481,2.493044 317.331681,9.361854 C326.402701,17.829894 325.537551,29.129354 325.537551,41.425064 L325.537551,70.473324 C325.537551,79.203544 329.155471,83.031184 332.563661,87.750234 C333.743431,89.428094 334.005601,91.446794 332.484961,92.705204 C328.683521,95.877454 321.919571,101.776244 318.196781,105.079564 L318.170581,105.027064" id="path28" fill="#FFFFFF"></path>
        <path d="M55.005952,59.593334 C55.005952,66.855394 55.189452,72.911484 51.519111,79.360834 C48.556591,84.604214 43.863781,87.828884 38.620411,87.828884 C31.463211,87.828884 27.294741,82.375764 27.294741,74.327194 C27.294741,58.439794 41.530481,55.555944 55.005952,55.555944 L55.005952,59.593334 M73.803422,105.027114 C72.571232,106.128224 70.788472,106.206874 69.398982,105.472814 C63.211822,100.334314 62.110702,97.948584 58.702512,93.046034 C48.477941,103.480334 41.242111,106.600124 27.976371,106.600124 C12.298691,106.600124 0.081661,96.926114 0.081661,77.551884 C0.081661,62.424754 8.287531,52.121534 19.954021,47.087904 C30.073721,42.631024 44.204601,41.844534 55.005952,40.612344 L55.005952,38.200394 C55.005952,33.769734 55.346772,28.526364 52.751302,24.698724 C50.470421,21.264304 46.118441,19.848594 42.290771,19.848594 C35.186021,19.848594 28.841531,23.492734 27.294741,31.043184 C26.980131,32.721074 25.747941,34.372734 24.070071,34.451384 L5.980451,32.511324 C4.459871,32.170524 2.781991,30.938314 3.201461,28.605034 C7.369941,6.687754 27.163651,0.081094 44.886251,0.081094 C53.957262,0.081094 65.807272,2.493044 72.964472,9.361854 C82.035512,17.829894 81.170342,29.129354 81.170342,41.425064 L81.170342,70.473324 C81.170342,79.203544 84.788282,83.031184 88.196472,87.750234 C89.402442,89.428094 89.664612,91.446794 88.144032,92.705204 C84.342592,95.877454 77.578652,101.776244 73.855842,105.079564 L73.803422,105.027064" id="path30" fill="#FFFFFF"></path>
        <path d="M947.820551,4.066054 C952.303631,4.066054 956.026421,7.683994 956.026421,12.245724 C956.026421,16.702574 952.356071,20.451594 947.820551,20.451594 C943.311261,20.451594 939.640901,16.781224 939.640901,12.245724 C939.640901,7.631544 943.363691,4.066054 947.820551,4.066054 M947.846751,2.493044 C942.603381,2.493044 938.067871,6.740174 938.067871,12.271924 C938.067871,17.698814 942.524731,22.024604 947.846751,22.024604 C953.194981,22.024604 957.599411,17.646394 957.599411,12.271924 C957.599411,6.740174 953.116341,2.493044 947.846751,2.493044 M944.176391,17.751244 L946.273741,17.751244 L946.273741,13.346814 L948.213791,13.346814 C948.974071,13.346814 949.183811,13.661434 949.341111,14.290624 C949.341111,14.447924 949.708151,17.226924 949.734361,17.751244 L952.067661,17.751244 C951.779281,17.226924 951.621971,15.732564 951.517111,14.841174 C951.307371,13.451684 951.202501,12.481664 949.708151,12.376794 C950.468431,12.114624 951.779281,11.695154 951.779281,9.676474 C951.779281,6.792604 949.236241,6.792604 947.925401,6.792604 L944.176391,6.792604 L944.176391,17.751244 M946.221311,8.549134 L947.977831,8.549134 C948.554601,8.549134 949.603281,8.549134 949.603281,10.043494 C949.603281,10.620264 949.341111,11.590304 947.925401,11.590304 L946.221311,11.590304 L946.221311,8.549134" id="path32" fill="#FFFFFF"></path>
    </g>
</svg>