<?xml version="1.0" encoding="UTF-8" standalone="no"?>
<svg width="4640px" height="1740px" viewBox="0 0 4640 1740" version="1.1" xmlns="http://www.w3.org/2000/svg" xmlns:xlink="http://www.w3.org/1999/xlink">
    <!-- Generator: Sketch 39.1 (31720) - http://www.bohemiancoding.com/sketch -->
    <title>Slice 1</title>
    <desc>Created with Sketch.</desc>
    <defs></defs>
    <g id="Page-1" stroke="none" stroke-width="1" fill="none" fill-rule="evenodd">
        <g id="g12" transform="translate(2320.000000, 870.000000) scale(1, -1) translate(-2320.000000, -870.000000) ">
            <polyline id="path14" fill="#F68D11" points="1289.67 1140 1020 1230 1020 1620 1290 1540 1289.67 1140"></polyline>
            <polyline id="path16" fill="#F68D11" points="1360 1540 1630 1620 1629.06 1230.27 1360 1140 1360 1540"></polyline>
            <polyline id="path18" fill="#F68D11" points="1575 1662.23 1323.36 1740 1075 1662.23 1323.72 1595.56 1575 1662.23"></polyline>
            <polyline id="path20" fill="#F68D11" points="1969.67 1140 1700 1230 1700 1620 1970 1540 1969.67 1140"></polyline>
            <polyline id="path22" fill="#F68D11" points="2040 1540 2310 1620 2309.06 1230.27 2040 1140 2040 1540"></polyline>
            <polyline id="path24" fill="#F68D11" points="2255 1662.23 2003.36 1740 1755 1662.23 2003.72 1595.56 2255 1662.23"></polyline>
            <polyline id="path26" fill="#F68D11" points="270 970 0 1050 0 660 269.672 570 270 970"></polyline>
            <polyline id="path28" fill="#F68D11" points="340 970 610 1050 609.063 660.262 340 570 340 970"></polyline>
            <polyline id="path30" fill="#F68D11" points="555 1092.23 303.359 1170 55 1092.23 303.723 1025.56 555 1092.23"></polyline>
            <polyline id="path32" fill="#F68D11" points="949.672 570 680 660 680 1050 950 970 949.672 570"></polyline>
            <polyline id="path34" fill="#F68D11" points="1020 970 1290 1050 1289.06 660.262 1020 570 1020 970"></polyline>
            <polyline id="path36" fill="#F68D11" points="1235 1092.23 983.359 1170 735 1092.23 983.723 1025.56 1235 1092.23"></polyline>
            <polyline id="path38" fill="#F68D11" points="609.672 0 340 90 340 480 610 400 609.672 0"></polyline>
            <polyline id="path40" fill="#F68D11" points="680 400 950 480 949.063 90.2617 680 0 680 400"></polyline>
            <polyline id="path42" fill="#F68D11" points="895 522.23 643.359 600 395 522.23 643.723 455.559 895 522.23"></polyline>
            <path d="M1803.9,344.75 L1784.06,344.68 C1776.78,344.68 1767.5,339.762 1765.22,331.789 L1705.03,119.738 L1645.5,331.328 C1643.71,337.961 1637.46,344.68 1628.96,344.68 L1605.47,344.68 C1597.01,344.68 1590.84,337.871 1589.13,331.191 L1533.75,121.801 L1476.53,331.84 C1474.27,339.52 1464.76,344.68 1457.3,344.68 L1428.75,344.73 C1422.65,344.73 1416.98,342.109 1413.94,337.891 C1411.88,335.031 1411.31,331.789 1412.26,328.969 L1500.66,16.0117 C1502.61,9.42969 1508.31,2.80078 1516.65,2.80078 L1545.04,2.80078 C1552.71,2.80078 1559.43,8.39063 1561.37,16.3203 L1615.78,224.789 L1674.99,16.082 C1676.77,9.69141 1682.5,2.80078 1690.88,2.80078 L1718.81,2.80078 C1726.58,2.80078 1733.12,8.19922 1735.04,16.1094 L1820.13,328.84 C1821.13,331.852 1820.55,335.199 1818.52,338.02 C1815.53,342.172 1809.93,344.75 1803.9,344.75" id="path44" fill="#FFFFFF"></path>
            <path d="M2049.38,211.879 L1899.4,211.879 C1902.85,253.969 1930.18,297.609 1976.48,299.289 C2025.75,297.68 2048.29,255.039 2049.38,211.879 L2049.38,211.879 Z M1976.37,346.988 C1875.06,346.988 1828.92,257.422 1828.92,174.211 C1828.92,70.3594 1886.28,3.26172 1975.05,3.26172 C2038.58,3.26172 2087.01,35.3594 2107.93,91.4414 C2109.05,94.6484 2108.7,98.1289 2106.95,101.25 C2104.82,105.039 2100.78,107.898 2096,108.949 L2067.88,114.328 C2060.33,115.512 2051.68,111.039 2048.82,104.551 C2035.16,73.3906 2010.26,55.7109 1979.01,54.7891 C1948.94,55.7188 1921.33,73.582 1908.68,100.27 C1898.4,122.07 1896.88,143.559 1896.71,165.41 L2100.32,165.48 C2104.59,165.48 2109.01,167.359 2112.13,170.52 C2114.74,173.141 2116.16,176.398 2116.13,179.66 C2115.63,260.559 2078.66,346.988 1976.37,346.988 L1976.37,346.988 Z" id="path46" fill="#FFFFFF"></path>
            <path d="M2366.62,173.711 C2366.62,154.551 2363.15,58.8789 2295.18,56.4297 C2272.4,57.3008 2249.38,70.6914 2236.52,90.4883 C2227.05,105.461 2221.52,126.16 2220.1,151.77 L2220.1,208.059 C2221.21,251.18 2251.56,298.5 2294.96,300.332 C2363.16,297.641 2366.62,194.391 2366.62,173.711 L2366.62,173.711 Z M2305.84,349.891 L2300.45,349.891 C2266.82,349.891 2240.39,335.922 2220.1,307.289 L2220.07,439.219 C2220.07,446.629 2212.42,453.379 2203.97,453.379 L2174.69,453.379 C2167.04,453.379 2158.48,447.32 2158.46,439.219 L2158.46,27.3789 C2158.49,19.8984 2166.14,13.1016 2174.58,13.1016 L2183.18,13.1484 C2191.3,13.1484 2197.08,19.6914 2199.03,25.7695 L2208.19,54.8398 C2229.47,24.6211 2261.52,6.87109 2295.82,6.87109 L2301.07,6.87109 C2391.42,6.87109 2431.86,94.75 2431.86,181.84 C2431.86,225.191 2421.17,266.641 2402.54,295.559 C2381.01,329.07 2343.95,349.891 2305.84,349.891 L2305.84,349.891 Z" id="path48" fill="#FFFFFF"></path>
            <path d="M2752.47,182.98 C2733.43,196.66 2710.54,201.23 2687.61,205.809 L2643.64,213.961 C2612.09,219.148 2593.83,227.609 2593.83,255.449 C2593.83,284.879 2624.33,296.129 2650.19,296.828 C2681.77,296.031 2705.52,281.941 2717.05,257.16 C2719.79,251.32 2725.86,247.391 2732.17,247.391 C2733.25,247.391 2734.35,247.512 2735.39,247.738 L2762.83,253.801 C2767.31,254.789 2771.49,257.859 2773.73,261.852 C2775.52,265.02 2775.91,268.48 2774.84,271.57 C2758.05,320.48 2715.42,346.328 2650.93,346.328 C2592.66,346.199 2530.39,320.289 2530.39,247.922 C2530.39,198.461 2561.47,167.051 2622.83,154.551 L2672.05,145.172 C2699.07,140 2726.7,130.801 2726.7,101.789 C2726.7,58.8398 2676.72,54.4609 2661.61,54.1484 C2627.71,54.8789 2589.33,70 2580.01,102.02 C2578.14,109.059 2569.28,114.039 2561.51,112.422 L2532.81,106.5 C2528.49,105.59 2524.54,102.781 2522.24,98.9883 C2520.31,95.8281 2519.76,92.2891 2520.65,89.0586 C2535.46,35.9297 2586.75,3.89063 2657.85,3.35156 L2659.43,3.33984 C2722.93,3.33984 2790.78,30.5313 2790.78,106.809 C2790.78,137.859 2776.81,165.621 2752.47,182.98" id="path50" fill="#FFFFFF"></path>
            <path d="M3042.75,211.57 L2892.73,211.57 C2896.16,253.699 2923.49,297.359 2969.79,298.961 C3019.04,297.398 3041.61,254.762 3042.75,211.57 L3042.75,211.57 Z M2969.71,346.699 C2868.38,346.699 2822.23,257.129 2822.23,173.922 C2822.23,70.0781 2879.6,2.98828 2968.38,2.98828 C3031.92,2.98828 3080.35,35.0898 3101.29,91.1602 C3102.4,94.3711 3102.05,97.8594 3100.29,100.988 C3098.16,104.781 3094.11,107.641 3089.34,108.672 L3061.18,114.051 C3054.59,115.121 3045.4,111.711 3042.16,104.262 C3028.49,73.1211 3003.58,55.4414 2972.36,54.4805 C2942.26,55.4414 2914.66,73.3008 2902.06,99.9805 C2891.76,121.73 2890.23,143.238 2890.08,165.141 L3093.67,165.191 C3097.91,165.191 3102.3,167.059 3105.42,170.199 C3108.04,172.832 3109.46,176.09 3109.43,179.371 C3108.96,260.262 3072.02,346.699 2969.71,346.699 L2969.71,346.699 Z" id="path52" fill="#FFFFFF"></path>
            <path d="M3301.69,342.891 C3297.72,343.328 3293.9,343.539 3290.19,343.539 C3256.02,343.539 3228.27,324.961 3209.01,289.469 L3209.08,320.551 C3209.05,328.078 3201.54,334.691 3193.01,334.691 L3167.58,334.691 C3159.24,334.691 3151.88,328.051 3151.82,320.43 L3151.78,18.5 C3151.78,10.9219 3159.14,4.26953 3167.54,4.26953 L3197.21,4.28125 C3204.93,4.28125 3213.62,10.3398 3213.69,18.5 L3213.71,170.719 C3213.71,195.82 3216.05,214.73 3228.04,237.102 C3245.17,268.969 3269.09,284.602 3301.17,284.852 C3309.21,284.91 3316.27,291.93 3316.27,299.879 L3316.27,328.121 C3316.27,335.512 3309.86,342 3301.69,342.891" id="path54" fill="#FFFFFF"></path>
            <path d="M3613.2,348.82 L3589.77,348.809 C3582.43,348.809 3573.02,343.539 3570.74,335.809 L3494.79,97.1016 L3417.23,335.57 C3414.94,343.488 3405.51,348.809 3398.13,348.809 L3364.67,348.84 C3358.53,348.84 3352.59,346.102 3349.55,341.871 C3347.51,339.039 3346.95,335.828 3347.96,332.832 L3454.11,17.9414 C3456.15,11.7109 3461.56,4.42969 3470.12,4.42969 L3510.61,4.42969 C3518.04,4.42969 3524.13,9.48828 3526.92,17.9688 L3629.88,332.73 C3630.91,335.719 3630.36,338.941 3628.33,341.781 C3625.27,346.051 3619.34,348.82 3613.2,348.82" id="path56" fill="#FFFFFF"></path>
            <path d="M3690.18,469.859 C3668.6,469.859 3651.05,452.262 3651.05,430.609 C3651.05,408.961 3668.6,391.371 3690.18,391.371 C3711.77,391.371 3729.34,408.961 3729.34,430.609 C3729.34,452.262 3711.77,469.859 3690.18,469.859" id="path58" fill="#FFFFFF"></path>
            <path d="M3706.29,350.738 L3674.16,350.77 C3665.42,350.77 3657.46,343.699 3657.46,335.949 L3657.3,15.3594 C3657.3,11.4805 3659.3,7.62891 3662.76,4.76953 C3665.93,2.17188 3669.98,0.671875 3674.05,0.671875 L3706.41,0.621094 L3706.43,0.621094 C3715.3,0.699219 3723.09,7.57813 3723.09,15.3398 L3723.09,335.949 C3723.09,343.828 3715.23,350.738 3706.29,350.738" id="path60" fill="#FFFFFF"></path>
            <path d="M4006.56,133.34 L3979.73,133.238 C3972.24,133.238 3965.96,128.738 3963.17,120.922 C3953.37,78.6406 3931.17,56.7305 3897.51,55.7617 C3831.95,57.7109 3826.86,149.09 3826.86,177.051 C3826.86,232.809 3846.17,292.98 3900.08,294.57 C3932.62,293.57 3956.29,270.238 3963.39,232.219 C3964.73,224.461 3970.69,218.59 3978.83,217.57 L4007.54,217.289 C4016.12,218.219 4022.85,224.711 4022.79,232.762 C4012.63,301.469 3965.02,345.879 3901.39,345.879 L3899.19,345.82 L3896.7,345.879 C3804.16,345.879 3762.73,259.512 3762.73,173.922 C3762.73,95.4492 3797.66,3.82031 3896.18,3.82031 L3900.9,3.82031 C3962.94,3.82031 4009.77,47.3086 4023.18,117.82 C4023.48,121.18 4022.32,124.539 4019.94,127.27 C4016.86,130.809 4011.95,133.078 4006.56,133.34" id="path62" fill="#FFFFFF"></path>
            <path d="M4271.54,211.57 L4121.5,211.57 C4124.93,253.711 4152.27,297.359 4198.6,298.961 C4247.86,297.398 4270.42,254.762 4271.54,211.57 L4271.54,211.57 Z M4198.5,346.699 C4097.18,346.699 4051.04,257.129 4051.04,173.922 C4051.04,70.0781 4108.41,2.98828 4197.19,2.98828 C4260.7,2.98828 4309.11,35.0703 4330.07,91.1484 C4331.16,94.3789 4330.8,97.8789 4329.05,100.988 C4326.89,104.809 4322.96,107.602 4318.11,108.672 L4289.99,114.051 C4283.37,115.121 4274.21,111.711 4270.97,104.262 C4257.26,73.1211 4232.34,55.4414 4201.13,54.4688 C4171.04,55.4414 4143.45,73.3008 4130.85,99.9805 C4120.54,121.762 4119.01,143.27 4118.85,165.141 L4322.46,165.172 C4326.74,165.172 4331.16,167.059 4334.29,170.23 C4336.89,172.879 4338.29,176.141 4338.24,179.371 C4337.77,260.262 4300.82,346.699 4198.5,346.699 L4198.5,346.699 Z" id="path64" fill="#FFFFFF"></path>
            <path d="M4593.31,182.98 C4574.24,196.672 4551.32,201.238 4528.43,205.809 L4484.46,213.961 C4452.94,219.148 4434.69,227.609 4434.69,255.449 C4434.69,293.41 4481.8,296.582 4490.99,296.828 C4522.6,296.031 4546.35,281.941 4557.86,257.148 C4560.62,251.309 4566.71,247.391 4573.03,247.391 C4574.12,247.391 4575.21,247.512 4576.27,247.738 L4603.69,253.801 C4608.17,254.789 4612.34,257.871 4614.58,261.859 C4616.36,265.031 4616.75,268.48 4615.68,271.57 C4598.91,320.48 4556.27,346.328 4491.75,346.328 C4433.5,346.199 4371.25,320.289 4371.25,247.922 C4371.25,198.449 4402.32,167.039 4463.67,154.551 L4512.91,145.172 C4539.93,140 4567.56,130.801 4567.56,101.789 C4567.56,58.8398 4517.58,54.4609 4502.47,54.1484 C4471.04,54.8203 4430.81,67.8008 4420.88,101.98 C4419.06,109.059 4410.21,114.031 4402.3,112.422 L4373.65,106.5 C4369.31,105.578 4365.35,102.75 4363.05,98.9492 C4361.14,95.7813 4360.59,92.2695 4361.49,89.0586 C4376.26,35.9297 4427.54,3.89063 4498.65,3.35156 L4500.23,3.33984 C4563.74,3.33984 4631.6,30.5313 4631.6,106.809 C4631.6,137.879 4617.64,165.648 4593.31,182.98" id="path66" fill="#FFFFFF"></path>
            <path d="M3287.15,967.98 L3287.15,1040.78 C3287.19,1051.82 3295.57,1059.23 3305.63,1059.22 L3631.78,1059.23 C3642.19,1059.23 3650.59,1051.64 3650.59,1040.86 L3650.59,978.43 C3650.49,967.98 3641.66,954.316 3626.02,932.617 L3457.09,691.41 C3519.77,692.898 3586.13,683.512 3643.09,651.488 C3655.96,644.27 3659.38,633.559 3660.43,623.102 L3660.43,545.422 C3660.43,534.711 3648.71,522.332 3636.41,528.781 C3536.02,581.379 3402.79,587.121 3291.76,528.172 C3280.43,522.121 3268.55,534.309 3268.55,545.02 L3268.55,618.832 C3268.55,630.609 3268.79,650.84 3280.68,668.859 L3476.43,949.641 L3306.02,949.68 C3295.59,949.68 3287.25,957.102 3287.15,967.98" id="path68" fill="#FFFFFF"></path>
            <path d="M2097.45,513.461 L1998.2,513.461 C1988.77,514.078 1981.22,521.191 1980.47,530.262 L1980.54,1039.54 C1980.54,1049.73 1989.12,1057.87 1999.68,1057.87 L2092.09,1057.92 C2101.77,1057.38 2109.51,1050.08 2110.17,1040.82 L2110.17,974.277 L2112.01,974.277 C2136.07,1038.61 2181.46,1068.57 2242.58,1068.57 C2304.63,1068.57 2343.54,1038.61 2371.33,974.277 C2395.43,1038.61 2450.06,1068.57 2508.46,1068.57 C2550.14,1068.57 2595.47,1051.45 2623.26,1012.89 C2654.75,970 2648.26,907.883 2648.26,853.203 L2648.2,531.809 C2648.2,521.648 2639.63,513.461 2629.08,513.461 L2529.98,513.461 C2520,514.078 2512.15,522.039 2512.15,531.762 L2512.15,801.77 C2512.15,823.191 2513.98,876.797 2509.36,897.141 C2501.93,931.465 2479.69,941.055 2451.02,941.055 C2426.91,941.055 2401.89,924.98 2391.7,899.316 C2381.52,873.555 2382.46,830.691 2382.46,801.77 L2382.46,531.809 C2382.46,521.648 2373.89,513.461 2363.32,513.461 L2264.2,513.461 C2254.27,514.078 2246.4,522.039 2246.4,531.762 L2246.27,801.77 C2246.27,858.574 2255.56,942.129 2185.18,942.129 C2113.86,942.129 2116.64,860.703 2116.64,801.77 L2116.58,531.809 C2116.62,521.648 2108.04,513.461 2097.45,513.461" id="path70" fill="#FFFFFF"></path>
            <path d="M3932.29,964.656 C3859.08,964.656 3854.47,865 3854.47,802.82 C3854.47,740.676 3853.55,607.801 3931.39,607.801 C4008.28,607.801 4011.97,714.969 4011.97,780.332 C4011.97,823.191 4010.14,874.617 3997.17,915.344 C3986.02,950.723 3963.81,964.656 3932.29,964.656 L3932.29,964.656 Z M3931.39,1068.57 C4078.65,1068.57 4158.32,942.129 4158.32,781.438 C4158.32,626.012 4070.29,502.762 3931.39,502.762 C3786.88,502.762 3708.13,629.238 3708.13,786.77 C3708.13,945.371 3787.77,1068.57 3931.39,1068.57 L3931.39,1068.57 Z" id="path72" fill="#FFFFFF"></path>
            <path d="M4349.32,513.461 L4250.45,513.461 C4240.49,514.078 4232.64,522.039 4232.64,531.762 L4232.5,1041.27 C4233.32,1050.55 4241.56,1057.87 4251.52,1057.87 L4343.59,1057.92 C4352.27,1057.44 4359.39,1051.54 4361.21,1043.65 L4361.21,965.723 L4363.09,965.723 C4390.84,1035.39 4429.77,1068.57 4498.28,1068.57 C4542.75,1068.57 4586.31,1052.54 4614.08,1008.59 C4640,967.883 4640,899.316 4640,850.012 L4640,529.52 C4638.89,520.488 4630.84,513.461 4621.04,513.461 L4521.52,513.461 C4512.34,514.059 4504.96,520.84 4503.85,529.52 L4503.85,806.055 C4503.85,861.777 4510.35,943.242 4441.78,943.242 C4417.71,943.242 4395.51,927.129 4384.38,902.512 C4370.47,871.445 4368.63,840.371 4368.63,806.055 L4368.63,531.809 C4368.46,521.648 4359.88,513.461 4349.32,513.461" id="path74" fill="#FFFFFF"></path>
            <path d="M3127.19,514.75 C3120.61,508.879 3111.19,508.488 3103.77,512.441 C3070.82,539.832 3064.9,552.531 3046.89,578.582 C2992.42,523.102 2953.85,506.461 2883.32,506.461 C2799.75,506.461 2734.79,558.02 2734.79,661.121 C2734.79,741.648 2778.4,796.426 2840.59,823.293 C2894.43,846.926 2969.63,851.23 3027.17,857.695 L3027.17,870.566 C3027.17,894.18 3029.02,922.117 3015.08,942.512 C3003.05,960.77 2979.84,968.27 2959.39,968.27 C2921.54,968.27 2887.91,948.867 2879.63,908.672 C2877.95,899.746 2871.39,890.879 2862.4,890.449 L2766.25,900.867 C2758.11,902.695 2749.1,909.188 2751.45,921.582 C2773.55,1038.28 2878.91,1073.54 2973.34,1073.54 C3021.58,1073.54 3084.73,1060.66 3122.79,1024.15 C3171.04,979.023 3166.39,918.887 3166.39,853.367 L3166.39,698.781 C3166.39,652.281 3185.72,631.871 3203.89,606.809 C3210.18,597.77 3211.6,587.059 3203.52,580.43 C3183.26,563.449 3147.25,532.199 3127.46,514.531 L3127.19,514.75 L3127.19,514.75 Z M3027.17,756.711 C3027.17,718.039 3028.09,685.789 3008.59,651.449 C2992.81,623.5 2967.73,606.332 2939.88,606.332 C2901.86,606.332 2879.59,635.32 2879.59,678.301 C2879.59,762.793 2955.41,778.176 3027.17,778.176 L3027.17,756.711 L3027.17,756.711 Z" id="path76" fill="#FFFFFF"></path>
            <path d="M1826.45,514.75 C1819.89,508.879 1810.4,508.488 1802.98,512.441 C1770.03,539.832 1764.13,552.531 1746.1,578.582 C1691.66,523.102 1653.07,506.461 1582.5,506.461 C1498.96,506.461 1433.98,558.02 1433.98,661.121 C1433.98,741.648 1477.63,796.426 1539.82,823.293 C1593.67,846.926 1668.86,851.23 1726.4,857.695 L1726.4,870.566 C1726.4,894.18 1728.27,922.117 1714.33,942.512 C1702.27,960.77 1679.04,968.27 1658.65,968.27 C1620.8,968.27 1587.13,948.867 1578.88,908.672 C1577.16,899.746 1570.63,890.879 1561.65,890.449 L1465.46,900.867 C1457.34,902.695 1448.32,909.188 1450.65,921.582 C1472.75,1038.28 1578.12,1073.54 1672.54,1073.54 C1720.84,1073.54 1783.94,1060.66 1822.01,1024.15 C1870.28,979.023 1865.62,918.887 1865.62,853.367 L1865.62,698.781 C1865.62,652.281 1884.96,631.871 1903.08,606.809 C1909.4,597.77 1910.83,587.059 1902.77,580.43 C1882.49,563.449 1846.46,532.199 1826.68,514.531 L1826.45,514.75 L1826.45,514.75 Z M1726.4,756.711 C1726.4,718.039 1727.31,685.789 1707.85,651.449 C1692.08,623.5 1666.98,606.332 1639.17,606.332 C1601.07,606.332 1578.81,635.32 1578.81,678.301 C1578.81,762.793 1654.61,778.176 1726.4,778.176 L1726.4,756.711 L1726.4,756.711 Z" id="path78" fill="#FFFFFF"></path>
        </g>
    </g>
</svg>