<?xml version="1.0" encoding="UTF-8" standalone="no"?>
<svg width="477px" height="65px" viewBox="0 0 477 65" version="1.1" xmlns="http://www.w3.org/2000/svg" xmlns:xlink="http://www.w3.org/1999/xlink">
    <!-- Generator: Sketch 39.1 (31720) - http://www.bohemiancoding.com/sketch -->
    <title>Slice 1</title>
    <desc>Created with Sketch.</desc>
    <defs>
        <polygon id="path-1" points="155.08 58.94 0.06 58.94 0.06 0.92 155.08 0.92 155.08 58.94"></polygon>
        <polygon id="path-3" points="0.663 58.94 259.098 58.94 259.098 29.93 259.098 0.92 0.663 0.92 0.663 58.94"></polygon>
    </defs>
    <g id="Page-1" stroke="none" stroke-width="1" fill="none" fill-rule="evenodd">
        <g id="bt-logo-white-(1)">
            <g id="Group-5" transform="translate(0.000000, 6.000000)">
                <mask id="mask-2" fill="white">
                    <use xlink:href="#path-1"></use>
                </mask>
                <g id="Clip-2"></g>
                <path d="M15.546,49.32 L26.693,49.32 C35.298,49.32 39.6,46.484 39.6,41.009 C39.6,35.632 35.004,32.698 26.009,32.698 L15.546,32.698 L15.546,49.32 L15.546,49.32 Z M15.546,9.231 L15.546,24.681 L25.325,24.681 C32.658,24.681 36.471,21.942 36.471,16.956 C36.471,11.871 32.56,9.231 25.227,9.231 L15.546,9.231 L15.546,9.231 Z M0,57.632 L0,49.32 L6.551,49.32 L6.551,9.231 L0,9.231 L0,0.92 L26.205,0.92 C38.231,0.92 45.564,6.493 45.564,16.174 C45.564,22.529 41.849,26.44 37.156,28.298 C43.902,30.156 48.693,34.947 48.693,41.498 C48.693,51.862 40.676,57.632 27.573,57.632 L0,57.632 L0,57.632 Z" id="Fill-1" fill="#FFFFFF" mask="url(#mask-2)"></path>
                <path d="M96.216,28.103 C95.238,24.778 92.794,22.822 89.567,22.822 C82.038,22.822 74.9,28.396 74.9,38.564 L74.9,49.32 L89.372,49.32 L89.372,57.632 L57.105,57.632 L57.105,49.32 L66.295,49.32 L66.295,24.289 L59.06,24.289 L59.06,15.978 L74.802,15.978 L74.802,23.018 C77.442,18.129 82.82,14.609 89.958,14.609 C97.976,14.609 102.962,19.205 104.429,25.756 L96.216,28.103" id="Fill-3" fill="#FFFFFF" mask="url(#mask-2)"></path>
                <path d="M140.218,40.813 C137.48,39.836 133.373,39.054 129.56,39.054 C124.084,39.054 118.804,40.813 118.804,45.801 C118.804,49.516 122.128,51.276 126.724,51.276 C133.08,51.276 140.218,47.854 140.218,41.987 L140.218,40.813 L140.218,40.813 Z M140.218,33.383 L140.218,31.036 C140.218,25.169 135.524,22.725 130.44,22.725 C125.649,22.725 121.542,24.681 118.217,27.711 L112.546,21.552 C116.458,17.934 122.031,14.609 130.44,14.609 C140.902,14.609 149.018,20.183 149.018,30.742 L149.018,49.32 L155.08,49.32 L155.08,57.632 L140.218,57.632 L140.218,53.231 C137.969,56.85 131.907,59 125.942,59 C117.337,59 109.906,54.601 109.906,45.898 C109.906,35.632 119.978,31.721 129.168,31.721 C133.667,31.721 137.382,32.601 140.218,33.383 L140.218,33.383 Z" id="Fill-4" fill="#FFFFFF" mask="url(#mask-2)"></path>
            </g>
            <path d="M181.58,13.667 L191.26,13.667 L191.26,0.956 L181.58,0.956 L181.58,13.667 Z M207.296,55.32 L207.296,63.632 L165.251,63.632 L165.251,55.32 L182.656,55.32 L182.656,30.289 L169.358,30.289 L169.358,21.978 L191.26,21.978 L191.26,55.32 L207.296,55.32 L207.296,55.32 Z" id="Fill-6" fill="#FFFFFF"></path>
            <g id="Group-13" transform="translate(217.000000, 6.000000)">
                <mask id="mask-4" fill="white">
                    <use xlink:href="#path-3"></use>
                </mask>
                <g id="Clip-8"></g>
                <path d="M0.663,49.32 L7.018,49.32 L7.018,24.289 L1.053,24.289 L1.053,15.978 L15.525,15.978 L15.525,21.355 C18.067,17.249 23.347,14.609 29.8,14.609 C39.089,14.609 45.738,20.476 45.738,29.96 L45.738,49.32 L52.094,49.32 L52.094,57.632 L30.485,57.632 L30.485,49.32 L37.134,49.32 L37.134,32.307 C37.134,25.071 32.734,23.018 28.725,23.018 C22.173,23.018 15.623,27.907 15.623,35.436 L15.623,49.32 L22.271,49.32 L22.271,57.632 L0.663,57.632 L0.663,49.32" id="Fill-7" fill="#FFFFFF" mask="url(#mask-4)"></path>
                <path d="M63.927,24.289 L53.074,24.289 L53.074,15.978 L63.927,15.978 L63.927,0.92 L72.531,0.92 L72.531,15.978 L92.771,15.978 L92.771,24.289 L72.531,24.289 L72.531,41.791 C72.531,48.245 77.029,50.885 82.211,50.885 C87.1,50.885 91.207,48.147 94.238,45.116 L100.007,51.08 C96.194,55.187 90.327,59 82.211,59 C71.749,59 63.927,53.231 63.927,42.085 L63.927,24.289" id="Fill-9" fill="#FFFFFF" mask="url(#mask-4)"></path>
                <path d="M146.942,28.103 C145.964,24.778 143.52,22.822 140.293,22.822 C132.765,22.822 125.626,28.396 125.626,38.564 L125.626,49.32 L140.098,49.32 L140.098,57.632 L107.831,57.632 L107.831,49.32 L117.022,49.32 L117.022,24.289 L109.787,24.289 L109.787,15.978 L125.529,15.978 L125.529,23.018 C128.169,18.129 133.547,14.609 140.685,14.609 C148.703,14.609 153.689,19.205 155.156,25.756 L146.942,28.103" id="Fill-10" fill="#FFFFFF" mask="url(#mask-4)"></path>
                <path d="M170.118,32.503 L195.735,32.503 C194.464,26.538 189.184,22.529 183.318,22.529 C176.668,22.529 171.584,26.636 170.118,32.503 L170.118,32.503 Z M204.829,51.276 C200.527,55.774 192.9,59 184.393,59 C170.411,59 160.633,49.613 160.633,36.805 C160.633,23.996 170.118,14.609 183.318,14.609 C196.42,14.609 205.611,24.681 205.611,38.369 L205.611,39.836 L169.727,39.836 C171.193,46.778 176.962,50.983 184.491,50.983 C190.749,50.983 196.126,48.441 199.06,45.214 L204.829,51.276 L204.829,51.276 Z" id="Fill-11" fill="#FFFFFF" mask="url(#mask-4)"></path>
                <path d="M223.604,32.503 L249.222,32.503 C247.951,26.538 242.671,22.529 236.804,22.529 C230.156,22.529 225.071,26.636 223.604,32.503 L223.604,32.503 Z M258.316,51.276 C254.013,55.774 246.387,59 237.88,59 C223.898,59 214.12,49.613 214.12,36.805 C214.12,23.996 223.604,14.609 236.804,14.609 C249.907,14.609 259.098,24.681 259.098,38.369 L259.098,39.836 L223.213,39.836 C224.68,46.778 230.449,50.983 237.978,50.983 C244.236,50.983 249.613,48.441 252.547,45.214 L258.316,51.276 L258.316,51.276 Z" id="Fill-12" fill="#FFFFFF" mask="url(#mask-4)"></path>
            </g>
        </g>
    </g>
</svg>