<?xml version="1.0" encoding="UTF-8" standalone="no"?>
<svg width="39px" height="24px" viewBox="0 0 39 24" version="1.1" xmlns="http://www.w3.org/2000/svg" xmlns:xlink="http://www.w3.org/1999/xlink">
    <!-- Generator: Sketch 39.1 (31720) - http://www.bohemiancoding.com/sketch -->
    <title>Slice 1</title>
    <desc>Created with Sketch.</desc>
    <defs></defs>
    <g id="Page-1" stroke="none" stroke-width="1" fill="none" fill-rule="evenodd">
        <path d="M17.6,17.6 C17.5,17.6 17.5,17.6 17.6,17.6 L17.6,18.1 C17.6,19 16.9,19.7 16,19.7 C15.6,19.7 15.3,19.6 15,19.4 C14.9,19.7 14.8,20 14.8,20.3 C14.8,21.8 16,23.1 17.6,23.1 C19.2,23.1 20.4,21.9 20.4,20.3 C20.4,18.7 19.1,17.6 17.6,17.6 L17.6,17.6 Z" id="Shape" fill="#FF4338"></path>
        <path d="M32.8,11.8 L32.3,11.8 C32.5,11.1 32.6,10.4 32.6,9.6 C32.6,4.6 28.5,0.5 23.5,0.5 C19.3,0.5 15.7,3.4 14.7,7.3 C14.1,7 13.4,6.8 12.6,6.8 C10.6,6.8 8.8,8 8,9.7 L7.5,9.7 C3.9,9.7 0.9,12.6 0.9,16.3 C0.9,19.8 3.7,22.7 7.1,22.9 L9,22.9 L9,22.1 C9,17.6 12.7,13.9 17.2,13.9 C19.4,13.9 21.5,14.8 23,16.3 C23.7,17.1 24.3,18 24.8,18.9 C25.2,19.9 25.1,21.3 26,22.1 C26.4,22.6 27.1,22.8 27.7,22.8 C28.8,22.9 32.2,22.7 32.8,22.7 C35.9,22.7 38.4,20.2 38.4,17.1 C38.4,14 35.9,11.8 32.8,11.8 L32.8,11.8 Z M29.5,22.3 C29.5,22.3 29.5,22.2 29.5,22.3 C29.5,22.2 29.5,22.3 29.5,22.3 L29.5,22.3 Z M30.2,21 C30.2,20.8 30.3,20.7 30.3,20.5 C30.2,20.7 30.2,20.9 30.2,21 L30.2,21 Z M29.8,21.9 C29.8,21.9 29.8,21.8 29.9,21.8 C29.9,21.8 29.9,21.9 29.8,21.9 L29.8,21.9 Z M30,21.5 C30,21.4 30,21.3 30.1,21.3 C30.1,21.3 30.1,21.4 30,21.5 L30,21.5 Z" id="Shape" fill="#FF4338"></path>
    </g>
</svg>