<svg xmlns="http://www.w3.org/2000/svg" xmlns:xlink="http://www.w3.org/1999/xlink" width="908.33" height="500"><g transform="translate(-340 -60)"><path d="M390 240h80v60h-80z" stroke="#fff" stroke-width="2" fill="#e0b036"/><use xlink:href="#a" transform="matrix(1,0,0,1,395,245) translate(35 31.666666666666668)"/><path d="M580 80v280" fill="none"/><path d="M580 80v10.37m0 10.37v20.74m0 10.37v20.74m0 10.36v20.74m0 10.37v20.74m0 10.4v20.73m0 10.37v20.74m0 10.37v20.75m0 10.37v20.74m0 10.37V360" stroke="#fff" stroke-width="2" fill="none"/><path d="M581 80h-2v-3h2z" fill="#fff"/><path d="M380 80h180v40H380z" fill="none"/><use xlink:href="#b" transform="matrix(1,0,0,1,385,85) translate(10.981481481481495 24.88888888888889)"/><path d="M540 80h280v40H540z" fill="none"/><use xlink:href="#c" transform="matrix(1,0,0,1,545,85) translate(126.88888888888891 24.88888888888889)"/><path d="M480 180h80v60h-80z" stroke="#fff" stroke-width="2" fill="#e0b036"/><use xlink:href="#a" transform="matrix(1,0,0,1,485,185) translate(35 31.666666666666668)"/><path d="M360 160h80v60h-80z" stroke="#fff" stroke-width="2" fill="#e0b036"/><use xlink:href="#a" transform="matrix(1,0,0,1,365,165) translate(35 31.666666666666668)"/><path d="M830 500h180v40H830z" fill="none"/><use xlink:href="#d" transform="matrix(1,0,0,1,835,505) translate(22.043209876543223 24.88888888888889)"/><path d="M610 159h80v60h-80z" stroke="#fff" stroke-width="2" fill="#1a4982"/><use xlink:href="#a" transform="matrix(1,0,0,1,615,164) translate(35 31.666666666666668)"/><path d="M720 138h80v60h-80z" stroke="#fff" stroke-width="2" fill="#1a4982"/><use xlink:href="#a" transform="matrix(1,0,0,1,725,143) translate(35 31.666666666666668)"/><path d="M720 240h80v60h-80z" stroke="#fff" stroke-width="2" fill="#1a4982"/><use xlink:href="#a" transform="matrix(1,0,0,1,725,245) translate(35 31.666666666666668)"/><path d="M610 260h80v60h-80z" stroke="#fff" stroke-width="2" fill="#1a4982"/><use xlink:href="#a" transform="matrix(1,0,0,1,615,265) translate(35 31.666666666666668)"/><path d="M830 180h80v60h-80z" stroke="#fff" stroke-width="2" fill="#1a4982"/><use xlink:href="#a" transform="matrix(1,0,0,1,835,185) translate(35 31.666666666666668)"/><path d="M1000 80h180v40h-180z" fill="none"/><use xlink:href="#e" transform="matrix(1,0,0,1,1005,85) translate(50.47530864197531 24.88888888888889)"/><path d="M580 360h657.33" fill="none"/><path d="M580 360h9.96m9.96 0h19.92m9.96 0h19.92m9.96 0h19.92m9.96 0h19.9m9.97 0h19.92m9.96 0h19.93m9.96 0h19.9m9.97 0H829m9.95 0h19.92m9.96 0h19.92m9.96 0h19.93m9.96 0h19.9m9.96 0h19.92m9.96 0h19.92m9.96 0h19.92m9.96 0h19.92m9.96 0h19.92m9.96 0h19.92m9.96 0h19.92m9.96 0h19.92m9.95 0h19.9m9.97 0h9.96" stroke="#fff" stroke-width="2" fill="none"/><path d="M980 138h80v60h-80z" stroke="#fff" stroke-width="2" fill="#498a44"/><use xlink:href="#a" transform="matrix(1,0,0,1,985,143) translate(35 31.666666666666668)"/><path d="M951 80v280" fill="none"/><path d="M951 80v10.37m0 10.37v20.74m0 10.37v20.74m0 10.36v20.74m0 10.37v20.74m0 10.4v20.73m0 10.37v20.74m0 10.37v20.75m0 10.37v20.74m0 10.37V360" stroke="#fff" stroke-width="2" fill="none"/><path d="M1100 160h80v60h-80z" stroke="#fff" stroke-width="2" fill="#498a44"/><use xlink:href="#a" transform="matrix(1,0,0,1,1105,165) translate(35 31.666666666666668)"/><path d="M1000 220h80v60h-80z" stroke="#fff" stroke-width="2" fill="#498a44"/><use xlink:href="#a" transform="matrix(1,0,0,1,1005,225) translate(35 31.666666666666668)"/><path d="M1100 260h80v60h-80z" stroke="#fff" stroke-width="2" fill="#498a44"/><use xlink:href="#a" transform="matrix(1,0,0,1,1105,265) translate(35 31.666666666666668)"/><path d="M720 420h80v60h-80z" stroke="#fff" stroke-width="2" fill="#9b0d28"/><use xlink:href="#a" transform="matrix(1,0,0,1,725,425) translate(35 31.666666666666668)"/><path d="M820 380h80v60h-80z" stroke="#fff" stroke-width="2" fill="#9b0d28"/><use xlink:href="#a" transform="matrix(1,0,0,1,825,385) translate(35 31.666666666666668)"/><path d="M1040 380h80v60h-80z" stroke="#fff" stroke-width="2" fill="#9b0d28"/><use xlink:href="#a" transform="matrix(1,0,0,1,1045,385) translate(35 31.666666666666668)"/><path d="M1140 420h80v60h-80z" stroke="#fff" stroke-width="2" fill="#9b0d28"/><use xlink:href="#a" transform="matrix(1,0,0,1,1145,425) translate(35 31.666666666666668)"/><path d="M920 420h80v60h-80z" stroke="#fff" stroke-width="2" fill="#9b0d28"/><use xlink:href="#a" transform="matrix(1,0,0,1,925,425) translate(35 31.666666666666668)"/><path d="M620 380h80v60h-80z" stroke="#fff" stroke-width="2" fill="#9b0d28"/><use xlink:href="#a" transform="matrix(1,0,0,1,625,385) translate(35 31.666666666666668)"/><defs><path fill="#fff" d="M76-208v77h127v40H76V0H24v-248h183v40H76" id="f"/><path fill="#fff" d="M135-150c-39-12-60 13-60 57V0H25l-1-190h47c2 13-1 29 3 40 6-28 27-53 61-41v41" id="g"/><path fill="#fff" d="M110-194c64 0 96 36 96 99 0 64-35 99-97 99-61 0-95-36-95-99 0-62 34-99 96-99zm-1 164c35 0 45-28 45-65 0-40-10-65-43-65-34 0-45 26-45 65 0 36 10 65 43 65" id="h"/><path fill="#fff" d="M135-194c87-1 58 113 63 194h-50c-7-57 23-157-34-157-59 0-34 97-39 157H25l-1-190h47c2 12-1 28 3 38 12-26 28-41 61-42" id="i"/><path fill="#fff" d="M115-3C79 11 28 4 28-45v-112H4v-33h27l15-45h31v45h36v33H77v99c-1 23 16 31 38 25v30" id="j"/><path fill="#fff" d="M14-72v-43h91v43H14" id="k"/><path fill="#fff" d="M24 0v-248h195v40H76v63h132v40H76v65h150V0H24" id="l"/><path fill="#fff" d="M88-194c31-1 46 15 58 34l-1-101h50l1 261h-48c-2-10 0-23-3-31C134-8 116 4 84 4 32 4 16-41 15-95c0-56 19-97 73-99zm17 164c33 0 40-30 41-66 1-37-9-64-41-64s-38 30-39 65c0 43 13 65 39 65" id="m"/><g id="b"><use transform="matrix(0.08641975308641975,0,0,0.08641975308641975,0,0)" xlink:href="#f"/><use transform="matrix(0.08641975308641975,0,0,0.08641975308641975,18.925925925925924,0)" xlink:href="#g"/><use transform="matrix(0.08641975308641975,0,0,0.08641975308641975,31.02469135802469,0)" xlink:href="#h"/><use transform="matrix(0.08641975308641975,0,0,0.08641975308641975,49.95061728395061,0)" xlink:href="#i"/><use transform="matrix(0.08641975308641975,0,0,0.08641975308641975,68.87654320987653,0)" xlink:href="#j"/><use transform="matrix(0.08641975308641975,0,0,0.08641975308641975,79.16049382716048,0)" xlink:href="#k"/><use transform="matrix(0.08641975308641975,0,0,0.08641975308641975,89.44444444444441,0)" xlink:href="#l"/><use transform="matrix(0.08641975308641975,0,0,0.08641975308641975,110.18518518518516,0)" xlink:href="#i"/><use transform="matrix(0.08641975308641975,0,0,0.08641975308641975,129.1111111111111,0)" xlink:href="#m"/></g><path fill="#fff" d="M182-130c37 4 62 22 62 59C244 23 116-4 24 0v-248c84 5 203-23 205 63 0 31-19 50-47 55zM76-148c40-3 101 13 101-30 0-44-60-28-101-31v61zm0 110c48-3 116 14 116-37 0-48-69-32-116-35v72" id="n"/><path fill="#fff" d="M133-34C117-15 103 5 69 4 32 3 11-16 11-54c-1-60 55-63 116-61 1-26-3-47-28-47-18 1-26 9-28 27l-52-2c7-38 36-58 82-57s74 22 75 68l1 82c-1 14 12 18 25 15v27c-30 8-71 5-69-32zm-48 3c29 0 43-24 42-57-32 0-66-3-65 30 0 17 8 27 23 27" id="o"/><path fill="#fff" d="M190-63c-7 42-38 67-86 67-59 0-84-38-90-98-12-110 154-137 174-36l-49 2c-2-19-15-32-35-32-30 0-35 28-38 64-6 74 65 87 74 30" id="p"/><path fill="#fff" d="M147 0L96-86 75-71V0H25v-261h50v150l67-79h53l-66 74L201 0h-54" id="q"/><g id="c"><use transform="matrix(0.08641975308641975,0,0,0.08641975308641975,0,0)" xlink:href="#n"/><use transform="matrix(0.08641975308641975,0,0,0.08641975308641975,22.382716049382715,0)" xlink:href="#o"/><use transform="matrix(0.08641975308641975,0,0,0.08641975308641975,39.666666666666664,0)" xlink:href="#p"/><use transform="matrix(0.08641975308641975,0,0,0.08641975308641975,56.95061728395061,0)" xlink:href="#q"/><use transform="matrix(0.08641975308641975,0,0,0.08641975308641975,74.23456790123456,0)" xlink:href="#k"/><use transform="matrix(0.08641975308641975,0,0,0.08641975308641975,84.5185185185185,0)" xlink:href="#l"/><use transform="matrix(0.08641975308641975,0,0,0.08641975308641975,105.25925925925924,0)" xlink:href="#i"/><use transform="matrix(0.08641975308641975,0,0,0.08641975308641975,124.18518518518516,0)" xlink:href="#m"/></g><path fill="#fff" d="M24-248c93 1 206-16 204 79-1 75-69 88-152 82V0H24v-248zm52 121c47 0 100 7 100-41 0-47-54-39-100-39v80" id="r"/><path fill="#fff" d="M25 0v-261h50V0H25" id="s"/><path fill="#fff" d="M121-226c-27-7-43 5-38 36h38v33H83V0H34v-157H6v-33h28c-9-59 32-81 87-68v32" id="t"/><path fill="#fff" d="M220-157c-53 9-28 100-34 157h-49v-107c1-27-5-49-29-50C55-147 81-57 75 0H25l-1-190h47c2 12-1 28 3 38 10-53 101-56 108 0 13-22 24-43 59-42 82 1 51 116 57 194h-49v-107c-1-25-5-48-29-50" id="u"/><g id="d"><use transform="matrix(0.08641975308641975,0,0,0.08641975308641975,0,0)" xlink:href="#r"/><use transform="matrix(0.08641975308641975,0,0,0.08641975308641975,20.74074074074074,0)" xlink:href="#s"/><use transform="matrix(0.08641975308641975,0,0,0.08641975308641975,29.382716049382715,0)" xlink:href="#o"/><use transform="matrix(0.08641975308641975,0,0,0.08641975308641975,46.666666666666664,0)" xlink:href="#j"/><use transform="matrix(0.08641975308641975,0,0,0.08641975308641975,56.95061728395061,0)" xlink:href="#t"/><use transform="matrix(0.08641975308641975,0,0,0.08641975308641975,67.23456790123456,0)" xlink:href="#h"/><use transform="matrix(0.08641975308641975,0,0,0.08641975308641975,86.16049382716048,0)" xlink:href="#g"/><use transform="matrix(0.08641975308641975,0,0,0.08641975308641975,98.25925925925924,0)" xlink:href="#u"/></g><path fill="#fff" d="M199 0l-22-63H83L61 0H9l90-248h61L250 0h-51zm-33-102l-36-108c-10 38-24 72-36 108h72" id="v"/><path fill="#fff" d="M24 0v-248h52V0H24" id="w"/><path fill="#fff" d="M137-138c1-29-70-34-71-4 15 46 118 7 119 86 1 83-164 76-172 9l43-7c4 19 20 25 44 25 33 8 57-30 24-41C81-84 22-81 20-136c-2-80 154-74 161-7" id="x"/><g id="e"><use transform="matrix(0.08641975308641975,0,0,0.08641975308641975,0,0)" xlink:href="#v"/><use transform="matrix(0.08641975308641975,0,0,0.08641975308641975,22.382716049382715,0)" xlink:href="#r"/><use transform="matrix(0.08641975308641975,0,0,0.08641975308641975,43.123456790123456,0)" xlink:href="#w"/><use transform="matrix(0.08641975308641975,0,0,0.08641975308641975,51.76543209876543,0)" xlink:href="#x"/></g></defs></g></svg>