<?xml version="1.0" encoding="UTF-8" standalone="no"?>
<svg width="35px" height="38px" viewBox="0 0 35 38" version="1.1" xmlns="http://www.w3.org/2000/svg" xmlns:xlink="http://www.w3.org/1999/xlink">
    <!-- Generator: Sketch 39.1 (31720) - http://www.bohemiancoding.com/sketch -->
    <title>Slice 1</title>
    <desc>Created with Sketch.</desc>
    <defs>
        <linearGradient x1="11.9490566%" y1="60.0703252%" x2="40.8358491%" y2="42.0617886%" id="linearGradient-1">
            <stop stop-color="#2D3079" stop-opacity="0.2" offset="0%"></stop>
            <stop stop-color="#2D3079" stop-opacity="0" offset="66%"></stop>
        </linearGradient>
        <linearGradient x1="-16.04%" y1="9.71692308%" x2="84.3555556%" y2="79.22%" id="linearGradient-2">
            <stop stop-color="#2D3079" stop-opacity="0.2" offset="0%"></stop>
            <stop stop-color="#2D3079" stop-opacity="0.04" offset="100%"></stop>
        </linearGradient>
        <linearGradient x1="79.6328571%" y1="74.2134884%" x2="52.5389286%" y2="53.5544186%" id="linearGradient-3">
            <stop stop-color="#BE3A26" stop-opacity="0.15" offset="0%"></stop>
            <stop stop-color="#BE3A26" stop-opacity="0" offset="66%"></stop>
        </linearGradient>
        <linearGradient x1="50.1225664%" y1="0.830894309%" x2="50.1225664%" y2="36.5943089%" id="linearGradient-4">
            <stop stop-color="#A52822" stop-opacity="0.2" offset="0%"></stop>
            <stop stop-color="#A52822" stop-opacity="0" offset="66%"></stop>
        </linearGradient>
        <linearGradient x1="-10.3154839%" y1="36.1589431%" x2="62.6574194%" y2="82.1378049%" id="linearGradient-5">
            <stop stop-color="#3E2723" stop-opacity="0.15" offset="0%"></stop>
            <stop stop-color="#3E2723" stop-opacity="0" offset="100%"></stop>
        </linearGradient>
        <linearGradient x1="50.3103774%" y1="0.29516129%" x2="50.3103774%" y2="99.0064516%" id="linearGradient-6">
            <stop stop-color="#3E2723" stop-opacity="0.15" offset="0%"></stop>
            <stop stop-color="#462823" stop-opacity="0.1447" offset="3.546852%"></stop>
            <stop stop-color="#712E24" stop-opacity="0.1122" offset="25.22%"></stop>
            <stop stop-color="#923325" stop-opacity="0.08062769" offset="46.25%"></stop>
            <stop stop-color="#AA3726" stop-opacity="0.05071827" offset="66.19%"></stop>
            <stop stop-color="#B93926" stop-opacity="0.02311477" offset="84.59%"></stop>
            <stop stop-color="#BE3A26" stop-opacity="0" offset="100%"></stop>
        </linearGradient>
        <radialGradient cx="6391.5702%" cy="-14841.8403%" fx="6391.5702%" fy="-14841.8403%" r="99.9063584%" id="radialGradient-7">
            <stop stop-color="#FFFFFF" stop-opacity="0.1" offset="0%"></stop>
            <stop stop-color="#FFFFFF" stop-opacity="0" offset="100%"></stop>
        </radialGradient>
    </defs>
    <g id="Page-1" stroke="none" stroke-width="1" fill="none" fill-rule="evenodd">
        <g id="Group" transform="translate(0.000000, 4.000000)">
            <path d="M12.2,6.2 L29.9,6.2 L27,1.2 C26.6,0.5 25.9,0 25,0 L10,0 C9.2,0 8.4,0.4 8,1.2 L3.4,9.3 L12.2,24.6 L12.2,6.2 L12.2,6.2 Z" id="Shape" fill="#547DBF"></path>
            <path d="M12.2,6.2 L29.9,6.2 L27,1.2 C26.6,0.5 25.9,0 25,0 L10,0 C9.2,0 8.4,0.4 8,1.2 L3.4,9.3 L12.2,24.6 L12.2,6.2 L12.2,6.2 Z" id="Shape" fill="url(#linearGradient-1)"></path>
            <polygon id="Shape" fill="url(#linearGradient-2)" points="3.4 9.3 7.9 13.7 7.1 15.8"></polygon>
            <polygon id="Shape" fill-opacity="0.1" fill="#2D3079" points="7.3 15.7 3.9 9.8 3.4 9.3 7.1 15.8"></polygon>
            <path d="M12.2,24.6 L3.4,9.3 L0.5,14.3 C0.1,15 0.1,15.9 0.5,16.6 L8,29.6 C8.4,30.3 9.2,30.8 10,30.8 L19.3,30.8 L28.2,15.4 L12.2,24.6 L12.2,24.6 Z" id="Shape" fill="#FFCE40"></path>
            <path d="M12.2,24.6 L3.4,9.3 L0.5,14.3 C0.1,15 0.1,15.9 0.5,16.6 L8,29.6 C8.4,30.3 9.2,30.8 10,30.8 L19.3,30.8 L28.2,15.4 L12.2,24.6 L12.2,24.6 Z" id="Shape" fill="url(#linearGradient-3)"></path>
            <path d="M29.9,6.2 L12.2,6.2 L28.1,15.4 L19.2,30.8 L25,30.8 C25.8,30.8 26.6,30.4 27,29.6 L34.5,16.5 C34.9,15.8 34.9,14.9 34.5,14.2 L29.9,6.2 L29.9,6.2 Z" id="Shape" fill="#DB4436"></path>
            <path d="M29.9,6.2 L12.2,6.2 L28.1,15.4 L19.2,30.8 L25,30.8 C25.8,30.8 26.6,30.4 27,29.6 L34.5,16.5 C34.9,15.8 34.9,14.9 34.5,14.2 L29.9,6.2 L29.9,6.2 Z" id="Shape" fill="url(#linearGradient-4)"></path>
            <polygon id="Shape" fill="url(#linearGradient-5)" points="22.8 6.2 34.8 18.2 34.8 30.8 19.3 30.8 22.8 24.6"></polygon>
            <rect id="Rectangle-path" fill-opacity="0.05" fill="#3E2723" x="22.7" y="6.2" width="7.5" height="0.2"></rect>
        </g>
        <g id="Group" transform="translate(3.000000, 4.000000)">
            <polyline id="Shape" fill="#EEEEEE" points="19.8 6.2 25.1 15.4 19.8 24.6 9.2 24.6 3.9 15.4 9.2 6.2 19.8 6.2"></polyline>
            <path d="M9.2,6.2 L26.9,6.2 L24,1.2 C23.6,0.5 22.9,0 22,0 L7,0 C6.2,0 5.4,0.4 5,1.2 L0.4,9.3 L9.2,24.6 L9.2,6.2 L9.2,6.2 Z" id="Shape" fill="#547DBF"></path>
        </g>
        <polyline id="Shape" fill="#EEEEEE" points="22.8 10.2 28.1 19.4 22.8 28.6 12.2 28.6 6.9 19.4 12.2 10.2 22.8 10.2"></polyline>
        <g id="Group" transform="translate(6.000000, 10.000000)">
            <polyline id="Shape" fill="#EEEEEE" points="16.8 0.2 22.1 9.4 16.8 18.6 6.2 18.6 0.9 9.4 6.2 0.2 16.8 0.2"></polyline>
            <polygon id="Shape" fill-opacity="0.4" fill="#FFFFFF" points="16.8 0.4 22 9.4 22.2 9.4 16.8 0.2 6.2 0.2 0.9 9.4 1 9.4 6.2 0.4"></polygon>
            <polygon id="Shape" fill-opacity="0.05" fill="#262626" points="22 9.4 16.8 18.4 6.2 18.4 1 9.4 0.9 9.4 6.2 18.6 16.8 18.6 22.2 9.4"></polygon>
            <polygon id="Shape" fill-opacity="0.05" fill="#BE3A26" points="22.2 9.4 16.8 18.6 6.2 18.6 0.9 9.4 0.9 9.6 6.2 18.8 16.8 18.8 22.2 9.6"></polygon>
            <path d="M11.4,4.6 C8.9,4.6 6.8,6.7 6.8,9.2 L16,9.2 C16.1,6.7 14,4.6 11.4,4.6 L11.4,4.6 Z M6.8,9.6 C6.8,12.1 8.9,14.2 11.4,14.2 C13.9,14.2 16,12.1 16,9.6 L6.8,9.6 L6.8,9.6 Z" id="Shape" fill-opacity="0.1" fill="#262626"></path>
        </g>
        <polygon id="Shape" fill="url(#linearGradient-6)" points="12.2 28.6 18.4 34.8 19.3 34.8 22.8 28.6"></polygon>
        <path d="M3.4,13.5 L8,5.4 C8.4,4.7 9.2,4.2 10,4.2 L25,4.2 C25.8,4.2 26.6,4.6 27,5.4 L29.9,10.4 L34.5,18.5 C34.7,18.8 34.8,19.2 34.8,19.6 C34.8,19.2 34.7,18.7 34.5,18.4 L29.9,10.3 L27,5.3 C26.6,4.5 25.9,4 25,4 L10,4 C9.2,4 8.4,4.4 8,5.2 L3.4,13.3 L0.5,18.3 C0.3,18.7 0.2,19.1 0.2,19.5 C0.2,19.1 0.3,18.8 0.5,18.4 L3.4,13.5 L3.4,13.5 Z M10,34.6 C9.2,34.6 8.4,34.2 8,33.4 L3.4,25.3 L0.5,20.3 C0.3,20 0.2,19.6 0.2,19.2 C0.2,19.6 0.3,20.1 0.5,20.4 L3.4,25.4 L8,33.6 C8.4,34.3 9.2,34.8 10,34.8 L19.3,34.8 L19.4,34.6 L10,34.6 L10,34.6 Z M34.8,19.3 C34.8,19.7 34.7,20 34.5,20.4 L29.9,28.5 L27,33.5 C26.6,34.2 25.8,34.7 25,34.7 L19.4,34.7 L19.3,34.9 L25,34.9 C25.8,34.9 26.6,34.5 27,33.7 L29.9,28.7 L34.5,20.6 C34.7,20.2 34.8,19.7 34.8,19.3 L34.8,19.3 Z" id="Shape" fill-opacity="0.2" fill="#FFFFFF"></path>
        <path d="M34.5,18.2 L29.9,10.1 L27,5.1 C26.6,4.5 25.9,4 25,4 L10,4 C9.2,4 8.4,4.4 8,5.2 L3.4,13.3 L0.5,18.3 C0.1,19 0.1,19.9 0.5,20.6 L8,33.6 C8.4,34.3 9.2,34.8 10,34.8 L25,34.8 C25.8,34.8 26.6,34.4 27,33.6 L34.5,20.5 C34.9,19.8 34.9,19 34.5,18.2 L34.5,18.2 Z M17.4,24 C14.9,24 12.8,21.9 12.8,19.4 C12.8,16.9 14.9,14.8 17.4,14.8 C19.9,14.8 22,16.9 22,19.4 C22,21.9 20,24 17.4,24 L17.4,24 Z" id="Shape" fill="url(#radialGradient-7)"></path>
        <rect id="Rectangle-path" x="0.2" y="0.9" width="34.6" height="36.9"></rect>
    </g>
</svg>