<?xml version="1.0" encoding="UTF-8" standalone="no"?>
<svg width="3616px" height="1227px" viewBox="0 0 3616 1227" version="1.1" xmlns="http://www.w3.org/2000/svg" xmlns:xlink="http://www.w3.org/1999/xlink">
    <!-- Generator: Sketch 39.1 (31720) - http://www.bohemiancoding.com/sketch -->
    <title>Slice 1</title>
    <desc>Created with Sketch.</desc>
    <defs></defs>
    <g id="Page-1" stroke="none" stroke-width="1" fill="none" fill-rule="evenodd">
        <polygon id="Shape" fill="#FFFFFF" opacity="0.407066231" points="1550.47 237.92 330.36 946.64 593.99 654.14 701.08 404.82"></polygon>
        <polygon id="Shape" fill="#FFFFFF" opacity="0.388442164" points="596.82 347.98 0 159.25 1467.93 132.73"></polygon>
        <polygon id="Shape" fill="#FFFFFF" points="1638.21 155.01 397.28 838.32 578.49 573.31 604.57 397.99"></polygon>
        <polyline id="Shape" fill="#FFFFFF" opacity="0.9" points="598.12 351.74 119.59 0 688.37 78.8 1378.18 174.46"></polyline>
        <path d="M2543.15,1064.15 C2533.47,1120.82 2527.76,1133.35 2407.66,1226.45 L2378.95,1187.08 C2470.95,1112.08 2482.54,1103.48 2491.25,1053.54 L2577.78,563.85 L2633.41,556.2 L2543.15,1064.15 L2543.15,1064.15 Z M2611.15,368.92 L2666.91,361.24 L2647.69,469.82 L2593,477.38 L2611.15,368.92 L2611.15,368.92 Z" id="Shape" fill="#FFFFFF"></path>
        <path d="M2707.23,905.63 C2706.2159,913.968196 2705.62182,922.35212 2705.45,930.75 C2705.45,970.13 2720.67,990.33 2785.96,990.33 C2839.86,990.33 2893.57,972.02 2951.16,945.1 L2964.68,986.4 C2907.98,1016.18 2842.68,1037.28 2779.43,1037.28 C2691.88,1037.28 2670.68,1000.06 2651.55,931.73 C2649.91,925.86 2652.15,908.93 2656.55,885.56 L2684.14,728 C2705.45,609 2766.95,550.36 2886.88,550.36 C2962.75,550.36 3010.82,588.75 3010.82,658.86 C3010.82,733.86 2960.88,774.2 2833.05,809.74 C2742.83,834.65 2718.81,841.36 2718.81,841.36 L2707.23,905.63 L2707.23,905.63 Z M2958.84,658 C2958.84,615.68 2931.03,596.53 2882.12,596.53 C2798.45,596.53 2754.47,639.8 2738,731.98 L2727.52,791.43 C2727.52,791.43 2745.67,786.69 2835.97,762.65 C2923.44,739.53 2958.84,707.89 2958.84,658 L2958.84,658 L2958.84,658 Z" id="Shape" fill="#FFFFFF"></path>
        <path d="M3064.52,974.87 C3064.52,969.13 3065.52,963.24 3066.45,956.56 L3127.95,606.17 L3038.67,606.17 L3046.27,560.03 L3136.51,560.03 L3156.71,445.81 L3211.34,438.16 L3190.3,560 L3330.6,560 L3320,606.14 L3181.63,606.14 L3121.31,950.83 C3120.19,957.59 3119.17,963.22 3119.17,968.21 C3119.17,986.36 3128.66,991.1 3150.88,991.1 C3176.88,991.1 3209.42,983.5 3244.09,969.1 L3257.6,1005.51 C3221.96,1025.67 3181.6,1037.25 3141.29,1037.25 C3094.39,1037.28 3064.52,1017.19 3064.52,974.87 L3064.52,974.87 L3064.52,974.87 Z" id="Shape" fill="#FFFFFF"></path>
        <path d="M1103.71,609 C1165.1,575.45 1238.04,550.36 1292.78,550.36 C1341.78,550.36 1365.72,575.45 1374.39,609.89 C1440.54,571.57 1512.72,550.36 1566.46,550.36 C1630.73,550.36 1651.92,592.71 1651.92,643.54 C1651.88493,659.001694 1650.24277,674.417865 1647.02,689.54 L1587.62,1027.65 L1472.39,1027.65 L1530.87,694.44 C1531.59008,690.272956 1531.92482,686.048447 1531.87,681.82 C1531.87,669.51 1526.08,661.82 1507.87,661.82 C1477.12,661.82 1411.87,690.6 1368.67,716.48 L1313.86,1027.61 L1198.58,1027.61 L1257.25,694.4 C1257.99855,690.236585 1258.33351,686.009346 1258.25,681.78 C1258.25,669.47 1252.54,661.78 1234.18,661.78 C1203.49,661.78 1138.18,690.56 1094.88,716.44 L1040.17,1027.57 L925,1027.57 L987,678.3" id="Shape" fill="#FFFFFF"></path>
        <path d="M2025.64,1027.7 L1928.49,1027.7 L1927.49,975.84 C1887.28,1012.4 1837.21,1037.28 1774.95,1037.28 C1694.24,1037.28 1666.34,994.12 1666.34,930.74 C1666.34,915.26 1668.34,898.97 1671.26,881.74 L1695.15,745.37 C1717.23,618.57 1747.09,550.37 1927.49,550.37 C1972.67,550.37 2056.31,564.75 2104.19,580.2 L2025.64,1027.7 L2025.64,1027.7 Z M1976.54,654.18 C1955.35,650.25 1934.35,647.42 1910.28,647.42 C1836.35,647.42 1821.81,678.17 1811.43,739.53 L1782.55,903.74 C1781.89326,907.543984 1781.58532,911.4 1781.63,915.26 C1781.63,932.59 1792.17,940.26 1813.3,940.26 C1849.7,940.26 1902.52,905.61 1938.09,870.18 L1976.54,654.18 L1976.54,654.18 Z" id="Shape" fill="#FFFFFF"></path>
        <path d="M2178.28,568.62 L2296.37,552.46 L2212.8,1027.7 L2097.59,1027.7 L2178.28,568.62 L2178.28,568.62 Z M2213.71,368.92 L2331.71,352.68 L2308.82,483.23 L2190.75,500.5 L2213.71,368.92 L2213.71,368.92 Z" id="Shape" fill="#FFFFFF"></path>
        <polygon id="Shape" fill="#FFFFFF" points="2405.78 368.92 2523.78 352.68 2404.84 1027.68 2289.59 1027.68"></polygon>
        <polygon id="Shape" fill="#FFFFFF" points="3439 634 3429.26 634 3447.59 529.5 3412.77 529.5 3414.34 520.83 3493.71 520.83 3492.14 529.5 3457.31 529.5"></polygon>
        <polygon id="Shape" fill="#FFFFFF" points="3604.84 530.53 3556.68 619.53 3540.47 619.53 3523.47 530.53 3502.71 634 3493.08 634 3516.48 520.83 3530.6 520.83 3549.28 613.83 3600.28 520.83 3615.6 520.83 3599 634 3589.36 634"></polygon>
    </g>
</svg>