<?xml version="1.0" encoding="UTF-8" standalone="no"?>
<svg width="149px" height="133px" viewBox="0 0 149 133" version="1.1" xmlns="http://www.w3.org/2000/svg" xmlns:xlink="http://www.w3.org/1999/xlink">
    <!-- Generator: Sketch 39.1 (31720) - http://www.bohemiancoding.com/sketch -->
    <title>Slice 1</title>
    <desc>Created with Sketch.</desc>
    <defs></defs>
    <g id="Page-1" stroke="none" stroke-width="1" fill="none" fill-rule="evenodd">
        <path d="M147.401846,59.7492747 C147.380747,59.6852747 147.354725,59.6240879 147.345582,59.5671209 C147.00378,58.7365275 146.661978,57.8996044 146.299077,57.0535385 C145.588747,56.1666813 144.788396,55.4767473 143.936,54.9464615 C143.554813,54.7038242 143.16167,54.4879121 142.772044,54.3261538 C142.508308,54.1981538 142.261451,54.0940659 142.010374,54.0075604 C140.396308,53.4189011 138.726681,53.2269011 137.255385,53.2269011 C133.442813,53.2269011 129.102769,54.5251868 125.321143,56.7497143 C112.920615,64.1371429 100.961055,81.3897143 95.3839121,90.2364835 L95.7341538,89.9593846 L93.3541978,93.7269451 C103.124396,93.4238242 125.287385,92.6565275 137.212484,84.5376703 C151.045626,74.1014505 148.613626,63.1497143 147.401846,59.7492747" id="Shape" fill="#0E66A3"></path>
        <path d="M23.725011,76.3168352 C37.2733187,68.261978 51.1971868,47.333978 55.8959121,39.3825055 C43.3786374,39.6694505 23.1286154,41.3454066 11.8821978,48.7187692 C4.27112088,53.5504176 -1.65204396,64.5738901 1.62742857,73.2574945 C1.66681319,73.3468132 1.70127473,73.4016703 1.73151648,73.4783297 C2.07331868,74.3349451 2.42848352,75.2112527 2.80896703,76.1051429 C5.25432967,79.1384615 8.87068132,79.8487912 11.7394286,79.8487912 C15.5604396,79.8487912 19.9307253,78.5624615 23.725011,76.3168352" id="Shape" fill="#0E66A3"></path>
        <path d="M104.384,73.4480879 C94.1805714,69.9913846 83.1078681,66.7266813 73.6752527,63.3635165 C73.5542857,55.9303736 73.3636923,46.8726154 73.1386374,38.637011 C73.125978,38.2410549 73.125978,37.8577582 73.1041758,37.4695385 C73.0915165,37.0644396 73.0823736,36.6663736 73.0781538,36.2767473 C72.8706813,29.1832967 72.6414066,22.9056703 72.429011,19.1395165 C67.4531868,25.2722637 63.1483077,31.8487912 60.0369231,36.9835604 C59.7907692,37.3872527 59.5481319,37.7796923 59.3188571,38.1728352 C59.2021099,38.3599121 59.0811429,38.5701978 58.9636923,38.7664176 C58.9594725,38.7854066 58.8427253,38.983033 58.6303297,39.3459341 C57.2638242,41.6921319 51.8765714,50.7105055 44.5425934,59.8491429 C44.7458462,60.1902418 56.64,80.0168791 66.0212747,95.6019341 C66.2456264,95.973978 66.4713846,96.3488352 66.6872967,96.7068132 C66.9165714,97.0858901 67.1374066,97.4565275 67.3575385,97.8229451 C72.1568352,105.776527 76.050989,112.228571 76.9856703,113.718857 L44.724044,103.534418 L43.0283956,102.992879 L41.396044,102.473143 L39.9943736,102.031473 C41.3531429,89.6970549 43.5903297,63.8712967 44.525011,59.8674286 C38.8353407,66.9665055 31.9725714,74.1436484 24.9283516,78.3423297 C20.7789011,80.7996484 15.9669451,82.2118681 11.7394286,82.2118681 C9.1301978,82.2118681 6.80720879,81.6907253 4.85134066,80.6955604 C4.64386813,80.5921758 4.4363956,80.4838681 4.25002198,80.3685275 C10.6535385,94.3901538 20.4497582,111.132835 29.2768352,123.083956 C30.1207912,124.235253 30.9563077,125.332396 31.7861978,126.395077 C31.808,126.418286 31.8213626,126.45767 31.8466813,126.474549 C35.256967,130.621187 40.4754286,132.923077 46.501978,132.923077 C50.322989,132.923077 54.4161758,132.008791 58.6865934,130.204132 C71.883956,123.830857 83.8090549,104.605538 88.8974066,96.3924396 C88.9318681,96.3410989 88.9494505,96.2897582 88.9839121,96.2468571 C89.2701538,95.7840879 89.5423297,95.3508571 89.780044,94.9745934 C89.8799121,94.8184615 89.9572747,94.6890549 90.0487033,94.5434725 L90.0529231,94.5505055 C90.1436484,94.3514725 90.2695385,94.1081319 90.4467692,93.7895385 C90.8842198,93.0025495 91.6318242,91.7724835 92.8787692,89.7807473 C94.5265934,87.1532308 97.1878681,83.0537143 100.489846,78.554022 C101.666462,76.9329231 102.977407,75.2161758 104.384,73.4480879" id="Shape" fill="#0E66A3"></path>
        <path d="M82.9221978,36.3055824 C83.1388132,36.6663736 83.3462857,37.0327912 83.5495385,37.3872527 C91.4461538,50.9566593 101.176967,67.6845714 104.43956,73.3876044 C109.917538,66.5192088 116.944176,58.9932308 124.118505,54.7214066 C128.242637,52.2683077 133.032088,50.8757802 137.255385,50.8757802 C138.467165,50.8757802 139.609319,50.9911209 140.695209,51.2126593 C140.699429,51.2126593 140.707868,51.2126593 140.717011,51.2203956 C140.699429,51.2126593 140.699429,51.1950769 140.681846,51.1824176 C131.19789,45.3795165 118.229802,37.6931868 111.341011,33.2385055 C111.578725,31.4985495 111.817143,29.7332747 112.046418,27.9862857 C112.116044,27.4405275 112.184967,26.898989 112.267253,26.3497143 C112.332659,25.7786374 112.410022,25.2026374 112.483868,24.6357802 C113.275077,18.6043077 113.998066,12.8253187 114.530462,8.25037363 C115.988396,10.149978 117.455473,12.1705495 118.930286,14.253011 C119.246769,14.7115604 119.562549,15.156044 119.87833,15.6110769 C120.172308,16.0218022 120.449407,16.4451868 120.744088,16.8734945 C120.881934,17.0732308 121.011341,17.2722637 121.159033,17.483956 C127.822769,27.2886154 140.971604,51.2731429 140.971604,51.2731429 L142.426022,51.6634725 C143.066725,51.8786813 143.672264,52.1381978 144.24756,52.4237363 C144.269363,52.4427253 144.299604,52.4427253 144.312264,52.4624176 C141.76844,46.938022 138.670418,40.9585934 135.247473,34.9707253 C130.94611,27.3884835 126.156659,19.7738901 121.379868,12.9666813 C120.938198,12.3294945 120.492308,11.7028571 120.042901,11.0825495 C119.013275,9.64923077 117.995604,8.2552967 116.970198,6.91410989 C116.369582,6.11657143 115.76756,5.33942857 115.175385,4.58549451 C115.109978,4.49476923 115.036132,4.43076923 114.967209,4.35973626 L114.967209,4.34145055 C111.751736,1.7716044 107.221802,0.327736264 102.129231,0.327736264 C97.9924396,0.327736264 93.7571868,1.29687912 90.5156923,2.97705495 C84.2549451,6.14962637 78.1018022,12.1916484 72.7187692,18.7815385 C73.8574066,20.7317802 77.6432527,27.2492308 82.2772747,35.2112527 C82.4981099,35.5699341 82.7105055,35.9454945 82.9221978,36.3055824" id="Shape" fill="#0E66A3"></path>
    </g>
</svg>