<?xml version="1.0" encoding="UTF-8" standalone="no"?>
<svg width="66px" height="71px" viewBox="0 0 66 71" version="1.1" xmlns="http://www.w3.org/2000/svg" xmlns:xlink="http://www.w3.org/1999/xlink">
    <!-- Generator: Sketch 39.1 (31720) - http://www.bohemiancoding.com/sketch -->
    <title>Slice 1</title>
    <desc>Created with Sketch.</desc>
    <defs></defs>
    <g id="Page-1" stroke="none" stroke-width="1" fill="none" fill-rule="evenodd">
        <path d="M60.702,40.487 C58.514,47.399 53.998,53.777 47.932,57.878 C44.229,60.381 33.953,63.366 23.545,60.198 C18.078,58.535 14.397,54.983 10.457,51.156 C7.998,48.767 6.766,46.179 5.536,42.404 C3.604,36.399 4.925,23.316 6.127,21.729 C6.279,21.529 6.454,21.233 6.669,20.822 L7.399,19.395 C12.369,9.701 21.141,5.463 31.869,5.926 C38.859,6.228 42.932,8.046 46.428,10.01 C53.128,13.703 55.611,17.672 58.676,23.624 C60.426,27.02 62.006,36.377 60.702,40.487" id="Fill-116" fill="#006BAD"></path>
        <path d="M35.116,11.989 C36.28,14.703 47.914,36.02 48.881,39.316 C33.954,40.865 21.16,45.904 17.283,50.944 C16.692,51.71 6.814,29.625 5.457,24.587 C10.691,17.803 35.116,11.989 35.116,11.989" id="Fill-117" fill="#006BAD"></path>
        <path d="M35.015,12.157 C36.175,14.843 47.699,35.956 48.657,39.226 C33.878,40.767 21.203,45.761 17.358,50.748 C16.764,51.509 6.979,29.637 5.634,24.64 C10.815,17.918 35.007,12.157 35.015,12.157" id="Fill-118" fill="#006CAE"></path>
        <path d="M34.91,12.323 C36.067,14.985 47.48,35.893 48.433,39.134 C33.801,40.665 21.245,45.616 17.43,50.556 C16.836,51.308 7.14,29.648 5.81,24.696 C10.939,18.035 34.896,12.323 34.91,12.323" id="Fill-119" fill="#006DAF"></path>
        <path d="M34.811,12.494 C35.961,15.127 47.265,35.828 48.206,39.044 C33.724,40.567 21.289,45.471 17.503,50.361 C16.906,51.106 7.304,29.661 5.987,24.751 C11.065,18.151 34.786,12.494 34.811,12.494" id="Fill-120" fill="#006EAF"></path>
        <path d="M34.704,12.661 C35.854,15.269 47.05,35.762 47.982,38.953 C33.644,40.467 21.331,45.328 17.576,50.166 C16.978,50.903 7.466,29.672 6.163,24.807 C11.191,18.267 34.676,12.661 34.704,12.661" id="Fill-121" fill="#006FB0"></path>
        <path d="M34.604,12.829 C35.747,15.41 46.836,35.699 47.757,38.862 C33.566,40.367 21.375,45.183 17.65,49.973 C17.05,50.702 7.63,29.683 6.34,24.863 C11.315,18.382 34.563,12.829 34.604,12.829" id="Fill-122" fill="#006FB1"></path>
        <path d="M34.5,12.999 C35.639,15.551 46.618,35.633 47.531,38.771 C33.49,40.267 21.418,45.039 17.726,49.778 C17.12,50.5 7.795,29.694 6.519,24.917 C11.44,18.497 34.454,12.999 34.5,12.999" id="Fill-123" fill="#0070B1"></path>
        <path d="M34.397,13.167 C35.534,15.692 46.403,35.57 47.306,38.68 C33.413,40.169 21.46,44.894 17.797,49.582 C17.193,50.298 7.957,29.708 6.694,24.971 C11.567,18.615 34.343,13.167 34.397,13.167" id="Fill-124" fill="#0071B2"></path>
        <path d="M34.294,13.335 C35.427,15.832 46.189,35.504 47.08,38.589 C33.336,40.068 21.503,44.75 17.872,49.389 C17.265,50.097 8.122,29.719 6.87,25.027 C11.692,18.729 34.232,13.335 34.294,13.335" id="Fill-125" fill="#0072B2"></path>
        <path d="M34.191,13.503 C35.32,15.974 45.973,35.439 46.855,38.499 C33.259,39.969 21.545,44.605 17.946,49.194 C17.337,49.894 8.283,29.729 7.048,25.081 C11.814,18.846 34.123,13.503 34.191,13.503" id="Fill-126" fill="#0073B3"></path>
        <path d="M34.088,13.672 C35.213,16.114 45.755,35.376 46.63,38.407 C33.179,39.868 21.589,44.46 18.02,49.003 C17.409,49.693 8.447,29.74 7.224,25.138 C11.939,18.96 34.012,13.672 34.088,13.672" id="Fill-127" fill="#0073B3"></path>
        <path d="M33.983,13.839 C35.104,16.258 45.54,35.311 46.404,38.318 C33.103,39.77 21.633,44.317 18.093,48.807 C17.482,49.492 8.609,29.753 7.4,25.192 C12.064,19.078 33.899,13.839 33.983,13.839" id="Fill-128" fill="#0074B4"></path>
        <path d="M33.883,14.007 C35.001,16.398 45.325,35.247 46.18,38.227 C33.025,39.67 21.676,44.173 18.166,48.614 C17.554,49.289 8.774,29.764 7.578,25.249 C12.191,19.193 33.79,14.007 33.883,14.007" id="Fill-129" fill="#0075B4"></path>
        <path d="M33.778,14.176 C34.894,16.54 45.109,35.181 45.954,38.135 C32.948,39.57 21.717,44.028 18.239,48.419 C17.624,49.088 8.938,29.776 7.754,25.301 C12.316,19.309 33.681,14.176 33.778,14.176" id="Fill-130" fill="#0076B5"></path>
        <path d="M33.677,14.344 C34.787,16.681 44.894,35.117 45.729,38.044 C32.871,39.47 21.763,43.885 18.314,48.224 C17.697,48.887 9.1,29.789 7.932,25.357 C12.441,19.424 33.567,14.344 33.677,14.344" id="Fill-131" fill="#0077B6"></path>
        <path d="M33.574,14.511 C34.68,16.823 44.677,35.053 45.505,37.954 C32.795,39.37 21.806,43.738 18.386,48.03 C17.769,48.684 9.264,29.8 8.109,25.412 C12.565,19.541 33.459,14.511 33.574,14.511" id="Fill-132" fill="#0378B6"></path>
        <path d="M33.471,14.681 C34.572,16.962 44.463,34.988 45.278,37.862 C32.715,39.27 21.848,43.595 18.459,47.836 C17.84,48.483 9.427,29.811 8.286,25.468 C12.691,19.656 33.348,14.681 33.471,14.681" id="Fill-133" fill="#0B79B7"></path>
        <path d="M33.367,14.847 C34.466,17.105 44.247,34.924 45.054,37.773 C32.638,39.171 21.891,43.451 18.535,47.64 C17.913,48.279 9.591,29.822 8.461,25.523 C12.815,19.772 33.238,14.847 33.367,14.847" id="Fill-134" fill="#167AB7"></path>
        <path d="M33.266,15.016 C34.36,17.245 44.031,34.858 44.827,37.681 C32.56,39.071 21.933,43.306 18.607,47.448 C17.983,48.078 9.755,29.836 8.64,25.579 C12.939,19.888 33.125,15.016 33.266,15.016" id="Fill-135" fill="#1A7AB8"></path>
        <path d="M33.162,15.185 C34.253,17.389 43.815,34.794 44.602,37.591 C32.484,38.973 21.978,43.162 18.683,47.252 C18.055,47.877 9.918,29.847 8.814,25.632 C13.066,20.004 33.016,15.185 33.162,15.185" id="Fill-136" fill="#207BB9"></path>
        <path d="M33.059,15.352 C34.146,17.529 43.599,34.729 44.377,37.5 C32.405,38.872 22.021,43.017 18.755,47.057 C18.128,47.675 10.08,29.857 8.992,25.688 C13.19,20.12 32.905,15.352 33.059,15.352" id="Fill-137" fill="#247CB9"></path>
        <path d="M32.956,15.52 C34.038,17.671 43.385,34.665 44.15,37.409 C32.328,38.773 22.062,42.873 18.829,46.863 C18.198,47.474 10.243,29.87 9.17,25.743 C13.316,20.235 32.795,15.52 32.956,15.52" id="Fill-138" fill="#287DBA"></path>
        <path d="M32.854,15.688 C33.933,17.811 43.167,34.601 43.926,37.32 C32.253,38.672 22.104,42.729 18.902,46.669 C18.271,47.271 10.406,29.881 9.347,25.799 C13.44,20.351 32.685,15.688 32.854,15.688" id="Fill-139" fill="#2D7EBA"></path>
        <path d="M32.75,15.858 C33.826,17.953 42.953,34.535 43.702,37.229 C32.174,38.574 22.147,42.584 18.976,46.477 C18.343,47.067 10.572,29.892 9.522,25.854 C13.565,20.467 32.572,15.858 32.75,15.858" id="Fill-140" fill="#2F7FBB"></path>
        <path d="M32.646,16.025 C33.719,18.094 42.737,34.471 43.476,37.137 C32.096,38.472 22.189,42.44 19.051,46.282 C18.414,46.866 10.734,29.904 9.7,25.91 C13.69,20.583 32.463,16.025 32.646,16.025" id="Fill-141" fill="#3480BC"></path>
        <path d="M32.545,16.194 C33.613,18.234 42.521,34.406 43.251,37.046 C32.019,38.374 22.235,42.295 19.125,46.087 C18.486,46.664 10.897,29.917 9.876,25.962 C13.816,20.698 32.352,16.194 32.545,16.194" id="Fill-142" fill="#3681BC"></path>
        <path d="M32.442,16.362 C33.506,18.375 42.307,34.342 43.025,36.956 C31.941,38.274 22.277,42.151 19.197,45.894 C18.56,46.463 11.06,29.928 10.054,26.019 C13.939,20.813 32.241,16.362 32.442,16.362" id="Fill-143" fill="#3982BD"></path>
        <path d="M32.339,16.53 C33.399,18.517 42.091,34.278 42.8,36.864 C31.864,38.175 22.319,42.007 19.272,45.699 C18.629,46.26 11.224,29.938 10.23,26.073 C14.064,20.931 32.132,16.53 32.339,16.53" id="Fill-144" fill="#3B83BE"></path>
        <path d="M32.235,16.698 C33.291,18.66 41.875,34.212 42.575,36.773 C31.785,38.075 22.363,41.863 19.344,45.505 C18.701,46.059 11.388,29.95 10.406,26.128 C14.189,21.045 32.019,16.698 32.235,16.698" id="Fill-145" fill="#3F84BE"></path>
        <path d="M32.133,16.868 C33.186,18.8 41.66,34.148 42.349,36.683 C31.708,37.977 22.408,41.718 19.419,45.31 C18.773,45.858 11.551,29.961 10.585,26.184 C14.315,21.162 31.908,16.868 32.133,16.868" id="Fill-146" fill="#4185BF"></path>
        <path d="M32.029,17.035 C33.08,18.942 41.444,34.083 42.125,36.593 C31.633,37.874 22.45,41.575 19.492,45.115 C18.845,45.654 11.715,29.975 10.76,26.24 C14.439,21.277 31.799,17.035 32.029,17.035" id="Fill-147" fill="#4486C0"></path>
        <path d="M31.93,17.203 C32.972,19.082 41.228,34.02 41.898,36.502 C31.555,37.777 22.493,41.43 19.564,44.922 C18.917,45.454 11.877,29.985 10.937,26.293 C14.564,21.395 31.688,17.203 31.93,17.203" id="Fill-148" fill="#4687C0"></path>
        <path d="M31.825,17.37 C32.865,19.224 41.012,33.954 41.674,36.41 C31.479,37.676 22.535,41.286 19.64,44.727 C18.988,45.252 12.041,29.998 11.113,26.348 C14.688,21.508 31.576,17.37 31.825,17.37" id="Fill-149" fill="#4988C1"></path>
        <path d="M31.723,17.54 C32.76,19.365 40.797,33.889 41.449,36.319 C31.399,37.577 22.577,41.139 19.715,44.533 C19.061,45.049 12.203,30.009 11.289,26.404 C14.814,21.624 31.467,17.54 31.723,17.54" id="Fill-150" fill="#4B89C1"></path>
        <path d="M31.619,17.707 C32.651,19.507 40.582,33.825 41.224,36.23 C31.322,37.476 22.621,40.996 19.786,44.338 C19.132,44.848 12.368,30.02 11.467,26.458 C14.938,21.742 31.355,17.707 31.619,17.707" id="Fill-151" fill="#4F8AC2"></path>
        <path d="M31.517,17.875 C32.546,19.647 40.365,33.761 40.998,36.139 C31.244,37.377 22.664,40.852 19.859,44.145 C19.204,44.647 12.531,30.031 11.645,26.515 C15.063,21.857 31.245,17.875 31.517,17.875" id="Fill-152" fill="#508BC3"></path>
        <path d="M31.412,18.042 C32.438,19.79 40.15,33.698 40.772,36.048 C31.165,37.277 22.707,40.707 19.935,43.952 C19.274,44.445 12.694,30.044 11.819,26.568 C15.188,21.971 31.135,18.042 31.412,18.042" id="Fill-153" fill="#538CC3"></path>
        <path d="M31.309,18.212 C32.332,19.931 39.935,33.632 40.547,35.958 C31.089,37.178 22.75,40.564 20.008,43.757 C19.348,44.243 12.856,30.056 11.998,26.624 C15.315,22.088 31.023,18.212 31.309,18.212" id="Fill-154" fill="#558EC5"></path>
        <path d="M31.206,18.379 C32.225,20.073 39.72,33.569 40.323,35.866 C31.012,37.078 22.792,40.42 20.082,43.562 C19.42,44.04 13.02,30.066 12.175,26.68 C15.44,22.205 30.913,18.379 31.206,18.379" id="Fill-155" fill="#588FC5"></path>
        <path d="M31.103,18.548 C32.119,20.213 39.502,33.503 40.097,35.777 C30.935,36.977 22.836,40.273 20.155,43.369 C19.492,43.839 13.185,30.078 12.353,26.735 C15.564,22.32 30.802,18.548 31.103,18.548" id="Fill-156" fill="#5A90C6"></path>
        <path d="M31.001,18.716 C32.013,20.355 39.287,33.438 39.872,35.685 C30.858,36.878 22.88,40.13 20.229,43.174 C19.563,43.637 13.349,30.09 12.527,26.79 C15.69,22.436 30.691,18.716 31.001,18.716" id="Fill-157" fill="#5C91C7"></path>
        <path d="M30.897,18.884 C31.905,20.495 39.072,33.375 39.647,35.595 C30.779,36.779 22.922,39.987 20.303,42.98 C19.637,43.436 13.511,30.102 12.706,26.845 C15.813,22.551 30.58,18.884 30.897,18.884" id="Fill-158" fill="#5F92C7"></path>
        <path d="M30.795,19.053 C31.799,20.636 38.856,33.31 39.422,35.504 C30.701,36.679 22.966,39.841 20.377,42.785 C19.707,43.234 13.675,30.113 12.88,26.899 C15.938,22.667 30.471,19.053 30.795,19.053" id="Fill-159" fill="#6193C8"></path>
        <path d="M30.691,19.22 C31.69,20.778 38.642,33.245 39.196,35.412 C30.624,36.58 23.01,39.698 20.449,42.59 C19.778,43.033 13.837,30.124 13.058,26.955 C16.064,22.784 30.359,19.22 30.691,19.22" id="Fill-160" fill="#6495C9"></path>
        <path d="M30.59,19.39 C31.585,20.92 38.425,33.18 38.973,35.323 C30.548,36.479 23.052,39.553 20.523,42.396 C19.852,42.83 14,30.137 13.234,27.01 C16.189,22.899 30.249,19.39 30.59,19.39" id="Fill-161" fill="#6696C9"></path>
        <path d="M30.485,19.557 C31.479,21.062 38.208,33.116 38.746,35.232 C30.47,36.38 23.094,39.408 20.596,42.202 C19.923,42.629 14.164,30.148 13.41,27.066 C16.313,23.015 30.14,19.557 30.485,19.557" id="Fill-162" fill="#6997CA"></path>
        <path d="M30.383,19.726 C31.371,21.202 37.993,33.05 38.521,35.141 C30.393,36.281 23.138,39.263 20.671,42.007 C19.994,42.426 14.328,30.159 13.588,27.12 C16.439,23.132 30.029,19.726 30.383,19.726" id="Fill-163" fill="#6A98CB"></path>
        <path d="M30.279,19.894 C31.266,21.344 37.777,32.987 38.295,35.05 C30.315,36.181 23.181,39.12 20.745,41.814 C20.064,42.225 14.492,30.172 13.767,27.176 C16.564,23.247 29.916,19.894 30.279,19.894" id="Fill-164" fill="#6D99CB"></path>
        <path d="M30.178,20.062 C31.157,21.484 37.562,32.921 38.07,34.959 C30.237,36.081 23.224,38.976 20.818,41.62 C20.139,42.024 14.653,30.184 13.94,27.229 C16.689,23.361 29.807,20.062 30.178,20.062" id="Fill-165" fill="#6F9ACC"></path>
        <path d="M30.074,20.229 C31.053,21.626 37.346,32.857 37.846,34.867 C30.159,35.981 23.266,38.833 20.893,41.427 C20.208,41.821 14.817,30.194 14.119,27.285 C16.813,23.478 29.696,20.229 30.074,20.229" id="Fill-166" fill="#719CCE"></path>
        <path d="M29.971,20.397 C30.946,21.767 37.131,32.793 37.619,34.778 C30.082,35.881 23.309,38.687 20.967,41.232 C20.282,41.62 14.981,30.207 14.297,27.34 C16.939,23.595 29.584,20.397 29.971,20.397" id="Fill-167" fill="#739DCE"></path>
        <path d="M29.869,20.564 C30.838,21.907 36.917,32.727 37.395,34.687 C30.007,35.783 23.353,38.542 21.039,41.038 C20.353,41.419 15.145,30.218 14.471,27.396 C17.063,23.708 29.475,20.564 29.869,20.564" id="Fill-168" fill="#769FCF"></path>
        <path d="M29.765,20.734 C30.732,22.051 36.7,32.663 37.169,34.596 C29.929,35.682 23.395,38.399 21.112,40.843 C20.425,41.216 15.308,30.229 14.647,27.451 C17.188,23.824 29.363,20.734 29.765,20.734" id="Fill-169" fill="#78A0D0"></path>
        <path d="M29.662,20.901 C30.624,22.191 36.484,32.598 36.944,34.505 C29.849,35.584 23.438,38.254 21.187,40.648 C20.497,41.014 15.469,30.241 14.827,27.507 C17.313,23.941 29.256,20.901 29.662,20.901" id="Fill-170" fill="#7AA1D1"></path>
        <path d="M29.559,21.069 C30.519,22.333 36.269,32.534 36.721,34.414 C29.771,35.482 23.481,38.11 21.259,40.454 C20.568,40.812 15.636,30.253 15.003,27.56 C17.438,24.057 29.143,21.069 29.559,21.069" id="Fill-171" fill="#7CA3D1"></path>
        <path d="M29.458,21.238 C30.413,22.474 36.054,32.47 36.494,34.324 C29.696,35.384 23.523,37.965 21.335,40.259 C20.641,40.609 15.797,30.265 15.18,27.616 C17.563,24.172 29.031,21.238 29.458,21.238" id="Fill-172" fill="#7FA4D2"></path>
        <path d="M29.354,21.406 C30.305,22.616 35.837,32.405 36.269,34.234 C29.618,35.284 23.567,37.822 21.405,40.066 C20.712,40.408 15.961,30.276 15.357,27.67 C17.688,24.29 28.921,21.406 29.354,21.406" id="Fill-173" fill="#80A5D3"></path>
        <path d="M29.251,21.574 C30.199,22.756 35.621,32.34 36.043,34.142 C29.542,35.184 23.612,37.677 21.481,39.872 C20.783,40.205 16.125,30.287 15.532,27.727 C17.812,24.405 28.813,21.574 29.251,21.574" id="Fill-174" fill="#83A7D4"></path>
        <path d="M29.148,21.744 C30.091,22.898 35.407,32.275 35.817,34.051 C29.465,35.084 23.651,37.531 21.556,39.677 C20.855,40.003 16.288,30.3 15.71,27.781 C17.938,24.521 28.699,21.744 29.148,21.744" id="Fill-175" fill="#85A8D5"></path>
        <path d="M29.044,21.91 C29.983,23.039 35.192,32.211 35.595,33.961 C29.386,34.985 23.696,37.388 21.629,39.484 C20.928,39.802 16.451,30.311 15.887,27.835 C18.062,24.635 28.591,21.91 29.044,21.91" id="Fill-176" fill="#88AAD5"></path>
        <path d="M28.942,22.079 C29.877,23.182 34.975,32.145 35.367,33.87 C29.308,34.885 23.74,37.243 21.702,39.29 C20.998,39.6 16.613,30.322 16.063,27.891 C18.188,24.751 28.48,22.079 28.942,22.079" id="Fill-177" fill="#89ACD7"></path>
        <path d="M28.838,22.247 C29.771,23.322 34.759,32.081 35.144,33.779 C29.23,34.786 23.781,37.099 21.776,39.096 C21.072,39.398 16.777,30.333 16.24,27.946 C18.314,24.868 28.367,22.247 28.838,22.247" id="Fill-178" fill="#8CADD8"></path>
        <path d="M28.736,22.414 C29.666,23.464 34.544,32.018 34.916,33.688 C29.154,34.685 23.825,36.956 21.849,38.901 C21.144,39.198 16.942,30.346 16.418,28.001 C18.438,24.985 28.256,22.414 28.736,22.414" id="Fill-179" fill="#8FAFD9"></path>
        <path d="M28.633,22.585 C29.557,23.604 34.329,31.953 34.693,33.598 C29.077,34.587 23.868,36.81 21.922,38.706 C21.216,38.995 17.104,30.357 16.594,28.057 C18.563,25.099 28.148,22.585 28.633,22.585" id="Fill-180" fill="#90B0D9"></path>
        <path d="M28.531,22.751 C29.449,23.745 34.112,31.888 34.468,33.508 C28.999,34.485 23.911,36.666 21.995,38.513 C21.287,38.794 17.266,30.369 16.771,28.112 C18.688,25.215 28.037,22.751 28.531,22.751" id="Fill-181" fill="#93B2DA"></path>
        <path d="M28.429,22.919 C29.344,23.887 33.897,31.823 34.242,33.415 C28.921,34.387 23.954,36.521 22.07,38.318 C21.357,38.59 17.432,30.381 16.947,28.165 C18.814,25.331 27.926,22.919 28.429,22.919" id="Fill-182" fill="#95B3DB"></path>
        <path d="M28.325,23.088 C29.238,24.027 33.683,31.759 34.018,33.325 C28.843,34.286 23.998,36.377 22.146,38.123 C21.43,38.39 17.594,30.392 17.123,28.222 C18.938,25.448 27.815,23.088 28.325,23.088" id="Fill-183" fill="#98B5DC"></path>
        <path d="M28.222,23.257 C29.131,24.169 33.467,31.695 33.793,33.236 C28.767,34.187 24.041,36.233 22.219,37.929 C21.501,38.186 17.757,30.404 17.3,28.276 C19.062,25.561 27.705,23.257 28.222,23.257" id="Fill-184" fill="#99B6DD"></path>
        <path d="M28.118,23.423 C29.024,24.311 33.252,31.631 33.566,33.144 C28.689,34.088 24.084,36.087 22.292,37.734 C21.573,37.985 17.92,30.415 17.479,28.332 C19.187,25.679 27.596,23.423 28.118,23.423" id="Fill-185" fill="#9CB8DD"></path>
        <path d="M28.017,23.593 C28.917,24.453 33.033,31.567 33.342,33.053 C28.612,33.988 24.126,35.944 22.365,37.539 C21.646,37.784 18.086,30.427 17.652,28.387 C19.313,25.794 27.482,23.593 28.017,23.593" id="Fill-186" fill="#9EB9DE"></path>
        <path d="M27.912,23.76 C28.81,24.594 32.816,31.502 33.117,32.963 C28.535,33.888 24.169,35.8 22.438,37.347 C21.716,37.582 18.248,30.439 17.831,28.442 C19.438,25.911 27.372,23.76 27.912,23.76" id="Fill-187" fill="#A1BBDF"></path>
        <path d="M27.811,23.929 C28.703,24.735 32.602,31.437 32.892,32.871 C28.456,33.79 24.211,35.655 22.512,37.151 C21.787,37.38 18.412,30.45 18.009,28.496 C19.563,26.025 27.262,23.929 27.811,23.929" id="Fill-188" fill="#A3BCE0"></path>
        <path d="M27.706,24.097 C28.596,24.875 32.388,31.372 32.666,32.782 C28.38,33.688 24.255,35.512 22.585,36.959 C21.86,37.179 18.573,30.461 18.184,28.552 C19.688,26.142 27.152,24.097 27.706,24.097" id="Fill-189" fill="#A6BFE2"></path>
        <path d="M27.604,24.266 C28.49,25.018 32.173,31.308 32.441,32.69 C28.302,33.59 24.298,35.368 22.658,36.764 C21.933,36.977 18.738,30.474 18.361,28.607 C19.813,26.257 27.041,24.266 27.604,24.266" id="Fill-190" fill="#A8C1E2"></path>
        <path d="M27.501,24.433 C28.383,25.158 31.957,31.244 32.216,32.6 C28.225,33.489 24.341,35.222 22.735,36.569 C22.006,36.775 18.9,30.485 18.539,28.663 C19.937,26.374 26.932,24.433 27.501,24.433" id="Fill-191" fill="#ABC2E3"></path>
        <path d="M27.399,24.601 C28.276,25.3 31.738,31.179 31.991,32.509 C28.148,33.39 24.383,35.079 22.809,36.376 C22.077,36.574 19.063,30.495 18.714,28.717 C20.062,26.488 26.819,24.601 27.399,24.601" id="Fill-192" fill="#ADC4E4"></path>
        <path d="M27.297,24.77 C28.169,25.442 31.526,31.115 31.765,32.417 C28.069,33.29 24.429,34.933 22.882,36.181 C22.147,36.371 19.229,30.508 18.891,28.774 C20.188,26.605 26.708,24.77 27.297,24.77" id="Fill-193" fill="#B0C6E5"></path>
        <path d="M27.193,24.938 C28.064,25.584 31.309,31.049 31.54,32.327 C27.991,33.191 24.472,34.79 22.955,35.987 C22.221,36.17 19.391,30.52 19.068,28.826 C20.313,26.721 26.598,24.938 27.193,24.938" id="Fill-194" fill="#B2C7E6"></path>
        <path d="M27.09,25.105 C27.957,25.724 31.095,30.985 31.314,32.237 C27.913,33.091 24.514,34.646 23.028,35.792 C22.292,35.969 19.555,30.532 19.245,28.882 C20.437,26.836 26.488,25.105 27.09,25.105" id="Fill-195" fill="#B5CAE7"></path>
        <path d="M26.986,25.275 C27.851,25.864 30.877,30.92 31.087,32.145 C27.838,32.991 24.557,34.501 23.102,35.598 C22.363,35.766 19.717,30.542 19.423,28.937 C20.563,26.952 26.377,25.275 26.986,25.275" id="Fill-196" fill="#B7CBE8"></path>
        <path d="M26.884,25.443 C27.743,26.007 30.662,30.856 30.865,32.056 C27.759,32.891 24.601,34.355 23.176,35.404 C22.436,35.564 19.882,30.555 19.598,28.993 C20.687,27.069 26.267,25.443 26.884,25.443" id="Fill-197" fill="#BBCDE9"></path>
        <path d="M26.779,25.61 C27.637,26.146 30.447,30.792 30.639,31.965 C27.682,32.791 24.643,34.212 23.248,35.21 C22.507,35.362 20.045,30.567 19.775,29.048 C20.813,27.185 26.155,25.61 26.779,25.61" id="Fill-198" fill="#BECFEA"></path>
        <path d="M26.679,25.779 C27.529,26.288 30.229,30.727 30.414,31.873 C27.605,32.691 24.686,34.068 23.321,35.016 C22.579,35.161 20.208,30.578 19.952,29.104 C20.939,27.299 26.045,25.779 26.679,25.779" id="Fill-199" fill="#C0D1EB"></path>
        <path d="M26.573,25.947 C27.424,26.429 30.014,30.662 30.188,31.783 C27.527,32.593 24.729,33.923 23.396,34.821 C22.65,34.959 20.37,30.591 20.129,29.157 C21.062,27.415 25.933,25.947 26.573,25.947" id="Fill-200" fill="#C4D3EC"></path>
        <path d="M26.472,26.116 C27.316,26.573 29.799,30.597 29.964,31.692 C27.45,32.492 24.771,33.779 23.471,34.627 C22.721,34.755 20.535,30.602 20.307,29.213 C21.187,27.532 25.823,26.116 26.472,26.116" id="Fill-201" fill="#C6D6ED"></path>
        <path d="M26.369,26.283 C27.209,26.713 29.582,30.533 29.738,31.602 C27.372,32.394 24.813,33.636 23.545,34.434 C22.792,34.554 20.698,30.613 20.483,29.268 C21.312,27.647 25.713,26.283 26.369,26.283" id="Fill-202" fill="#CAD8EE"></path>
        <path d="M26.267,26.453 C27.103,26.855 29.367,30.469 29.513,31.511 C27.297,32.292 24.855,33.489 23.619,34.239 C22.866,34.352 20.86,30.623 20.659,29.324 C21.438,27.763 25.603,26.453 26.267,26.453" id="Fill-203" fill="#CCDAEF"></path>
        <path d="M26.164,26.62 C26.995,26.995 29.152,30.404 29.285,31.419 C27.218,32.194 24.9,33.345 23.691,34.044 C22.938,34.15 21.025,30.637 20.837,29.378 C21.563,27.877 25.49,26.62 26.164,26.62" id="Fill-204" fill="#D0DCF0"></path>
        <path d="M26.061,26.789 C26.889,27.137 28.937,30.339 29.063,31.329 C27.141,32.093 24.943,33.202 23.765,33.851 C23.01,33.949 21.188,30.648 21.014,29.435 C21.688,27.995 25.38,26.789 26.061,26.789" id="Fill-205" fill="#D2DEF1"></path>
        <path d="M25.957,26.955 C26.78,27.277 28.721,30.273 28.835,31.238 C27.062,31.995 24.985,33.057 23.838,33.656 C23.082,33.746 21.351,30.66 21.189,29.488 C21.812,28.111 25.271,26.955 25.957,26.955" id="Fill-206" fill="#D6E0F2"></path>
        <path d="M25.854,27.123 C26.676,27.419 28.505,30.21 28.611,31.147 C26.986,31.895 25.028,32.913 23.912,33.462 C23.152,33.545 21.514,30.67 21.367,29.542 C21.936,28.226 25.159,27.123 25.854,27.123" id="Fill-207" fill="#D9E2F3"></path>
        <path d="M25.752,27.292 C26.568,27.56 28.29,30.145 28.387,31.057 C26.908,31.794 25.074,32.77 23.985,33.268 C23.225,33.344 21.68,30.683 21.543,29.599 C22.062,28.341 25.049,27.292 25.752,27.292" id="Fill-208" fill="#DDE5F4"></path>
        <path d="M25.648,27.46 C26.463,27.702 28.075,30.081 28.159,30.966 C26.831,31.695 25.116,32.623 24.059,33.072 C23.297,33.141 21.842,30.693 21.719,29.654 C22.187,28.458 24.939,27.46 25.648,27.46" id="Fill-209" fill="#DFE7F5"></path>
        <path d="M25.545,27.627 C26.355,27.843 27.857,30.016 27.936,30.875 C26.752,31.597 25.159,32.479 24.133,32.878 C23.369,32.939 22.006,30.706 21.897,29.709 C22.311,28.574 24.827,27.627 25.545,27.627" id="Fill-210" fill="#E3E9F6"></path>
        <path d="M25.442,27.797 C26.247,27.985 27.643,29.951 27.708,30.784 C26.676,31.496 25.199,32.336 24.208,32.684 C23.439,32.737 22.167,30.717 22.074,29.764 C22.438,28.689 24.716,27.797 25.442,27.797" id="Fill-211" fill="#E5EBF7"></path>
        <path d="M25.339,27.964 C26.143,28.126 27.427,29.887 27.485,30.692 C26.598,31.397 25.242,32.191 24.28,32.489 C23.512,32.535 22.332,30.729 22.25,29.819 C22.562,28.805 24.606,27.964 25.339,27.964" id="Fill-212" fill="#E9EEF8"></path>
        <path d="M25.236,28.132 C26.036,28.267 27.211,29.822 27.258,30.603 C26.521,31.295 25.287,32.047 24.354,32.297 C23.584,32.334 22.494,30.741 22.428,29.873 C22.687,28.922 24.496,28.132 25.236,28.132" id="Fill-213" fill="#ECF1FA"></path>
        <path d="M25.133,28.3 C25.929,28.409 26.995,29.758 27.034,30.513 C26.442,31.197 25.331,31.902 24.429,32.102 C23.655,32.132 22.657,30.751 22.604,29.929 C22.811,29.037 24.385,28.3 25.133,28.3" id="Fill-214" fill="#F0F4FB"></path>
        <path d="M25.031,28.469 C25.822,28.549 26.779,29.692 26.809,30.421 C26.365,31.097 25.373,31.758 24.501,31.908 C23.727,31.931 22.821,30.765 22.78,29.983 C22.935,29.152 24.273,28.469 25.031,28.469" id="Fill-215" fill="#F3F6FC"></path>
        <path d="M24.929,28.638 C25.714,28.69 26.564,29.628 26.584,30.33 C26.288,30.998 25.416,31.614 24.576,31.713 C23.799,31.73 22.984,30.776 22.957,30.04 C23.061,29.268 24.163,28.638 24.929,28.638" id="Fill-216" fill="#F7F9FD"></path>
        <path d="M24.825,28.805 C25.609,28.831 26.35,29.564 26.358,30.241 C26.212,30.899 25.458,31.471 24.647,31.52 C23.87,31.526 23.149,30.787 23.135,30.093 C23.186,29.385 24.053,28.805 24.825,28.805" id="Fill-217" fill="#FAFCFE"></path>
        <path d="M24.722,28.975 C25.502,28.975 26.135,29.499 26.135,30.149 C26.135,30.798 25.502,31.325 24.722,31.325 C23.944,31.325 23.311,30.798 23.311,30.149 C23.311,29.499 23.944,28.975 24.722,28.975" id="Fill-218" fill="#FFFFFF"></path>
        <path d="M39.506,16.255 C39.259,15.848 39.117,15.361 39.117,14.746 L39.114,13.991 C41.357,13.905 43.664,13.511 45.874,14.095 C50.274,15.253 51.411,19.019 53.378,22.469 C53.707,23.046 54.016,23.626 54.63,25.152 L53.388,26.081 C52.28,25.005 48.766,23.916 46.57,23.916 C45.361,23.916 44.223,24.479 43.043,24.476 C42.51,24.475 42.007,24.238 41.821,23.7 C41.262,22.066 40.857,20.048 40.857,18.287 C40.857,17.915 40.769,17.641 40.521,17.376 L40.244,17.108 C39.966,16.849 39.7,16.582 39.506,16.255" id="Fill-219" fill="#1C9536"></path>
        <path d="M43.152,8.325 C43.329,8.354 43.499,8.395 43.653,8.441 L44.063,8.588 C44.182,8.932 44.491,9.897 44.491,9.897 L43.752,10.189 L44.285,10.945 L37.736,10.945 C39.021,9.075 40.366,6.729 42.965,8.215 L43.152,8.325" id="Fill-220" fill="#1C9536"></path>
        <path d="M27.544,9.251 C25.489,9.604 24.633,8.846 23.033,7.778 C26.249,6.23 28.256,6.086 31.881,6.484 C33.732,6.698 35.871,7.487 37.563,8.278 C37.753,10.287 37.892,10.031 36.359,11.117 C33.383,13.286 32.397,8.666 28.728,9.034 C28.303,9.078 27.908,9.187 27.544,9.251" id="Fill-221" fill="#1C9536"></path>
        <path d="M19.894,7.897 L20.256,7.757 C21.507,7.315 22.026,8.116 22.346,9.224 C22.737,10.602 22.344,11.1 21.723,11.513 C21.246,11.831 21.199,12.194 21.189,12.786 L19.758,12.904 C19.433,11.324 18.882,9.892 18.438,8.347 C18.973,8.244 19.396,8.098 19.894,7.897" id="Fill-222" fill="#1C9536"></path>
        <path d="M16.301,11.937 C17.201,12.837 17.462,12.935 17.609,14.455 C17.214,14.833 17.012,15.055 16.416,14.988 C15.967,14.94 14.468,15.349 14.073,15.453 C14.574,13.921 14.854,13.538 14.54,11.806 L14.438,11.176 C14.329,10.362 14.423,9.632 14.803,8.883 L16.002,9.31 C15.688,11.319 16.074,11.711 16.301,11.937" id="Fill-223" fill="#1C9536"></path>
        <path d="M30.555,16.886 C31.486,15.879 32.236,14.767 33.026,13.646 C33.702,16.27 34.465,18.563 35.963,20.85 C37.563,23.288 37.769,23.642 38.098,26.585 C37.441,26.271 37.068,25.992 36.448,25.869 L35.803,25.749 C35.167,25.623 34.381,25.356 34.381,24.54 C34.374,22.85 34.039,22.704 32.605,23.189 L32.002,23.394 C30.569,23.852 28.814,23.93 27.885,22.519 C28.211,19.449 28.686,18.913 30.555,16.886" id="Fill-224" fill="#1C9536"></path>
        <path d="M18.44,23.285 C18.968,24.032 19.666,24.681 20.29,25.349 C21.654,26.803 21.348,28.61 18.177,27.566 C17.629,28.129 17.174,29.529 16.137,30.333 C12.501,33.161 10.125,30.811 9.293,27.173 C9.052,26.128 7.992,24.719 9.203,23.826 C13.151,20.918 13.85,19.438 19.295,19.482 C19.724,19.484 20.102,19.86 20.102,20.288 C20.102,21.594 19.651,22.226 19.091,22.686 L18.785,22.926 L18.58,23.098 C18.529,23.15 18.482,23.208 18.44,23.285" id="Fill-225" fill="#1C9536"></path>
        <path d="M4.155,29.973 C4.478,29.573 4.757,29.159 4.914,28.704 L6.479,28.86 C6.585,29.715 6.554,31.423 6.864,32.267 L7.553,33.73 C6.516,33.612 4.015,33.508 3.297,32.623 C2.71,31.897 3.188,31.141 3.678,30.549 L4.155,29.973" id="Fill-226" fill="#1C9536"></path>
        <path d="M9.068,42.116 L9.791,41.165 C10.491,42.186 10.793,42.855 11.182,44.04 L11.498,44.99 C11.806,45.855 12.208,46.722 12.629,47.541 C9.841,46.508 6.181,45.855 9.068,42.116" id="Fill-227" fill="#1C9536"></path>
        <path d="M26.613,43.092 L19.573,47.283 C17.648,43.421 16.167,45.051 15.304,43.495 C14.249,41.586 13.48,39.902 14.562,37.914 L14.778,37.496 C14.833,37.377 14.883,37.255 14.917,37.119 C15.239,35.802 14.438,35.068 16.244,34.317 C17.293,33.878 19.505,33.455 22.062,34.367 C23.933,35.033 26.508,35.692 26.061,37.749 C25.798,38.965 24.855,40.564 24.855,41.629 C24.855,42.353 26.061,42.824 26.613,43.092" id="Fill-228" fill="#1C9536"></path>
        <path d="M29.606,37.569 C29.396,37.852 28.822,37.996 28.503,37.848 C27.596,37.427 27.221,36.788 27.05,35.861 L26.945,35.2 C26.822,34.464 27.306,34.008 28.033,34.173 C30.088,34.637 30.949,35.771 29.606,37.569" id="Fill-229" fill="#1C9536"></path>
        <path d="M35.158,30.955 C36.612,29.621 38.35,28.711 40.243,28.209 L42.899,32.977 L44.494,37.814 C43.775,39.016 41.891,39.21 39.561,38.806 C37.197,38.397 34.39,37.376 33.691,36.208 C32.423,34.128 33.771,32.23 35.158,30.955" id="Fill-230" fill="#1C9536"></path>
        <path d="M46.103,29.667 C45.964,28.552 46.717,28.009 47.812,28.009 C49.75,28.009 53.681,28.176 55.201,29.466 C57.167,31.069 56.445,34.342 57.461,36.352 L58.008,37.432 L56.8,37.432 C56.088,37.432 56.053,37.382 55.714,37.867 C54.689,39.21 52.986,38.581 51.75,38.009 L50.561,37.458 C50.203,37.301 49.867,37.162 49.554,37.08 C48.111,36.73 47.786,34.27 47.59,33.125 C47.368,31.879 46.137,31.008 46.137,29.881 C46.137,29.826 46.114,29.75 46.103,29.667" id="Fill-231" fill="#1C9536"></path>
        <path d="M62.002,32.784 C62.182,33.001 62.26,33.618 62.174,33.404 C62.174,33.403 61.67,36.367 61.675,36.346 C61.518,37.106 61.227,37.241 60.857,37.255 C56.926,37.416 59.936,30.314 62.002,32.784" id="Fill-232" fill="#1C9536"></path>
        <path d="M58.869,23.654 C59.593,25.255 60.037,26.218 57.832,26.526 L57.299,26.607 C55.464,24.174 54.537,21.212 54.057,18.242 L55.282,18.43 C58.663,18.836 60.731,21.699 58.869,23.654" id="Fill-233" fill="#1C9536"></path>
        <path d="M51.753,45.99 C51.84,43.545 50.967,42.929 49.362,41.372 L51.259,41.475 C53.393,41.475 54.806,42.336 56.439,43.512 C56.049,44.148 55.844,44.28 55.946,45.034 L55.986,45.398 C56.08,46.511 55.061,48.427 54.446,49.332 C53.406,50.862 52.395,51.05 50.721,51.327 C51.167,49.601 51.688,47.785 51.753,45.99" id="Fill-234" fill="#1C9536"></path>
        <path d="M44.724,42.021 C44.959,41.969 45.146,41.899 45.292,41.843 L45.557,41.748 C45.636,41.721 45.79,41.673 45.97,41.673 C46.856,41.673 46.951,42.842 46.993,43.48 L47.049,44.254 L47.082,44.498 C48.353,46.497 47.859,48.107 47.859,50.271 L47.848,50.844 C46.438,51.62 45.364,50.679 44.422,49.537 C43.658,48.611 43.002,47.377 42.861,46.156 L42.629,45.666 L42.05,44.464 C41.836,44.01 41.653,43.576 41.563,43.269 C40.891,40.958 43.414,42.308 44.724,42.021" id="Fill-235" fill="#1C9536"></path>
        <path d="M47.031,54.324 C48.157,53.673 49.858,53.942 49.716,56.023 C49.634,57.531 49.174,58.509 47.548,58.427 L47.104,58.404 C46.391,58.378 45.739,58.533 45.042,58.736 L45.131,57.622 C45.131,56.126 46.079,54.873 47.031,54.324" id="Fill-236" fill="#1C9536"></path>
        <path d="M30.16,58.501 C30.672,58.135 31.383,57.735 32.243,57.735 C33.354,57.735 34.162,58.654 35.02,59.22 L35.236,59.347 C37.263,59.533 38.625,59.244 41.904,59.244 L41.959,61.049 C39.347,61.203 31.114,62.957 28.909,60.815 L28.142,60.071 C28.833,59.567 29.473,58.999 30.16,58.501" id="Fill-237" fill="#1C9536"></path>
        <path d="M17.13,57.169 L25.595,57.152 L24.814,58.48 C23.082,61.851 18.745,58.328 17.13,57.169" id="Fill-238" fill="#1C9536"></path>
        <path d="M28,50.829 C27.961,52.303 28.039,53.557 28.383,54.975 L27.412,54.915 C25.251,54.94 19.985,51.414 21.824,49.637 C22.988,48.512 26.521,46.769 28.125,46.249 L28.123,47.452 C28.123,48.421 28.033,49.629 28,50.829" id="Fill-239" fill="#1C9536"></path>
        <path d="M24.638,28.945 C28.363,27.869 33.94,26.74 39.571,26.177 C38.365,24.071 37.183,21.952 36.131,19.773 C36.025,19.559 34.533,16.495 33.436,14.066 C29.481,14.804 24.452,15.577 21.211,17.114 C21.844,19.939 23.279,24.517 24.638,28.945 L24.638,28.945 Z M46.799,40.637 C42.159,41.339 36.411,42.512 31.193,44.289 L32.36,46.582 C33.981,49.253 35.549,51.643 36.777,53.582 C37.325,53.494 37.781,53.373 38.164,53.29 C41.641,52.541 44.917,51.95 48.233,51.77 L48.257,50.323 C48.282,49.23 48.287,48.181 48.273,47.156 C48.015,44.882 47.499,42.719 46.799,40.637 L46.799,40.637 Z M30.109,42.109 C35.81,39.853 41.064,39.046 44.342,38.781 C44.954,38.733 45.529,38.697 46.075,38.67 C44.569,34.866 42.52,31.292 40.459,27.718 C39.766,27.822 39.045,27.942 38.288,28.075 C37.364,28.238 34.525,28.689 31.639,29.218 C29.025,29.695 26.432,30.226 25.16,30.651 L25.337,31.227 C25.988,33.39 27.959,37.729 30.109,42.109 L30.109,42.109 Z M50.897,13.609 C53.844,18.576 55.438,21.101 56.469,23.374 C56.842,24.199 57.144,24.99 57.396,25.833 C57.73,26.613 58.039,27.402 58.311,28.202 C59.393,28.544 61.172,29.146 61.432,29.458 C61.641,29.709 61.643,30.154 60.988,30.145 C60.445,30.138 59.612,29.992 58.799,29.776 C59.386,31.883 59.722,34.045 59.722,36.239 C59.722,37.876 60.081,39.55 60.352,41.16 L60.44,41.701 C60.751,41.743 61.084,41.776 61.442,41.799 C61.886,40.321 62.237,38.839 62.6,37.38 C64.061,31.42 61.31,24.453 58.315,18.886 C57.459,17.309 56.099,15.639 54.372,14.016 C53.181,14.061 51.41,13.773 50.954,13.63 L50.897,13.609 L50.897,13.609 Z M56.688,26.097 C54.632,21.336 51.45,16.925 48.257,13.149 C45.096,12.874 40.137,12.951 36.646,13.464 C38.896,17.099 41.246,21.72 42.501,23.771 C42.938,24.49 43.356,25.187 43.755,25.869 C49.103,25.632 54.087,26.065 57.098,27.721 C56.974,27.14 56.838,26.607 56.688,26.097 L56.688,26.097 Z M59.439,41.523 L59.381,40.979 C58.746,36.343 58.239,35.585 57.727,31.598 C57.618,30.756 57.51,30.004 57.396,29.32 C57.198,29.24 57.021,29.155 56.865,29.074 C55.563,28.374 54.594,27.807 53.082,27.451 C51.296,27.029 48.672,26.814 44.523,27.206 C46.775,31.207 48.306,34.711 49.183,38.66 C51.829,38.781 53.516,39.256 54.922,39.817 C56.762,40.548 57.856,41.167 59.439,41.523 L59.439,41.523 Z M52.609,12.478 C46.546,7.556 37.326,3.536 29.36,4.686 C30.42,5.665 31.813,7.415 32.473,8.214 C32.632,8.392 32.765,8.548 32.906,8.722 C33.556,9.153 34.326,10.044 35.146,11.194 C35.437,11.162 35.69,11.144 35.904,11.137 C39.452,11.028 43.249,11.263 46.977,11.692 C46.589,11.238 46.223,10.78 46.099,10.515 C45.776,9.821 46.553,9.674 47.177,10.072 C47.965,10.574 48.739,11.27 49.46,12.006 C50.524,12.15 51.578,12.31 52.609,12.478 L52.609,12.478 Z M60.787,44.154 L60.854,43.943 L61.161,42.939 L60.636,42.968 C60.693,43.366 60.745,43.763 60.787,44.154 L60.787,44.154 Z M56.79,52.33 C57.609,51.247 58.525,49.636 59.221,48.158 C59.181,47.711 59.237,47.206 59.246,47.011 C59.307,45.641 59.48,44.151 59.485,42.717 C56.055,41.391 52.963,40.308 49.515,40.367 C49.861,42.41 50.047,44.595 50.082,47.043 C50.218,48.297 50.229,49.429 50.077,50.358 L50.088,51.674 C52.592,51.479 55.004,51.823 56.767,52.318 L56.79,52.33 L56.79,52.33 Z M49.917,58.562 C52.429,57.007 54.368,55.376 56.076,53.226 C55.098,53.05 52.982,52.672 50.265,52.643 L50.032,52.642 C49.992,54.678 50.011,56.643 49.917,58.562 L49.917,58.562 Z M40.698,62.415 C42.167,62.098 43.551,61.675 44.813,61.149 C45.904,60.696 46.93,60.217 47.902,59.711 L47.922,59.355 L48.008,57.8 C48.077,56.495 48.185,54.666 48.241,52.699 C45.133,52.808 42.057,53.481 39.086,54.47 C38.563,54.567 38.048,54.678 37.535,54.802 C38.367,56.161 38.973,57.257 39.176,57.975 L39.334,58.557 C39.452,58.818 40.491,61.069 40.698,62.415 L40.698,62.415 Z M28.037,59.594 C29.581,60.698 30.904,61.771 32.305,62.861 L32.551,63.054 C35.014,63.159 37.41,63.01 39.633,62.621 C39.168,61.439 38.701,59.129 38.618,58.815 C37.993,57.449 37.203,56.071 36.326,55.116 C33.124,56.029 30.444,57.447 28.037,59.594 L28.037,59.594 Z M18.975,50.803 C20.619,53.895 23.522,56.2 26.403,58.352 C29.08,56.589 32.728,55.013 35.582,54.041 C34.676,52.576 33.228,49.917 31.688,46.928 C31.23,46.172 30.768,45.395 30.308,44.598 C26.854,45.835 23.682,47.348 21.28,49.172 C20.583,49.701 19.805,50.266 18.975,50.803 L18.975,50.803 Z M11.462,36.061 C14.397,42.183 16.871,46.81 17.985,48.885 C19.389,47.957 20.954,46.946 22.9,45.731 C24.977,44.438 27.078,43.377 29.135,42.509 C27.669,39.821 26.285,36.971 25.219,34.094 C24.962,33.4 24.571,32.337 24.117,31.063 C20.241,32.6 19.701,32.01 11.583,36 L11.462,36.061 L11.462,36.061 Z M8.166,24.531 C8.753,28.323 9.68,32.306 10.828,34.73 L10.925,34.934 C14.859,32.503 20.513,30.257 23.493,29.293 C22.172,25.504 20.594,20.686 19.991,17.688 C17.996,18.558 16.048,19.067 14.136,19.898 C12.108,20.783 10.128,22.032 8.166,24.531 L8.166,24.531 Z M7.53,15.414 C7.373,16.649 7.474,19.017 7.789,21.745 C9.051,20.689 10.581,19.591 12.437,18.388 C14.547,17.023 16.953,16.311 19.313,15.509 C19.201,15.283 19.084,15.063 18.958,14.846 L18.316,13.756 C16.82,11.144 17.118,8.758 18.086,6.148 C14.311,8.212 10.566,11.169 7.53,15.414 L7.53,15.414 Z M5.8,15.041 C5.869,14.837 5.981,14.706 6.115,14.629 C9.076,10.81 13.476,6.812 18.885,4.09 L19.089,3.446 C19.102,3.23 19.091,3.021 19.072,2.83 L19.001,2.222 C18.958,1.764 19.049,1.252 19.666,1.276 C19.963,1.257 20.133,1.476 20.187,1.677 C20.302,2.135 19.957,3.19 19.834,3.591 C24.699,1.369 30.33,0.161 36.424,1.006 C36.542,1.023 36.736,1.379 36.365,1.385 L35.505,1.407 C31.651,1.557 27.657,2.332 24.018,3.562 C22.457,4.091 20.836,4.746 19.207,5.562 C18.65,7.311 18.121,9.123 18.228,10.072 C18.434,11.909 19.493,13.498 20.356,15.147 C20.971,14.923 21.579,14.688 22.175,14.425 C25.631,13.297 29.533,12.259 32.42,11.661 C32.346,11.457 32.298,11.299 32.284,11.201 C32.104,10.059 29.277,7.634 28.615,7.06 L27.622,6.2 L27.359,5.965 C26.993,5.617 26.957,5.405 26.957,5.378 C26.943,4.064 27.885,3.926 28.384,4.056 C29.563,3.71 31.576,3.415 34.386,3.494 C46.265,2.979 57.235,9.628 61.374,17.253 C71.868,33.764 61.377,56.544 47.641,62.611 C41.765,65.206 36.726,66.329 27.438,65.038 C18.132,63.744 10.523,59.216 4.615,49.7 C-2.661,37.975 1.449,23.766 2.472,20.901 C3.087,19.182 4.221,17.148 5.8,15.041 L5.8,15.041 Z M5.28,24.182 C5.299,22.77 5.449,21.35 5.513,19.998 L5.584,18.499 C5.199,19.195 4.831,19.918 4.484,20.67 C3.751,22.261 3.203,24.702 2.92,27.54 C2.996,27.463 3.109,27.367 3.261,27.256 C3.765,26.189 4.421,25.183 5.28,24.182 L5.28,24.182 Z M24.703,59.658 C21.508,57.207 18.553,54.546 18.081,54.122 C17.797,53.867 17.256,53.185 16.563,52.191 C15.488,52.721 14.383,53.141 13.307,53.342 C12.884,53.42 12.588,53.441 12.407,53.477 C11.918,53.572 11.712,53.064 12.129,52.788 C13.321,52.008 14.391,51.288 15.475,50.561 C13.439,47.387 10.762,42.59 9.065,37.929 C8.117,38.868 7.234,39.926 6.43,40.781 C6.188,41.04 5.593,41.74 5.19,41.284 C4.59,40.605 7.212,37.929 7.459,37.689 C7.767,37.321 8.153,36.949 8.6,36.575 C8.452,36.117 8.315,35.66 8.191,35.207 C7.066,31.112 6.461,29.739 6.084,28.909 C5.753,28.176 5.548,27.409 5.427,26.623 C4.728,27.028 4.043,27.622 3.729,27.838 C3.281,27.964 3.025,27.792 2.896,27.772 C2.447,32.575 2.749,38.455 4.184,43.233 C7.112,52.977 14.8,58.806 23.193,61.425 C23.257,61.228 23.363,61.017 23.521,60.795 C23.845,60.338 24.131,60.127 24.703,59.658 L24.703,59.658 Z M29.278,62.767 C28.405,62.088 27.479,61.635 26.6,60.965 C26.209,61.382 25.88,61.605 25.522,62.068 C26.772,62.368 28.027,62.6 29.278,62.767 L29.278,62.767 Z" id="Fill-241" fill="#000000"></path>
        <path d="M60.292,63.71 C59.862,64.14 59.648,64.661 59.648,65.271 C59.648,65.885 59.861,66.41 60.288,66.843 C60.715,67.275 61.237,67.492 61.85,67.492 C62.463,67.492 62.982,67.275 63.411,66.843 C63.838,66.41 64.052,65.885 64.054,65.271 C64.054,64.661 63.838,64.14 63.411,63.71 C62.979,63.275 62.46,63.06 61.85,63.06 C61.241,63.06 60.721,63.275 60.292,63.71 M63.666,67.091 C63.165,67.593 62.559,67.846 61.85,67.846 C61.141,67.846 60.535,67.593 60.037,67.091 C59.539,66.591 59.293,65.983 59.293,65.271 C59.293,64.564 59.543,63.963 60.043,63.461 C60.542,62.962 61.145,62.714 61.85,62.714 C62.559,62.714 63.165,62.962 63.666,63.461 C64.165,63.96 64.417,64.563 64.417,65.271 C64.417,65.982 64.165,66.588 63.666,67.091 M62.332,64.298 C62.209,64.229 62.009,64.194 61.732,64.194 L61.311,64.194 L61.311,65.214 L61.76,65.214 C61.968,65.214 62.125,65.193 62.23,65.151 C62.424,65.075 62.521,64.929 62.521,64.712 C62.521,64.508 62.456,64.369 62.332,64.298 M61.802,63.856 C62.151,63.856 62.406,63.889 62.569,63.957 C62.858,64.079 63.006,64.316 63.007,64.67 C63.007,64.922 62.913,65.107 62.73,65.226 C62.631,65.288 62.495,65.335 62.32,65.362 C62.542,65.398 62.704,65.488 62.807,65.639 C62.909,65.787 62.96,65.933 62.96,66.074 L62.96,66.28 C62.96,66.347 62.962,66.416 62.966,66.489 C62.972,66.563 62.979,66.613 62.991,66.637 L63.01,66.672 L62.546,66.672 C62.542,66.661 62.541,66.653 62.54,66.645 C62.534,66.634 62.53,66.623 62.53,66.612 L62.521,66.521 L62.521,66.298 C62.521,65.973 62.432,65.757 62.253,65.654 C62.151,65.593 61.967,65.561 61.703,65.561 L61.311,65.561 L61.311,66.672 L60.816,66.672 L60.816,63.856 L61.802,63.856" id="Fill-248" fill="#000000"></path>
    </g>
</svg>