<svg xmlns="http://www.w3.org/2000/svg" xmlns:xlink="http://www.w3.org/1999/xlink" width="770" height="224"><g transform="translate(1140 -280)"><path d="M-827 412c-18.23 0-33-14.33-33-32 0-14.14 8.94-26.06 22.8-30.43C-838 308-783 300-761 316c11-24 66-16 66 8 33-8 66 24 44 64 22 32 0 72-44 56-11 20.8-55 20.8-66 0-22 16-66 8-66-32z" stroke="#fff" stroke-width="7" fill="none"/><use xlink:href="#a" transform="matrix(1,0,0,1,-855,305) translate(38.388888888888886 83)"/><path d="M-1120 349.6c0-5.3 4.3-9.6 9.6-9.6h160.8c5.3 0 9.6 4.3 9.6 9.6v60.8c0 5.3-4.3 9.6-9.6 9.6h-160.8c-5.3 0-9.6-4.3-9.6-9.6z" stroke="#fff" stroke-width="6" fill="none"/><use xlink:href="#b" transform="matrix(1,0,0,1,-1115,345) translate(49.51851851851851 40.333333333333336)"/><path d="M-940 380h80" stroke="#fff" stroke-width="4" fill="none"/><path d="M-860 380l-14.27 4.64v-9.28z" fill="#fff"/><path d="M-859.83 377.95L-860 380l.05 1.75.04.32-16.37 5.32v-14.8zm-12.44 3.93l5.8-1.88-5.8-1.88z" fill="#fff"/><path d="M-647.68 381.02H-542" stroke="#fff" stroke-width="4" fill="none"/><path d="M-647.68 383.02h-.9l.9-2zM-542 381.02l-14.27 4.64v-9.28z" fill="#fff"/><path d="M-540 379.57v2.9l-18.27 5.94v-14.77zm-14.27 3.33l5.8-1.88-5.8-1.88z" fill="#fff"/><path d="M-540 320h80l20 20v100h-100z" stroke="#d9d9d9" stroke-width="4" fill="#fff"/><path d="M-460 320l20 20h-20z" fill="#d9d9d9"/><use xlink:href="#c" transform="matrix(1,0,0,1,-535,325) translate(45 60.4)"/><path d="M-590 444h200v40h-200z" fill="none"/><use xlink:href="#d" transform="matrix(1,0,0,1,-585,449) translate(0.22222222222220012 21.333333333333336)"/><use xlink:href="#e" transform="matrix(1,0,0,1,-585,449) translate(126.14814814814815 21.333333333333336)"/><defs><path fill="#fff" d="M67-125c0 54 23 88 75 88 28 0 53-7 68-21v-34h-60v-39h108v91C232-14 192 4 140 4 58 4 20-42 15-125 8-236 126-280 215-234c19 10 29 26 37 47l-47 15c-11-23-29-39-63-39-53 1-75 33-75 86" id="f"/><path fill="#fff" d="M25 0v-261h50V0H25" id="g"/><path fill="#fff" d="M133-34C117-15 103 5 69 4 32 3 11-16 11-54c-1-60 55-63 116-61 1-26-3-47-28-47-18 1-26 9-28 27l-52-2c7-38 36-58 82-57s74 22 75 68l1 82c-1 14 12 18 25 15v27c-30 8-71 5-69-32zm-48 3c29 0 43-24 42-57-32 0-66-3-65 30 0 17 8 27 23 27" id="h"/><path fill="#fff" d="M135-194c87-1 58 113 63 194h-50c-7-57 23-157-34-157-59 0-34 97-39 157H25l-1-190h47c2 12-1 28 3 38 12-26 28-41 61-42" id="i"/><path fill="#fff" d="M190-63c-7 42-38 67-86 67-59 0-84-38-90-98-12-110 154-137 174-36l-49 2c-2-19-15-32-35-32-30 0-35 28-38 64-6 74 65 87 74 30" id="j"/><path fill="#fff" d="M185-48c-13 30-37 53-82 52C43 2 14-33 14-96s30-98 90-98c62 0 83 45 84 108H66c0 31 8 55 39 56 18 0 30-7 34-22zm-45-69c5-46-57-63-70-21-2 6-4 13-4 21h74" id="k"/><g id="a"><use transform="matrix(0.1111111111111111,0,0,0.1111111111111111,0,0)" xlink:href="#f"/><use transform="matrix(0.1111111111111111,0,0,0.1111111111111111,31.11111111111111,0)" xlink:href="#g"/><use transform="matrix(0.1111111111111111,0,0,0.1111111111111111,42.22222222222222,0)" xlink:href="#h"/><use transform="matrix(0.1111111111111111,0,0,0.1111111111111111,64.44444444444444,0)" xlink:href="#i"/><use transform="matrix(0.1111111111111111,0,0,0.1111111111111111,88.77777777777777,0)" xlink:href="#j"/><use transform="matrix(0.1111111111111111,0,0,0.1111111111111111,111,0)" xlink:href="#k"/></g><path fill="#fff" d="M136-208V0H84v-208H4v-40h212v40h-80" id="l"/><path fill="#fff" d="M135-150c-39-12-60 13-60 57V0H25l-1-190h47c2 13-1 29 3 40 6-28 27-53 61-41v41" id="m"/><path fill="#fff" d="M110-194c64 0 96 36 96 99 0 64-35 99-97 99-61 0-95-36-95-99 0-62 34-99 96-99zm-1 164c35 0 45-28 45-65 0-40-10-65-43-65-34 0-45 26-45 65 0 36 10 65 43 65" id="n"/><g id="b"><use transform="matrix(0.07407407407407408,0,0,0.07407407407407408,0,0)" xlink:href="#l"/><use transform="matrix(0.07407407407407408,0,0,0.07407407407407408,14.740740740740744,0)" xlink:href="#m"/><use transform="matrix(0.07407407407407408,0,0,0.07407407407407408,25.111111111111114,0)" xlink:href="#k"/><use transform="matrix(0.07407407407407408,0,0,0.07407407407407408,39.92592592592593,0)" xlink:href="#g"/><use transform="matrix(0.07407407407407408,0,0,0.07407407407407408,47.33333333333334,0)" xlink:href="#g"/><use transform="matrix(0.07407407407407408,0,0,0.07407407407407408,54.74074074074075,0)" xlink:href="#n"/></g><path fill="#fff" d="M140-251c80 0 125 45 125 126S219 4 139 4C58 4 15-44 15-125s44-126 125-126zm-1 214c52 0 73-35 73-88 0-50-21-86-72-86-52 0-73 35-73 86s22 88 72 88" id="o"/><path fill="#fff" d="M128 0H69L1-190h53L99-40l48-150h52" id="p"/><path fill="#fff" d="M25-224v-37h50v37H25zM25 0v-190h50V0H25" id="q"/><path fill="#fff" d="M231 0h-52l-39-155L100 0H48L-1-190h46L77-45c9-52 24-97 36-145h53l37 145 32-145h46" id="r"/><g id="d"><use transform="matrix(0.07407407407407408,0,0,0.07407407407407408,0,0)" xlink:href="#o"/><use transform="matrix(0.07407407407407408,0,0,0.07407407407407408,20.740740740740744,0)" xlink:href="#p"/><use transform="matrix(0.07407407407407408,0,0,0.07407407407407408,35.55555555555556,0)" xlink:href="#k"/><use transform="matrix(0.07407407407407408,0,0,0.07407407407407408,50.370370370370374,0)" xlink:href="#m"/><use transform="matrix(0.07407407407407408,0,0,0.07407407407407408,60.74074074074075,0)" xlink:href="#p"/><use transform="matrix(0.07407407407407408,0,0,0.07407407407407408,75.55555555555557,0)" xlink:href="#q"/><use transform="matrix(0.07407407407407408,0,0,0.07407407407407408,82.96296296296298,0)" xlink:href="#k"/><use transform="matrix(0.07407407407407408,0,0,0.07407407407407408,97.77777777777781,0)" xlink:href="#r"/></g><path fill="#fff" d="M24-248c93 1 206-16 204 79-1 75-69 88-152 82V0H24v-248zm52 121c47 0 100 7 100-41 0-47-54-39-100-39v80" id="s"/><path fill="#fff" d="M195-6C206 82 75 100 31 46c-4-6-6-13-8-21l49-6c3 16 16 24 34 25 40 0 42-37 40-79-11 22-30 35-61 35-53 0-70-43-70-97 0-56 18-96 73-97 30 0 46 14 59 34l2-30h47zm-90-29c32 0 41-27 41-63 0-35-9-62-40-62-32 0-39 29-40 63 0 36 9 62 39 62" id="t"/><g id="e"><use transform="matrix(0.07407407407407408,0,0,0.07407407407407408,0,0)" xlink:href="#s"/><use transform="matrix(0.07407407407407408,0,0,0.07407407407407408,17.77777777777778,0)" xlink:href="#h"/><use transform="matrix(0.07407407407407408,0,0,0.07407407407407408,32.592592592592595,0)" xlink:href="#t"/><use transform="matrix(0.07407407407407408,0,0,0.07407407407407408,48.814814814814824,0)" xlink:href="#k"/></g></defs></g></svg>