<svg xmlns="http://www.w3.org/2000/svg" xmlns:xlink="http://www.w3.org/1999/xlink" width="712" height="480"><g transform="translate(-349 -60)"><path d="M620 160h400v160H620z" stroke="#fff" stroke-width="2" fill="#9b0d28"/><use xlink:href="#a" transform="matrix(1,0,0,1,625,165) translate(0 80.4)"/><path d="M360 340h690" fill="none"/><path d="M360 340h10m10 0h20m10 0h20m10 0h20m10 0h20m10 0h20m10 0h20m10 0h20m10 0h20m10 0h20m10 0h20m10 0h20m10 0h20m10 0h20m10 0h20m10 0h20m10 0h20m10 0h20m10 0h20m10 0h20m10 0h20m10 0h20m10 0h20m10 0h10" stroke="#fff" stroke-width="2" fill="none"/><path d="M640 199h160v82H640z" stroke="#fff" stroke-width="2" fill="#1a4982"/><use xlink:href="#b" transform="matrix(1,0,0,1,645,204) translate(3.3611111111111143 31.166666666666668)"/><use xlink:href="#c" transform="matrix(1,0,0,1,645,204) translate(75.52777777777779 31.166666666666668)"/><use xlink:href="#d" transform="matrix(1,0,0,1,645,204) translate(41.836419753086425 51.611111111111114)"/><path d="M1000 296c0 7.73-26.86 14-60 14s-60-6.27-60-14V184c0-7.73 26.86-14 60-14s60 6.27 60 14z" stroke="#fff" stroke-width="2" fill="#498a44"/><path d="M1000 184c0 7.73-26.86 14-60 14s-60-6.27-60-14" stroke="#fff" stroke-width="2" fill="none"/><use xlink:href="#e" transform="matrix(1,0,0,1,885,203) translate(0.5999999999999943 45.266666666666666)"/><use xlink:href="#f" transform="matrix(1,0,0,1,885,203) translate(83.5 45.266666666666666)"/><use xlink:href="#g" transform="matrix(1,0,0,1,885,203) translate(10.68827160493828 64.91111111111111)"/><path d="M640 460h160v60H640z" stroke="#fff" stroke-width="2" fill="#498a44"/><use xlink:href="#h" transform="matrix(1,0,0,1,645,465) translate(18.74382716049383 29.88888888888889)"/><use xlink:href="#i" transform="matrix(1,0,0,1,645,465) translate(90.58333333333334 29.88888888888889)"/><path d="M380 200h160v80H380z" stroke="#fff" stroke-width="2" fill="#e0b036"/><use xlink:href="#j" transform="matrix(1,0,0,1,385,205) translate(44.25925925925926 26.111111111111114)"/><use xlink:href="#k" transform="matrix(1,0,0,1,385,205) translate(27.22222222222222 52.77777777777778)"/><use xlink:href="#l" transform="matrix(1,0,0,1,385,205) translate(79.75308641975309 52.77777777777778)"/><path d="M800 240h79" stroke="#fff" stroke-width="2" fill="none"/><path d="M814.27 244.64L800 240l14.27-4.64z" fill="#fff"/><path d="M815.27 246L800 241.06v-2.1l15.27-4.96zm-12.03-6l10.03 3.26v-6.52zM879 240l-14.27 4.64v-9.28z" fill="#fff"/><path d="M880 239.27v1.46L863.73 246v-12zm-14.27 4l10.03-3.27-10.03-3.26z" fill="#fff"/><path d="M678.67 459V282.02" stroke="#fff" stroke-width="2" fill="none"/><path d="M679.67 460h-2v-1h2zM683.3 296.3h-9.27l4.64-14.28z" fill="#fff"/><path d="M684.68 297.3h-12.03l5.3-16.3h1.44zm-9.27-2h6.53l-3.26-10.04z" fill="#fff"/><path d="M761.33 459V282.02" stroke="#fff" stroke-width="2" fill="none"/><path d="M761.33 459l-4.63-14.27h9.27z" fill="#fff"/><path d="M762.06 460h-1.45l-5.28-16.27h12.03zm-4-14.27l3.27 10.03 3.26-10.03zM762.33 282.02h-2V281h2z" fill="#fff"/><path d="M600 80v262" fill="none"/><path d="M600 80v9.7m0 9.7v19.4m0 9.72v19.4m0 9.7v19.42m0 9.7v19.4m0 9.7v19.42m0 9.7v19.4m0 9.7v19.42m0 9.7v19.4m0 9.72v9.7M540 240h99" stroke="#fff" stroke-width="2" fill="none"/><path d="M639 240l-14.27 4.64v-9.28z" fill="#fff"/><path d="M640 239.27v1.46L623.73 246v-12zm-14.27 4l10.03-3.27-10.03-3.26z" fill="#fff"/><path d="M400 80h180v40H400z" fill="none"/><use xlink:href="#m" transform="matrix(1,0,0,1,405,85) translate(45.728395061728406 24.88888888888889)"/><path d="M760 80h280v40H760z" fill="none"/><use xlink:href="#n" transform="matrix(1,0,0,1,765,85) translate(11.345679012345727 24.88888888888889)"/><use xlink:href="#o" transform="matrix(1,0,0,1,765,85) translate(126.88888888888893 24.88888888888889)"/><path d="M820 480h220v40H820z" fill="none"/><g><use xlink:href="#p" transform="matrix(1,0,0,1,825,485) translate(4.493827160493851 24.88888888888889)"/><use xlink:href="#q" transform="matrix(1,0,0,1,825,485) translate(95.92592592592594 24.88888888888889)"/></g><path d="M511 371h160v60H511z" fill="none"/><g><use xlink:href="#r" transform="matrix(1,0,0,1,516,376) translate(30.099999999999994 17.799999999999997)"/><use xlink:href="#s" transform="matrix(1,0,0,1,516,376) translate(107.05 17.799999999999997)"/><use xlink:href="#t" transform="matrix(1,0,0,1,516,376) translate(31.049999999999997 39.4)"/><use xlink:href="#u" transform="matrix(1,0,0,1,516,376) translate(82 39.4)"/></g><path d="M772 377.7h140v46.6H772z" fill="none"/><g><use xlink:href="#v" transform="matrix(1,0,0,1,777,382.7) translate(0 14.4)"/><use xlink:href="#w" transform="matrix(1,0,0,1,777,382.7) translate(64.85 14.4)"/><use xlink:href="#x" transform="matrix(1,0,0,1,777,382.7) translate(87.75 14.4)"/><use xlink:href="#y" transform="matrix(1,0,0,1,777,382.7) translate(0 36)"/><use xlink:href="#z" transform="matrix(1,0,0,1,777,382.7) translate(25 36)"/><use xlink:href="#A" transform="matrix(1,0,0,1,777,382.7) translate(40 36)"/></g><defs><path fill="#fff" d="M67-125c0 54 23 88 75 88 28 0 53-7 68-21v-34h-60v-39h108v91C232-14 192 4 140 4 58 4 20-42 15-125 8-236 126-280 215-234c19 10 29 26 37 47l-47 15c-11-23-29-39-63-39-53 1-75 33-75 86" id="B"/><path fill="#fff" d="M25 0v-261h50V0H25" id="C"/><path fill="#fff" d="M133-34C117-15 103 5 69 4 32 3 11-16 11-54c-1-60 55-63 116-61 1-26-3-47-28-47-18 1-26 9-28 27l-52-2c7-38 36-58 82-57s74 22 75 68l1 82c-1 14 12 18 25 15v27c-30 8-71 5-69-32zm-48 3c29 0 43-24 42-57-32 0-66-3-65 30 0 17 8 27 23 27" id="D"/><path fill="#fff" d="M135-194c87-1 58 113 63 194h-50c-7-57 23-157-34-157-59 0-34 97-39 157H25l-1-190h47c2 12-1 28 3 38 12-26 28-41 61-42" id="E"/><path fill="#fff" d="M190-63c-7 42-38 67-86 67-59 0-84-38-90-98-12-110 154-137 174-36l-49 2c-2-19-15-32-35-32-30 0-35 28-38 64-6 74 65 87 74 30" id="F"/><path fill="#fff" d="M185-48c-13 30-37 53-82 52C43 2 14-33 14-96s30-98 90-98c62 0 83 45 84 108H66c0 31 8 55 39 56 18 0 30-7 34-22zm-45-69c5-46-57-63-70-21-2 6-4 13-4 21h74" id="G"/><g id="b"><use transform="matrix(0.05555555555555555,0,0,0.05555555555555555,0,0)" xlink:href="#B"/><use transform="matrix(0.05555555555555555,0,0,0.05555555555555555,15.555555555555555,0)" xlink:href="#C"/><use transform="matrix(0.05555555555555555,0,0,0.05555555555555555,21.11111111111111,0)" xlink:href="#D"/><use transform="matrix(0.05555555555555555,0,0,0.05555555555555555,32.22222222222222,0)" xlink:href="#E"/><use transform="matrix(0.05555555555555555,0,0,0.05555555555555555,44.388888888888886,0)" xlink:href="#F"/><use transform="matrix(0.05555555555555555,0,0,0.05555555555555555,55.5,0)" xlink:href="#G"/></g><path fill="#fff" d="M169-182c-1-43-94-46-97-3 18 66 151 10 154 114 3 95-165 93-204 36-6-8-10-19-12-30l50-8c3 46 112 56 116 5-17-69-150-10-154-114-4-87 153-88 188-35 5 8 8 18 10 28" id="H"/><path fill="#fff" d="M135-150c-39-12-60 13-60 57V0H25l-1-190h47c2 13-1 29 3 40 6-28 27-53 61-41v41" id="I"/><path fill="#fff" d="M128 0H69L1-190h53L99-40l48-150h52" id="J"/><path fill="#fff" d="M25-224v-37h50v37H25zM25 0v-190h50V0H25" id="K"/><g id="c"><use transform="matrix(0.05555555555555555,0,0,0.05555555555555555,0,0)" xlink:href="#H"/><use transform="matrix(0.05555555555555555,0,0,0.05555555555555555,13.333333333333332,0)" xlink:href="#G"/><use transform="matrix(0.05555555555555555,0,0,0.05555555555555555,24.444444444444443,0)" xlink:href="#I"/><use transform="matrix(0.05555555555555555,0,0,0.05555555555555555,32.22222222222222,0)" xlink:href="#J"/><use transform="matrix(0.05555555555555555,0,0,0.05555555555555555,43.33333333333333,0)" xlink:href="#K"/><use transform="matrix(0.05555555555555555,0,0,0.05555555555555555,48.888888888888886,0)" xlink:href="#F"/><use transform="matrix(0.05555555555555555,0,0,0.05555555555555555,60,0)" xlink:href="#G"/></g><path fill="#fff" d="M67-93c0 74 22 123 53 168H70C40 30 18-18 18-93s22-123 52-168h50c-32 44-53 94-53 168" id="L"/><path fill="#fff" d="M175 0L67-191c6 58 2 128 3 191H24v-248h59L193-55c-6-58-2-129-3-193h46V0h-61" id="M"/><path fill="#fff" d="M110-194c64 0 96 36 96 99 0 64-35 99-97 99-61 0-95-36-95-99 0-62 34-99 96-99zm-1 164c35 0 45-28 45-65 0-40-10-65-43-65-34 0-45 26-45 65 0 36 10 65 43 65" id="N"/><path fill="#fff" d="M88-194c31-1 46 15 58 34l-1-101h50l1 261h-48c-2-10 0-23-3-31C134-8 116 4 84 4 32 4 16-41 15-95c0-56 19-97 73-99zm17 164c33 0 40-30 41-66 1-37-9-64-41-64s-38 30-39 65c0 43 13 65 39 65" id="O"/><path fill="#fff" d="M176-78C186 10 51 31 16-35c-5-9-9-19-11-32l52-8c4 21 12 37 35 38 23 0 32-16 32-40v-130H75v-41h101v170" id="P"/><path fill="#fff" d="M137-138c1-29-70-34-71-4 15 46 118 7 119 86 1 83-164 76-172 9l43-7c4 19 20 25 44 25 33 8 57-30 24-41C81-84 22-81 20-136c-2-80 154-74 161-7" id="Q"/><path fill="#fff" d="M102-93c0 74-22 123-52 168H0C30 29 54-18 53-93c0-74-22-123-53-168h50c30 45 52 94 52 168" id="R"/><g id="d"><use transform="matrix(0.043209876543209874,0,0,0.043209876543209874,0,0)" xlink:href="#L"/><use transform="matrix(0.043209876543209874,0,0,0.043209876543209874,5.141975308641975,0)" xlink:href="#M"/><use transform="matrix(0.043209876543209874,0,0,0.043209876543209874,16.333333333333332,0)" xlink:href="#N"/><use transform="matrix(0.043209876543209874,0,0,0.043209876543209874,25.796296296296294,0)" xlink:href="#O"/><use transform="matrix(0.043209876543209874,0,0,0.043209876543209874,35.25925925925925,0)" xlink:href="#G"/><use transform="matrix(0.043209876543209874,0,0,0.043209876543209874,43.90123456790123,0)" xlink:href="#P"/><use transform="matrix(0.043209876543209874,0,0,0.043209876543209874,52.543209876543195,0)" xlink:href="#Q"/><use transform="matrix(0.043209876543209874,0,0,0.043209876543209874,61.18518518518517,0)" xlink:href="#R"/></g><path fill="#fff" d="M24-248c93 1 206-16 204 79-1 75-69 88-152 82V0H24v-248zm52 121c47 0 100 7 100-41 0-47-54-39-100-39v80" id="S"/><path fill="#fff" d="M195-6C206 82 75 100 31 46c-4-6-6-13-8-21l49-6c3 16 16 24 34 25 40 0 42-37 40-79-11 22-30 35-61 35-53 0-70-43-70-97 0-56 18-96 73-97 30 0 46 14 59 34l2-30h47zm-90-29c32 0 41-27 41-63 0-35-9-62-40-62-32 0-39 29-40 63 0 36 9 62 39 62" id="T"/><g id="e"><use transform="matrix(0.05,0,0,0.05,0,0)" xlink:href="#S"/><use transform="matrix(0.05,0,0,0.05,12,0)" xlink:href="#I"/><use transform="matrix(0.05,0,0,0.05,19,0)" xlink:href="#N"/><use transform="matrix(0.05,0,0,0.05,29.950000000000003,0)" xlink:href="#T"/><use transform="matrix(0.05,0,0,0.05,40.900000000000006,0)" xlink:href="#I"/><use transform="matrix(0.05,0,0,0.05,47.900000000000006,0)" xlink:href="#G"/><use transform="matrix(0.05,0,0,0.05,57.900000000000006,0)" xlink:href="#Q"/><use transform="matrix(0.05,0,0,0.05,67.9,0)" xlink:href="#Q"/></g><path fill="#fff" d="M24-248c120-7 223 5 221 122C244-46 201 0 124 0H24v-248zM76-40c74 7 117-18 117-86 0-67-45-88-117-82v168" id="U"/><path fill="#fff" d="M182-130c37 4 62 22 62 59C244 23 116-4 24 0v-248c84 5 203-23 205 63 0 31-19 50-47 55zM76-148c40-3 101 13 101-30 0-44-60-28-101-31v61zm0 110c48-3 116 14 116-37 0-48-69-32-116-35v72" id="V"/><g id="f"><use transform="matrix(0.05,0,0,0.05,0,0)" xlink:href="#U"/><use transform="matrix(0.05,0,0,0.05,12.950000000000001,0)" xlink:href="#V"/></g><path fill="#fff" d="M230 0l2-204L168 0h-37L68-204 70 0H24v-248h70l56 185 57-185h69V0h-46" id="W"/><path fill="#fff" d="M24 0v-248h52v208h133V0H24" id="X"/><path fill="#fff" d="M135-194c52 0 70 43 70 98 0 56-19 99-73 100-30 1-46-15-58-35L72 0H24l1-261h50v104c11-23 29-37 60-37zM114-30c31 0 40-27 40-66 0-37-7-63-39-63s-41 28-41 65c0 36 8 64 40 64" id="Y"/><g id="g"><use transform="matrix(0.043209876543209874,0,0,0.043209876543209874,0,0)" xlink:href="#L"/><use transform="matrix(0.043209876543209874,0,0,0.043209876543209874,5.141975308641975,0)" xlink:href="#W"/><use transform="matrix(0.043209876543209874,0,0,0.043209876543209874,18.061728395061728,0)" xlink:href="#N"/><use transform="matrix(0.043209876543209874,0,0,0.043209876543209874,27.52469135802469,0)" xlink:href="#E"/><use transform="matrix(0.043209876543209874,0,0,0.043209876543209874,36.98765432098765,0)" xlink:href="#T"/><use transform="matrix(0.043209876543209874,0,0,0.043209876543209874,46.45061728395061,0)" xlink:href="#N"/><use transform="matrix(0.043209876543209874,0,0,0.043209876543209874,55.913580246913575,0)" xlink:href="#X"/><use transform="matrix(0.043209876543209874,0,0,0.043209876543209874,65.37654320987653,0)" xlink:href="#D"/><use transform="matrix(0.043209876543209874,0,0,0.043209876543209874,74.0185185185185,0)" xlink:href="#Y"/><use transform="matrix(0.043209876543209874,0,0,0.043209876543209874,83.48148148148147,0)" xlink:href="#R"/></g><path fill="#fff" d="M136-208V0H84v-208H4v-40h212v40h-80" id="Z"/><g id="h"><use transform="matrix(0.06790123456790123,0,0,0.06790123456790123,0,0)" xlink:href="#Z"/><use transform="matrix(0.06790123456790123,0,0,0.06790123456790123,13.512345679012345,0)" xlink:href="#I"/><use transform="matrix(0.06790123456790123,0,0,0.06790123456790123,23.018518518518515,0)" xlink:href="#G"/><use transform="matrix(0.06790123456790123,0,0,0.06790123456790123,36.598765432098766,0)" xlink:href="#C"/><use transform="matrix(0.06790123456790123,0,0,0.06790123456790123,43.388888888888886,0)" xlink:href="#C"/><use transform="matrix(0.06790123456790123,0,0,0.06790123456790123,50.17901234567901,0)" xlink:href="#N"/></g><path fill="#fff" d="M199 0l-22-63H83L61 0H9l90-248h61L250 0h-51zm-33-102l-36-108c-10 38-24 72-36 108h72" id="aa"/><path fill="#fff" d="M24 0v-248h52V0H24" id="ab"/><g id="i"><use transform="matrix(0.06790123456790123,0,0,0.06790123456790123,0,0)" xlink:href="#aa"/><use transform="matrix(0.06790123456790123,0,0,0.06790123456790123,17.586419753086417,0)" xlink:href="#S"/><use transform="matrix(0.06790123456790123,0,0,0.06790123456790123,33.88271604938271,0)" xlink:href="#ab"/></g><path fill="#fff" d="M186 0v-106H76V0H24v-248h52v99h110v-99h50V0h-50" id="ac"/><g id="j"><use transform="matrix(0.06172839506172839,0,0,0.06172839506172839,0,0)" xlink:href="#ac"/><use transform="matrix(0.06172839506172839,0,0,0.06172839506172839,15.987654320987653,0)" xlink:href="#Z"/><use transform="matrix(0.06172839506172839,0,0,0.06172839506172839,29.50617283950617,0)" xlink:href="#W"/><use transform="matrix(0.06172839506172839,0,0,0.06172839506172839,47.96296296296296,0)" xlink:href="#X"/></g><path fill="#fff" d="M275 0h-61l-44-196L126 0H64L0-248h53L97-49l45-199h58l43 199 44-199h52" id="ad"/><g id="k"><use transform="matrix(0.06172839506172839,0,0,0.06172839506172839,0,0)" xlink:href="#ad"/><use transform="matrix(0.06172839506172839,0,0,0.06172839506172839,20.493827160493826,0)" xlink:href="#G"/><use transform="matrix(0.06172839506172839,0,0,0.06172839506172839,32.839506172839506,0)" xlink:href="#Y"/></g><path fill="#fff" d="M135-194c53 0 70 44 70 98 0 56-19 98-73 100-31 1-45-17-59-34 3 33 2 69 2 105H25l-1-265h48c2 10 0 23 3 31 11-24 29-35 60-35zM114-30c33 0 39-31 40-66 0-38-9-64-40-64-56 0-55 130 0 130" id="ae"/><g id="l"><use transform="matrix(0.06172839506172839,0,0,0.06172839506172839,0,0)" xlink:href="#aa"/><use transform="matrix(0.06172839506172839,0,0,0.06172839506172839,15.987654320987653,0)" xlink:href="#ae"/><use transform="matrix(0.06172839506172839,0,0,0.06172839506172839,29.50617283950617,0)" xlink:href="#ae"/></g><path fill="#fff" d="M231 0h-52l-39-155L100 0H48L-1-190h46L77-45c9-52 24-97 36-145h53l37 145 32-145h46" id="af"/><g id="m"><use transform="matrix(0.08641975308641975,0,0,0.08641975308641975,0,0)" xlink:href="#V"/><use transform="matrix(0.08641975308641975,0,0,0.08641975308641975,22.382716049382715,0)" xlink:href="#I"/><use transform="matrix(0.08641975308641975,0,0,0.08641975308641975,34.48148148148148,0)" xlink:href="#N"/><use transform="matrix(0.08641975308641975,0,0,0.08641975308641975,53.407407407407405,0)" xlink:href="#af"/><use transform="matrix(0.08641975308641975,0,0,0.08641975308641975,77.60493827160494,0)" xlink:href="#Q"/><use transform="matrix(0.08641975308641975,0,0,0.08641975308641975,94.88888888888889,0)" xlink:href="#G"/><use transform="matrix(0.08641975308641975,0,0,0.08641975308641975,112.17283950617283,0)" xlink:href="#I"/></g><path fill="#fff" d="M147 0L96-86 75-71V0H25v-261h50v150l67-79h53l-66 74L201 0h-54" id="ag"/><path fill="#fff" d="M85 4C-2 5 27-109 22-190h50c7 57-23 150 33 157 60-5 35-97 40-157h50l1 190h-47c-2-12 1-28-3-38-12 25-28 42-61 42" id="ah"/><g id="n"><use transform="matrix(0.08641975308641975,0,0,0.08641975308641975,0,0)" xlink:href="#ac"/><use transform="matrix(0.08641975308641975,0,0,0.08641975308641975,22.382716049382715,0)" xlink:href="#G"/><use transform="matrix(0.08641975308641975,0,0,0.08641975308641975,39.666666666666664,0)" xlink:href="#I"/><use transform="matrix(0.08641975308641975,0,0,0.08641975308641975,51.76543209876543,0)" xlink:href="#N"/><use transform="matrix(0.08641975308641975,0,0,0.08641975308641975,70.69135802469135,0)" xlink:href="#ag"/><use transform="matrix(0.08641975308641975,0,0,0.08641975308641975,87.9753086419753,0)" xlink:href="#ah"/></g><path fill="#fff" d="M14-72v-43h91v43H14" id="ai"/><path fill="#fff" d="M24 0v-248h195v40H76v63h132v40H76v65h150V0H24" id="aj"/><g id="o"><use transform="matrix(0.08641975308641975,0,0,0.08641975308641975,0,0)" xlink:href="#V"/><use transform="matrix(0.08641975308641975,0,0,0.08641975308641975,22.382716049382715,0)" xlink:href="#D"/><use transform="matrix(0.08641975308641975,0,0,0.08641975308641975,39.666666666666664,0)" xlink:href="#F"/><use transform="matrix(0.08641975308641975,0,0,0.08641975308641975,56.95061728395061,0)" xlink:href="#ag"/><use transform="matrix(0.08641975308641975,0,0,0.08641975308641975,74.23456790123456,0)" xlink:href="#ai"/><use transform="matrix(0.08641975308641975,0,0,0.08641975308641975,84.5185185185185,0)" xlink:href="#aj"/><use transform="matrix(0.08641975308641975,0,0,0.08641975308641975,105.25925925925924,0)" xlink:href="#E"/><use transform="matrix(0.08641975308641975,0,0,0.08641975308641975,124.18518518518516,0)" xlink:href="#O"/></g><g id="p"><use transform="matrix(0.08641975308641975,0,0,0.08641975308641975,0,0)" xlink:href="#Z"/><use transform="matrix(0.08641975308641975,0,0,0.08641975308641975,17.197530864197528,0)" xlink:href="#I"/><use transform="matrix(0.08641975308641975,0,0,0.08641975308641975,29.29629629629629,0)" xlink:href="#G"/><use transform="matrix(0.08641975308641975,0,0,0.08641975308641975,46.58024691358025,0)" xlink:href="#C"/><use transform="matrix(0.08641975308641975,0,0,0.08641975308641975,55.22222222222222,0)" xlink:href="#C"/><use transform="matrix(0.08641975308641975,0,0,0.08641975308641975,63.86419753086418,0)" xlink:href="#N"/></g><g id="q"><use transform="matrix(0.08641975308641975,0,0,0.08641975308641975,0,0)" xlink:href="#H"/><use transform="matrix(0.08641975308641975,0,0,0.08641975308641975,20.74074074074074,0)" xlink:href="#G"/><use transform="matrix(0.08641975308641975,0,0,0.08641975308641975,38.02469135802469,0)" xlink:href="#I"/><use transform="matrix(0.08641975308641975,0,0,0.08641975308641975,50.123456790123456,0)" xlink:href="#J"/><use transform="matrix(0.08641975308641975,0,0,0.08641975308641975,67.4074074074074,0)" xlink:href="#G"/><use transform="matrix(0.08641975308641975,0,0,0.08641975308641975,84.69135802469135,0)" xlink:href="#I"/><use transform="matrix(0.08641975308641975,0,0,0.08641975308641975,96.79012345679011,0)" xlink:href="#Q"/></g><path fill="#fff" d="M206 0h-36l-40-164L89 0H53L-1-190h32L70-26l43-164h34l41 164 42-164h31" id="ak"/><path fill="#fff" d="M100-194c63 0 86 42 84 106H49c0 40 14 67 53 68 26 1 43-12 49-29l28 8c-11 28-37 45-77 45C44 4 14-33 15-96c1-61 26-98 85-98zm52 81c6-60-76-77-97-28-3 7-6 17-6 28h103" id="al"/><path fill="#fff" d="M115-194c53 0 69 39 70 98 0 66-23 100-70 100C84 3 66-7 56-30L54 0H23l1-261h32v101c10-23 28-34 59-34zm-8 174c40 0 45-34 45-75 0-40-5-75-45-74-42 0-51 32-51 76 0 43 10 73 51 73" id="am"/><path fill="#fff" d="M100-194c62-1 85 37 85 99 1 63-27 99-86 99S16-35 15-95c0-66 28-99 85-99zM99-20c44 1 53-31 53-75 0-43-8-75-51-75s-53 32-53 75 10 74 51 75" id="an"/><path fill="#fff" d="M143 0L79-87 56-68V0H24v-261h32v163l83-92h37l-77 82L181 0h-38" id="ao"/><g id="r"><use transform="matrix(0.05,0,0,0.05,0,0)" xlink:href="#ak"/><use transform="matrix(0.05,0,0,0.05,12.950000000000001,0)" xlink:href="#al"/><use transform="matrix(0.05,0,0,0.05,22.950000000000003,0)" xlink:href="#am"/><use transform="matrix(0.05,0,0,0.05,32.95,0)" xlink:href="#an"/><use transform="matrix(0.05,0,0,0.05,42.95,0)" xlink:href="#an"/><use transform="matrix(0.05,0,0,0.05,52.95,0)" xlink:href="#an"/><use transform="matrix(0.05,0,0,0.05,62.95,0)" xlink:href="#ao"/></g><path fill="#fff" d="M106-169C34-169 62-67 57 0H25v-261h32l-1 103c12-21 28-36 61-36 89 0 53 116 60 194h-32v-121c2-32-8-49-39-48" id="ap"/><path fill="#fff" d="M117-194c89-4 53 116 60 194h-32v-121c0-31-8-49-39-48C34-167 62-67 57 0H25l-1-190h30c1 10-1 24 2 32 11-22 29-35 61-36" id="aq"/><g id="s"><use transform="matrix(0.05,0,0,0.05,0,0)" xlink:href="#ak"/><use transform="matrix(0.05,0,0,0.05,12.950000000000001,0)" xlink:href="#ap"/><use transform="matrix(0.05,0,0,0.05,22.950000000000003,0)" xlink:href="#al"/><use transform="matrix(0.05,0,0,0.05,32.95,0)" xlink:href="#aq"/></g><path fill="#fff" d="M141-36C126-15 110 5 73 4 37 3 15-17 15-53c-1-64 63-63 125-63 3-35-9-54-41-54-24 1-41 7-42 31l-33-3c5-37 33-52 76-52 45 0 72 20 72 64v82c-1 20 7 32 28 27v20c-31 9-61-2-59-35zM48-53c0 20 12 33 32 33 41-3 63-29 60-74-43 2-92-5-92 41" id="ar"/><path fill="#fff" d="M114-163C36-179 61-72 57 0H25l-1-190h30c1 12-1 29 2 39 6-27 23-49 58-41v29" id="as"/><path fill="#fff" d="M85-194c31 0 48 13 60 33l-1-100h32l1 261h-30c-2-10 0-23-3-31C134-8 116 4 85 4 32 4 16-35 15-94c0-66 23-100 70-100zm9 24c-40 0-46 34-46 75 0 40 6 74 45 74 42 0 51-32 51-76 0-42-9-74-50-73" id="at"/><g id="t"><use transform="matrix(0.05,0,0,0.05,0,0)" xlink:href="#am"/><use transform="matrix(0.05,0,0,0.05,10,0)" xlink:href="#an"/><use transform="matrix(0.05,0,0,0.05,20,0)" xlink:href="#ar"/><use transform="matrix(0.05,0,0,0.05,30,0)" xlink:href="#as"/><use transform="matrix(0.05,0,0,0.05,35.95,0)" xlink:href="#at"/></g><path fill="#fff" d="M96-169c-40 0-48 33-48 73s9 75 48 75c24 0 41-14 43-38l32 2c-6 37-31 61-74 61-59 0-76-41-82-99-10-93 101-131 147-64 4 7 5 14 7 22l-32 3c-4-21-16-35-41-35" id="au"/><path fill="#fff" d="M177-190C167-65 218 103 67 71c-23-6-38-20-44-43l32-5c15 47 100 32 89-28v-30C133-14 115 1 83 1 29 1 15-40 15-95c0-56 16-97 71-98 29-1 48 16 59 35 1-10 0-23 2-32h30zM94-22c36 0 50-32 50-73 0-42-14-75-50-75-39 0-46 34-46 75s6 73 46 73" id="av"/><path fill="#fff" d="M135-143c-3-34-86-38-87 0 15 53 115 12 119 90S17 21 10-45l28-5c4 36 97 45 98 0-10-56-113-15-118-90-4-57 82-63 122-42 12 7 21 19 24 35" id="aw"/><g id="u"><use transform="matrix(0.05,0,0,0.05,0,0)" xlink:href="#au"/><use transform="matrix(0.05,0,0,0.05,9,0)" xlink:href="#ap"/><use transform="matrix(0.05,0,0,0.05,19,0)" xlink:href="#ar"/><use transform="matrix(0.05,0,0,0.05,29,0)" xlink:href="#aq"/><use transform="matrix(0.05,0,0,0.05,39,0)" xlink:href="#av"/><use transform="matrix(0.05,0,0,0.05,49,0)" xlink:href="#al"/><use transform="matrix(0.05,0,0,0.05,59,0)" xlink:href="#aw"/></g><path fill="#fff" d="M59-47c-2 24 18 29 38 22v24C64 9 27 4 27-40v-127H5v-23h24l9-43h21v43h35v23H59v120" id="ax"/><path fill="#fff" d="M24-231v-30h32v30H24zM24 0v-190h32V0H24" id="ay"/><path fill="#fff" d="M108 0H70L1-190h34L89-25l56-165h34" id="az"/><g id="v"><use transform="matrix(0.05,0,0,0.05,0,0)" xlink:href="#as"/><use transform="matrix(0.05,0,0,0.05,5.95,0)" xlink:href="#al"/><use transform="matrix(0.05,0,0,0.05,15.949999999999998,0)" xlink:href="#ax"/><use transform="matrix(0.05,0,0,0.05,20.95,0)" xlink:href="#as"/><use transform="matrix(0.05,0,0,0.05,26.899999999999995,0)" xlink:href="#ay"/><use transform="matrix(0.05,0,0,0.05,30.849999999999994,0)" xlink:href="#al"/><use transform="matrix(0.05,0,0,0.05,40.849999999999994,0)" xlink:href="#az"/><use transform="matrix(0.05,0,0,0.05,49.849999999999994,0)" xlink:href="#al"/></g><path fill="#fff" d="M24 0v-261h32V0H24" id="aA"/><g id="w"><use transform="matrix(0.05,0,0,0.05,0,0)" xlink:href="#ar"/><use transform="matrix(0.05,0,0,0.05,10,0)" xlink:href="#aA"/><use transform="matrix(0.05,0,0,0.05,13.949999999999998,0)" xlink:href="#aA"/></g><g id="x"><use transform="matrix(0.05,0,0,0.05,0,0)" xlink:href="#ax"/><use transform="matrix(0.05,0,0,0.05,5,0)" xlink:href="#ar"/><use transform="matrix(0.05,0,0,0.05,15,0)" xlink:href="#aw"/><use transform="matrix(0.05,0,0,0.05,24,0)" xlink:href="#ao"/><use transform="matrix(0.05,0,0,0.05,33,0)" xlink:href="#aw"/></g><g id="y"><use transform="matrix(0.05,0,0,0.05,0,0)" xlink:href="#an"/><use transform="matrix(0.05,0,0,0.05,10,0)" xlink:href="#aq"/></g><use transform="matrix(0.05,0,0,0.05,0,0)" xlink:href="#ar" id="z"/><g id="A"><use transform="matrix(0.05,0,0,0.05,0,0)" xlink:href="#am"/><use transform="matrix(0.05,0,0,0.05,10,0)" xlink:href="#an"/><use transform="matrix(0.05,0,0,0.05,20,0)" xlink:href="#ar"/><use transform="matrix(0.05,0,0,0.05,30,0)" xlink:href="#as"/><use transform="matrix(0.05,0,0,0.05,35.95,0)" xlink:href="#at"/></g></defs></g></svg>