<svg xmlns="http://www.w3.org/2000/svg" xmlns:xlink="http://www.w3.org/1999/xlink" width="1040" height="489.5"><g transform="translate(1260 -140)"><path d="M-847 412c-18.23 0-33-14.33-33-32 0-14.14 8.94-26.06 22.8-30.43C-858 308-803 300-781 316c11-24 66-16 66 8 33-8 66 24 44 64 22 32 0 72-44 56-11 20.8-55 20.8-66 0-22 16-66 8-66-32z" stroke="#fff" stroke-width="7" fill="none"/><use xlink:href="#a" transform="matrix(1,0,0,1,-875,305) translate(38.388888888888886 83)"/><path d="M-1140 169.6c0-5.3 4.3-9.6 9.6-9.6h160.8c5.3 0 9.6 4.3 9.6 9.6v60.8c0 5.3-4.3 9.6-9.6 9.6h-160.8c-5.3 0-9.6-4.3-9.6-9.6z" stroke="#fff" stroke-width="6" fill="none"/><use xlink:href="#b" transform="matrix(1,0,0,1,-1135,165) translate(49.51851851851851 40.333333333333336)"/><path d="M-1240 289.6c0-5.3 4.3-9.6 9.6-9.6h160.8c5.3 0 9.6 4.3 9.6 9.6v60.8c0 5.3-4.3 9.6-9.6 9.6h-160.8c-5.3 0-9.6-4.3-9.6-9.6z" stroke="#fff" stroke-width="6" fill="none"/><use xlink:href="#c" transform="matrix(1,0,0,1,-1235,285) translate(23.592592592592595 40.333333333333336)"/><path d="M-1240 409.6c0-5.3 4.3-9.6 9.6-9.6h160.8c5.3 0 9.6 4.3 9.6 9.6v60.8c0 5.3-4.3 9.6-9.6 9.6h-160.8c-5.3 0-9.6-4.3-9.6-9.6z" stroke="#fff" stroke-width="6" fill="none"/><use xlink:href="#d" transform="matrix(1,0,0,1,-1235,405) translate(54.7037037037037 40.333333333333336)"/><path d="M-1140 529.6c0-5.3 4.3-9.6 9.6-9.6h160.8c5.3 0 9.6 4.3 9.6 9.6v60.8c0 5.3-4.3 9.6-9.6 9.6h-160.8c-5.3 0-9.6-4.3-9.6-9.6z" stroke="#fff" stroke-width="6" fill="none"/><use xlink:href="#e" transform="matrix(1,0,0,1,-1135,525) translate(40.703703703703695 24.333333333333336)"/><use xlink:href="#f" transform="matrix(1,0,0,1,-1135,525) translate(43.55555555555556 56.333333333333336)"/><path d="M-960 200l115.7 115.7" stroke="#fff" stroke-width="4" fill="none"/><path d="M-958.6 198.6l-1.4 1.4v-2.83zM-844.3 315.7l-13.37-6.8 6.56-6.57z" fill="#fff"/><path d="M-841.06 317.65l-.04.03-1.5 1.12-18.43-9.38 10.45-10.45zm-13.25-9.3l5.42 2.77-2.76-5.43z" fill="#fff"/><path d="M-1060 320l179.95 44.9" stroke="#fff" stroke-width="4" fill="none"/><path d="M-1059.52 318.06l-.48 1.94v-2.06zM-880.05 364.9l-14.97 1.05 2.25-9z" fill="#fff"/><path d="M-876.23 364.93l-.06.1-.72 1.66-20.6 1.43 3.57-14.33zm-16.18-1.17l6.07-.43-5.17-3.22z" fill="#fff"/><path d="M-960 560l120.96-117.62" stroke="#fff" stroke-width="4" fill="none"/><path d="M-958.6 561.43l-1.4 1.36V560zM-846.03 455.65l-6.47-6.65 13.46-6.62z" fill="#fff"/><path d="M-836.9 439.58l1.06 1.03-9.7 18.42-10.3-10.6 18.65-9.17zm-12.24 10l2.62 2.7 2.84-5.4z" fill="#fff"/><path d="M-1060 440l188.76-33.56" stroke="#fff" stroke-width="4" fill="none"/><path d="M-1059.65 441.97l-.35.06V440zM-871.24 406.44l-13.23 7.06-1.63-9.12z" fill="#fff"/><path d="M-867.54 404.94l1.34 1.08-19.76 10.54-2.6-14.54zm-15.45 5.5l5.4-2.86-6.05-.84z" fill="#fff"/><path d="M-478 249.6c0-5.3 4.3-9.6 9.6-9.6h178.8c5.3 0 9.6 4.3 9.6 9.6v40.8c0 5.3-4.3 9.6-9.6 9.6h-178.8c-5.3 0-9.6-4.3-9.6-9.6z" stroke="#fff" stroke-width="6" fill="none"/><use xlink:href="#g" transform="matrix(1,0,0,1,-473,245) translate(2.3333333333333144 30.333333333333336)"/><use xlink:href="#h" transform="matrix(1,0,0,1,-473,245) translate(54.111111111111086 30.333333333333336)"/><path d="M-669.9 436l149.9 99.5M-669.9 436l-2.5-1.66" stroke="#fff" stroke-width="4" fill="none"/><path d="M-520 535.5l-14.45-4.03 5.13-7.72z" fill="#fff"/><path d="M-518 534.8v3.33l-19.64-5.47 8.17-12.3zm-13.26-4.5l5.87 1.62-3.78-4.77z" fill="#fff"/><path d="M-516 169.6c0-5.3 4.3-9.6 9.6-9.6h178.8c5.3 0 9.6 4.3 9.6 9.6v42.8c0 5.3-4.3 9.6-9.6 9.6h-178.8c-5.3 0-9.6-4.3-9.6-9.6z" stroke="#fff" stroke-width="6" fill="none"/><use xlink:href="#g" transform="matrix(1,0,0,1,-511,165) translate(2.3333333333333144 31.333333333333336)"/><use xlink:href="#h" transform="matrix(1,0,0,1,-511,165) translate(54.111111111111086 31.333333333333336)"/><path d="M-438 327.6c0-5.3 4.3-9.6 9.6-9.6h178.8c5.3 0 9.6 4.3 9.6 9.6v40.8c0 5.3-4.3 9.6-9.6 9.6h-178.8c-5.3 0-9.6-4.3-9.6-9.6z" stroke="#fff" stroke-width="6" fill="none"/><use xlink:href="#g" transform="matrix(1,0,0,1,-433,323) translate(2.3333333333333144 30.333333333333336)"/><use xlink:href="#h" transform="matrix(1,0,0,1,-433,323) translate(54.111111111111086 30.333333333333336)"/><path d="M-500 489.5h80l20 20v100h-100z" stroke="#d9d9d9" stroke-width="4" fill="#fff"/><path d="M-420 489.5l20 20h-20z" fill="#d9d9d9"/><use xlink:href="#i" transform="matrix(1,0,0,1,-495,494.5) translate(45 60.4)"/><path d="M-508 481.5h80l20 20v100h-100z" stroke="#d9d9d9" stroke-width="4" fill="#fff"/><path d="M-428 481.5l20 20h-20z" fill="#d9d9d9"/><use xlink:href="#i" transform="matrix(1,0,0,1,-503,486.5) translate(45 60.4)"/><path d="M-518 472.5h80l20 20v100h-100z" stroke="#d9d9d9" stroke-width="4" fill="#fff"/><path d="M-438 472.5l20 20h-20z" fill="#d9d9d9"/><use xlink:href="#i" transform="matrix(1,0,0,1,-513,477.5) translate(45 60.4)"/><path d="M-380 509h120v100h-120z" fill="none"/><use xlink:href="#j" transform="matrix(1,0,0,1,-375,514) translate(0 32.55555555555556)"/><use xlink:href="#k" transform="matrix(1,0,0,1,-375,514) translate(0 69.88888888888889)"/><path d="M-707.1 319.36L-516 191" stroke="#fff" stroke-width="4" fill="none"/><path d="M-706 321.02l-2.5 1.67-2.22-3.33 2.5-1.67zM-525.26 202.8l-5.17-7.7L-516 191z" fill="#fff"/><path d="M-516 194.24l-9.38 11.96-8.24-12.26 17.62-5.02zm-11.23 2.04l2.1 3.12 3.76-4.8z" fill="#fff"/><path d="M-666.6 348l188.6-78" stroke="#fff" stroke-width="4" fill="none"/><path d="M-665.84 349.85l-.06.03-.03-.1-.75-1.96zm-1.37-3.32l-.18-.37h.02zM-489.4 279.74l-3.55-8.57L-478 270z" fill="#fff"/><path d="M-478 272.63l-12.2 10.4-5.65-13.64L-478 268zm-12.05.32l1.43 3.48 4.64-3.96z" fill="#fff"/><path d="M-663.14 394.86L-438 348" stroke="#fff" stroke-width="4" fill="none"/><path d="M-662.74 396.8l-2.93.62-.82-3.9 2.95-.62zM-438 348l-13.02 7.44-1.9-9.07z" fill="#fff"/><path d="M-438 346v4.3l-14.42 8.25-3-14.47zm-11.62 6.34l5.28-3.02-6.05-.66z" fill="#fff"/><defs><path fill="#fff" d="M67-125c0 54 23 88 75 88 28 0 53-7 68-21v-34h-60v-39h108v91C232-14 192 4 140 4 58 4 20-42 15-125 8-236 126-280 215-234c19 10 29 26 37 47l-47 15c-11-23-29-39-63-39-53 1-75 33-75 86" id="l"/><path fill="#fff" d="M25 0v-261h50V0H25" id="m"/><path fill="#fff" d="M133-34C117-15 103 5 69 4 32 3 11-16 11-54c-1-60 55-63 116-61 1-26-3-47-28-47-18 1-26 9-28 27l-52-2c7-38 36-58 82-57s74 22 75 68l1 82c-1 14 12 18 25 15v27c-30 8-71 5-69-32zm-48 3c29 0 43-24 42-57-32 0-66-3-65 30 0 17 8 27 23 27" id="n"/><path fill="#fff" d="M135-194c87-1 58 113 63 194h-50c-7-57 23-157-34-157-59 0-34 97-39 157H25l-1-190h47c2 12-1 28 3 38 12-26 28-41 61-42" id="o"/><path fill="#fff" d="M190-63c-7 42-38 67-86 67-59 0-84-38-90-98-12-110 154-137 174-36l-49 2c-2-19-15-32-35-32-30 0-35 28-38 64-6 74 65 87 74 30" id="p"/><path fill="#fff" d="M185-48c-13 30-37 53-82 52C43 2 14-33 14-96s30-98 90-98c62 0 83 45 84 108H66c0 31 8 55 39 56 18 0 30-7 34-22zm-45-69c5-46-57-63-70-21-2 6-4 13-4 21h74" id="q"/><g id="a"><use transform="matrix(0.1111111111111111,0,0,0.1111111111111111,0,0)" xlink:href="#l"/><use transform="matrix(0.1111111111111111,0,0,0.1111111111111111,31.11111111111111,0)" xlink:href="#m"/><use transform="matrix(0.1111111111111111,0,0,0.1111111111111111,42.22222222222222,0)" xlink:href="#n"/><use transform="matrix(0.1111111111111111,0,0,0.1111111111111111,64.44444444444444,0)" xlink:href="#o"/><use transform="matrix(0.1111111111111111,0,0,0.1111111111111111,88.77777777777777,0)" xlink:href="#p"/><use transform="matrix(0.1111111111111111,0,0,0.1111111111111111,111,0)" xlink:href="#q"/></g><path fill="#fff" d="M136-208V0H84v-208H4v-40h212v40h-80" id="r"/><path fill="#fff" d="M135-150c-39-12-60 13-60 57V0H25l-1-190h47c2 13-1 29 3 40 6-28 27-53 61-41v41" id="s"/><path fill="#fff" d="M110-194c64 0 96 36 96 99 0 64-35 99-97 99-61 0-95-36-95-99 0-62 34-99 96-99zm-1 164c35 0 45-28 45-65 0-40-10-65-43-65-34 0-45 26-45 65 0 36 10 65 43 65" id="t"/><g id="b"><use transform="matrix(0.07407407407407408,0,0,0.07407407407407408,0,0)" xlink:href="#r"/><use transform="matrix(0.07407407407407408,0,0,0.07407407407407408,14.740740740740744,0)" xlink:href="#s"/><use transform="matrix(0.07407407407407408,0,0,0.07407407407407408,25.111111111111114,0)" xlink:href="#q"/><use transform="matrix(0.07407407407407408,0,0,0.07407407407407408,39.92592592592593,0)" xlink:href="#m"/><use transform="matrix(0.07407407407407408,0,0,0.07407407407407408,47.33333333333334,0)" xlink:href="#m"/><use transform="matrix(0.07407407407407408,0,0,0.07407407407407408,54.74074074074075,0)" xlink:href="#t"/></g><path fill="#fff" d="M24-248c93 1 206-16 204 79-1 75-69 88-152 82V0H24v-248zm52 121c47 0 100 7 100-41 0-47-54-39-100-39v80" id="u"/><path fill="#fff" d="M25-224v-37h50v37H25zM25 0v-190h50V0H25" id="v"/><path fill="#fff" d="M135-194c53 0 70 44 70 98 0 56-19 98-73 100-31 1-45-17-59-34 3 33 2 69 2 105H25l-1-265h48c2 10 0 23 3 31 11-24 29-35 60-35zM114-30c33 0 39-31 40-66 0-38-9-64-40-64-56 0-55 130 0 130" id="w"/><path fill="#fff" d="M24-248c120-7 223 5 221 122C244-46 201 0 124 0H24v-248zM76-40c74 7 117-18 117-86 0-67-45-88-117-82v168" id="x"/><path fill="#fff" d="M128 0H69L1-190h53L99-40l48-150h52" id="y"/><g id="c"><use transform="matrix(0.07407407407407408,0,0,0.07407407407407408,0,0)" xlink:href="#u"/><use transform="matrix(0.07407407407407408,0,0,0.07407407407407408,17.77777777777778,0)" xlink:href="#v"/><use transform="matrix(0.07407407407407408,0,0,0.07407407407407408,25.185185185185187,0)" xlink:href="#w"/><use transform="matrix(0.07407407407407408,0,0,0.07407407407407408,41.40740740740741,0)" xlink:href="#q"/><use transform="matrix(0.07407407407407408,0,0,0.07407407407407408,56.22222222222223,0)" xlink:href="#x"/><use transform="matrix(0.07407407407407408,0,0,0.07407407407407408,75.40740740740742,0)" xlink:href="#s"/><use transform="matrix(0.07407407407407408,0,0,0.07407407407407408,85.77777777777779,0)" xlink:href="#v"/><use transform="matrix(0.07407407407407408,0,0,0.07407407407407408,93.18518518518519,0)" xlink:href="#y"/><use transform="matrix(0.07407407407407408,0,0,0.07407407407407408,108,0)" xlink:href="#q"/></g><path fill="#fff" d="M176-78C186 10 51 31 16-35c-5-9-9-19-11-32l52-8c4 21 12 37 35 38 23 0 32-16 32-40v-130H75v-41h101v170" id="z"/><path fill="#fff" d="M24 0v-248h52V0H24" id="A"/><path fill="#fff" d="M240-174c0 40-23 61-54 70L253 0h-59l-57-94H76V0H24v-248c93 4 217-23 216 74zM76-134c48-2 112 12 112-38 0-48-66-32-112-35v73" id="B"/><path fill="#fff" d="M199 0l-22-63H83L61 0H9l90-248h61L250 0h-51zm-33-102l-36-108c-10 38-24 72-36 108h72" id="C"/><g id="d"><use transform="matrix(0.07407407407407408,0,0,0.07407407407407408,0,0)" xlink:href="#z"/><use transform="matrix(0.07407407407407408,0,0,0.07407407407407408,14.814814814814817,0)" xlink:href="#A"/><use transform="matrix(0.07407407407407408,0,0,0.07407407407407408,22.222222222222225,0)" xlink:href="#B"/><use transform="matrix(0.07407407407407408,0,0,0.07407407407407408,41.40740740740741,0)" xlink:href="#C"/></g><path fill="#fff" d="M115-3C79 11 28 4 28-45v-112H4v-33h27l15-45h31v45h36v33H77v99c-1 23 16 31 38 25v30" id="D"/><path fill="#fff" d="M186 0v-106H76V0H24v-248h52v99h110v-99h50V0h-50" id="E"/><path fill="#fff" d="M85 4C-2 5 27-109 22-190h50c7 57-23 150 33 157 60-5 35-97 40-157h50l1 190h-47c-2-12 1-28-3-38-12 25-28 42-61 42" id="F"/><path fill="#fff" d="M135-194c52 0 70 43 70 98 0 56-19 99-73 100-30 1-46-15-58-35L72 0H24l1-261h50v104c11-23 29-37 60-37zM114-30c31 0 40-27 40-66 0-37-7-63-39-63s-41 28-41 65c0 36 8 64 40 64" id="G"/><g id="e"><use transform="matrix(0.07407407407407408,0,0,0.07407407407407408,0,0)" xlink:href="#l"/><use transform="matrix(0.07407407407407408,0,0,0.07407407407407408,20.740740740740744,0)" xlink:href="#v"/><use transform="matrix(0.07407407407407408,0,0,0.07407407407407408,28.148148148148152,0)" xlink:href="#D"/><use transform="matrix(0.07407407407407408,0,0,0.07407407407407408,36.96296296296297,0)" xlink:href="#E"/><use transform="matrix(0.07407407407407408,0,0,0.07407407407407408,56.14814814814815,0)" xlink:href="#F"/><use transform="matrix(0.07407407407407408,0,0,0.07407407407407408,72.37037037037038,0)" xlink:href="#G"/></g><path fill="#fff" d="M137-138c1-29-70-34-71-4 15 46 118 7 119 86 1 83-164 76-172 9l43-7c4 19 20 25 44 25 33 8 57-30 24-41C81-84 22-81 20-136c-2-80 154-74 161-7" id="H"/><g id="f"><use transform="matrix(0.07407407407407408,0,0,0.07407407407407408,0,0)" xlink:href="#A"/><use transform="matrix(0.07407407407407408,0,0,0.07407407407407408,7.407407407407408,0)" xlink:href="#H"/><use transform="matrix(0.07407407407407408,0,0,0.07407407407407408,22.222222222222225,0)" xlink:href="#H"/><use transform="matrix(0.07407407407407408,0,0,0.07407407407407408,37.03703703703704,0)" xlink:href="#F"/><use transform="matrix(0.07407407407407408,0,0,0.07407407407407408,53.25925925925927,0)" xlink:href="#q"/><use transform="matrix(0.07407407407407408,0,0,0.07407407407407408,68.07407407407408,0)" xlink:href="#H"/></g><g id="g"><use transform="matrix(0.07407407407407408,0,0,0.07407407407407408,0,0)" xlink:href="#C"/><use transform="matrix(0.07407407407407408,0,0,0.07407407407407408,19.185185185185187,0)" xlink:href="#u"/><use transform="matrix(0.07407407407407408,0,0,0.07407407407407408,36.96296296296296,0)" xlink:href="#A"/></g><path fill="#fff" d="M67-125c0 53 21 87 73 88 37 1 54-22 65-47l45 17C233-25 199 4 140 4 58 4 20-42 15-125 8-235 124-281 211-232c18 10 29 29 36 50l-46 12c-8-25-30-41-62-41-52 0-71 34-72 86" id="I"/><path fill="#fff" d="M220-157c-53 9-28 100-34 157h-49v-107c1-27-5-49-29-50C55-147 81-57 75 0H25l-1-190h47c2 12-1 28 3 38 10-53 101-56 108 0 13-22 24-43 59-42 82 1 51 116 57 194h-49v-107c-1-25-5-48-29-50" id="J"/><g id="h"><use transform="matrix(0.07407407407407408,0,0,0.07407407407407408,0,0)" xlink:href="#I"/><use transform="matrix(0.07407407407407408,0,0,0.07407407407407408,19.185185185185187,0)" xlink:href="#t"/><use transform="matrix(0.07407407407407408,0,0,0.07407407407407408,35.40740740740741,0)" xlink:href="#o"/><use transform="matrix(0.07407407407407408,0,0,0.07407407407407408,51.62962962962963,0)" xlink:href="#H"/><use transform="matrix(0.07407407407407408,0,0,0.07407407407407408,66.44444444444446,0)" xlink:href="#F"/><use transform="matrix(0.07407407407407408,0,0,0.07407407407407408,82.66666666666667,0)" xlink:href="#J"/><use transform="matrix(0.07407407407407408,0,0,0.07407407407407408,106.3703703703704,0)" xlink:href="#q"/><use transform="matrix(0.07407407407407408,0,0,0.07407407407407408,121.18518518518522,0)" xlink:href="#s"/></g><path fill="#fff" d="M25-224v-37h50v37H25zM75 22c2 45-34 59-81 51V38c22 5 31-5 31-27v-201h50V22" id="K"/><g id="j"><use transform="matrix(0.08641975308641975,0,0,0.08641975308641975,0,0)" xlink:href="#u"/><use transform="matrix(0.08641975308641975,0,0,0.08641975308641975,20.74074074074074,0)" xlink:href="#s"/><use transform="matrix(0.08641975308641975,0,0,0.08641975308641975,32.839506172839506,0)" xlink:href="#t"/><use transform="matrix(0.08641975308641975,0,0,0.08641975308641975,51.76543209876543,0)" xlink:href="#K"/><use transform="matrix(0.08641975308641975,0,0,0.08641975308641975,60.407407407407405,0)" xlink:href="#q"/><use transform="matrix(0.08641975308641975,0,0,0.08641975308641975,77.69135802469135,0)" xlink:href="#p"/><use transform="matrix(0.08641975308641975,0,0,0.08641975308641975,94.9753086419753,0)" xlink:href="#D"/></g><path fill="#fff" d="M195-6C206 82 75 100 31 46c-4-6-6-13-8-21l49-6c3 16 16 24 34 25 40 0 42-37 40-79-11 22-30 35-61 35-53 0-70-43-70-97 0-56 18-96 73-97 30 0 46 14 59 34l2-30h47zm-90-29c32 0 41-27 41-63 0-35-9-62-40-62-32 0-39 29-40 63 0 36 9 62 39 62" id="L"/><g id="k"><use transform="matrix(0.08641975308641975,0,0,0.08641975308641975,0,0)" xlink:href="#u"/><use transform="matrix(0.08641975308641975,0,0,0.08641975308641975,20.74074074074074,0)" xlink:href="#n"/><use transform="matrix(0.08641975308641975,0,0,0.08641975308641975,38.02469135802469,0)" xlink:href="#L"/><use transform="matrix(0.08641975308641975,0,0,0.08641975308641975,56.95061728395061,0)" xlink:href="#q"/><use transform="matrix(0.08641975308641975,0,0,0.08641975308641975,74.23456790123456,0)" xlink:href="#H"/></g></defs></g></svg>