<?xml version="1.0" encoding="UTF-8" standalone="no"?>
<svg width="289px" height="182px" viewBox="0 0 289 182" version="1.1" xmlns="http://www.w3.org/2000/svg" xmlns:xlink="http://www.w3.org/1999/xlink">
    <!-- Generator: Sketch 39.1 (31720) - http://www.bohemiancoding.com/sketch -->
    <title>Slice 1</title>
    <desc>Created with Sketch.</desc>
    <defs></defs>
    <g id="Page-1" stroke="none" stroke-width="1" fill="none" fill-rule="evenodd">
        <g id="Group" transform="translate(2.000000, 2.000000)" stroke="#000000" stroke-width="2.5" fill="#FFFFFF">
            <path d="M201.9595,87.2508 C201.9595,93.1848 191.7835,105.5078 185.8505,105.5078 C185.8505,105.5078 169.7405,110.3408 141.8185,110.3408 C114.9695,110.3408 98.8595,105.5078 98.8595,105.5078 C92.9265,105.5078 82.7505,93.1848 82.7505,87.2508 L82.7505,51.8098 C82.7505,45.8768 87.5565,41.0698 93.4905,41.0698 L191.2205,41.0698 C197.1535,41.0698 201.9595,45.8768 201.9595,51.8098 L201.9595,87.2508 L201.9595,87.2508 L201.9595,87.2508 Z M191.2205,136.3848 C185.8835,136.3848 181.5545,132.0568 181.5545,126.7188 C181.5545,121.3818 185.8835,117.0528 191.2205,117.0528 C196.5575,117.0528 200.8865,121.3818 200.8865,126.7188 C200.8865,132.0568 196.5575,136.3848 191.2205,136.3848 L191.2205,136.3848 L191.2205,136.3848 L191.2205,136.3848 Z M175.1105,137.4588 C172.7375,137.4588 170.8145,135.5358 170.8145,133.1628 C170.8145,130.7888 172.7375,128.8668 175.1105,128.8668 C177.4835,128.8668 179.4065,130.7888 179.4065,133.1628 C179.4065,135.5358 177.4835,137.4588 175.1105,137.4588 L175.1105,137.4588 L175.1105,137.4588 L175.1105,137.4588 Z M109.6005,137.4588 C107.2265,137.4588 105.3035,135.5358 105.3035,133.1628 C105.3035,130.7888 107.2265,128.8668 109.6005,128.8668 C111.9735,128.8668 113.8955,130.7888 113.8955,133.1628 C113.8955,135.5358 111.9735,137.4588 109.6005,137.4588 L109.6005,137.4588 L109.6005,137.4588 L109.6005,137.4588 Z M93.4905,136.3848 C88.1525,136.3848 83.8245,132.0568 83.8245,126.7188 C83.8245,121.3818 88.1525,117.0528 93.4905,117.0528 C98.8275,117.0528 103.1555,121.3818 103.1555,126.7188 C103.1555,132.0568 98.8275,136.3848 93.4905,136.3848 L93.4905,136.3848 L93.4905,136.3848 L93.4905,136.3848 Z M110.1365,21.8958 C110.1365,19.1878 112.2895,16.9978 114.9475,16.9978 L169.7635,16.9978 C172.4205,16.9978 174.5735,19.1878 174.5735,21.8958 L174.5735,22.4798 C174.5735,25.1868 172.4205,27.3778 169.7635,27.3778 L114.9475,27.3778 C112.2895,27.3778 110.1365,25.1868 110.1365,22.4798 L110.1365,21.8958 L110.1365,21.8958 L110.1365,21.8958 Z M208.4035,22.0078 C208.4035,16.0738 169.7405,0.5288 142.8925,0.5288 C114.9695,0.5288 76.3075,16.0738 76.3075,22.0078 L76.3075,91.7678 C78.1585,93.4378 79.5275,98.9398 79.5275,100.9438 C79.5275,102.9468 78.1585,108.4508 76.3075,110.1208 L76.3075,143.3648 C76.3075,147.3388 78.4655,153.2248 81.6765,156.6718 L81.6765,172.4218 C81.6765,173.8878 82.6095,176.4048 83.7595,176.4048 C83.7595,176.4048 87.1005,177.7318 92.3135,177.7318 C97.7315,177.7318 101.0715,176.4048 101.0715,176.4048 C102.2215,176.4048 103.1555,173.8878 103.1555,172.4218 L103.1555,161.9988 C113.6215,163.3948 127.8615,164.8448 141.8185,164.8448 C156.3865,164.8448 170.9545,163.3838 181.5545,161.9818 L181.5545,172.4218 C181.5545,173.8878 182.4885,176.4048 183.6385,176.4048 C183.6385,176.4048 186.9785,177.7318 192.1915,177.7318 C197.6095,177.7318 200.9505,176.4048 200.9505,176.4048 C202.1005,176.4048 203.0335,173.8878 203.0335,172.4218 L203.0335,156.6718 C206.2455,153.2248 208.4035,147.3388 208.4035,143.3648 L208.4035,110.1208 C206.5515,108.4508 205.1825,102.9468 205.1825,100.9438 C205.1825,98.9398 206.5515,93.4378 208.4035,91.7678 L208.4035,22.0078 L208.4035,22.0078 L208.4035,22.0078 Z" id="Fill-50"></path>
            <path d="M284.0854,89.2811 C284.0854,77.5421 281.1914,66.4751 276.0794,56.7601 L266.5794,61.7501 C270.9084,69.9701 273.3614,79.3411 273.3614,89.2811 C273.3614,99.1341 270.9514,108.4251 266.6924,116.5921 L276.1964,121.5801 C281.2334,111.9261 284.0854,100.9331 284.0854,89.2811" id="Fill-51"></path>
            <path d="M263.2729,89.2811 C263.2729,80.2381 261.0439,71.7211 257.1019,64.2411 L247.5979,69.2291 C250.7599,75.2121 252.5489,82.0421 252.5489,89.2811 C252.5489,96.4381 250.8029,103.1831 247.7149,109.1171 L257.2209,114.0991 C261.0859,106.6781 263.2729,98.2371 263.2729,89.2811" id="Fill-52"></path>
            <path d="M243.5327,89.2811 C243.5327,82.9391 241.9657,76.9621 239.1997,71.7211 L229.6897,76.7101 C231.6817,80.4581 232.8087,84.7381 232.8087,89.2811 C232.8087,93.7381 231.7247,97.9371 229.8077,101.6361 L239.3127,106.6201 C242.0087,101.4321 243.5327,95.5361 243.5327,89.2811" id="Fill-53"></path>
            <path d="M0.3989,89.2811 C0.3989,77.5421 3.2939,66.4751 8.4049,56.7601 L17.9099,61.7501 C13.5769,69.9701 11.1279,79.3411 11.1279,89.2811 C11.1279,99.1341 13.5339,108.4251 17.7919,116.5921 L8.2879,121.5801 C3.2509,111.9261 0.3989,100.9331 0.3989,89.2811" id="Fill-54"></path>
            <path d="M21.2124,89.2811 C21.2124,80.2381 23.4414,71.7211 27.3834,64.2411 L36.8874,69.2291 C33.7294,75.2121 31.9414,82.0421 31.9414,89.2811 C31.9414,96.4381 33.6864,103.1831 36.7744,109.1171 L27.2704,114.0991 C23.3994,106.6781 21.2124,98.2371 21.2124,89.2811" id="Fill-55"></path>
            <path d="M40.9517,89.2811 C40.9517,82.9391 42.5197,76.9621 45.2907,71.7211 L54.7957,76.7101 C52.8087,80.4581 51.6807,84.7381 51.6807,89.2811 C51.6807,93.7381 52.7607,97.9371 54.6777,101.6361 L45.1727,106.6201 C42.4767,101.4321 40.9517,95.5361 40.9517,89.2811" id="Fill-56"></path>
        </g>
    </g>
</svg>