<?xml version="1.0" encoding="iso-8859-1"?>
<!-- Generator: Adobe Illustrator 16.0.0, SVG Export Plug-In . SVG Version: 6.00 Build 0)  -->
<!DOCTYPE svg PUBLIC "-//W3C//DTD SVG 1.1//EN" "http://www.w3.org/Graphics/SVG/1.1/DTD/svg11.dtd">
<svg version="1.1" id="Layer_1" xmlns="http://www.w3.org/2000/svg" xmlns:xlink="http://www.w3.org/1999/xlink" x="0px" y="0px"
	 width="440.334px" height="180.144px" viewBox="5.322 20.344 440.334 180.144"
	 style="enable-background:new 5.322 20.344 440.334 180.144;" xml:space="preserve">
<path style="fill:#359AD5;" d="M406.487,86.49c-8.87,0-7.944,10.902-8.312,22.541h14.779
	C412.954,95.912,412.954,86.49,406.487,86.49z M398.175,128.062c0,10.53,5.172,12.562,13.856,12.562
	c9.978,0,23.463-2.958,28.637-3.881v25.499c-4.063,1.479-16.442,4.986-28.637,4.986c-21.987,0-48.78-3.51-48.78-50.438
	c0-41.387,21.064-51.179,43.235-51.179c22.727,0,39.17,11.64,39.17,50.809v11.642H398.175z M311.506,91.478
	c-2.03,0-6.096,1.663-8.312,2.958v47.296c1.661,0.557,4.618,0.926,5.912,0.926c6.098,0,9.793-5.174,9.793-26.79
	C318.897,93.88,317.233,91.478,311.506,91.478z M315.57,167.23c-4.434,0-9.053-1.293-12.378-2.033v35.29h-35.105V67.459h28.452
	l5.175,6.097c5.357-4.803,12.934-7.945,20.878-7.945c14.41,0,31.408,4.064,31.408,50.254C354,166.493,328.504,167.23,315.57,167.23z
	 M235.747,55.45c-9.791,0-17.366-7.945-17.366-17.553s7.575-17.553,17.366-17.553c9.794,0,17.369,7.945,17.369,17.553
	S245.541,55.45,235.747,55.45z M218.196,165.383V67.459h35.105v97.924H218.196z M196.94,94.989c-5.543,0-9.793,2.218-11.641,3.326
	v67.068h-35.104V67.459h27.899l5.173,9.422c2.032-6.097,7.575-11.271,15.705-11.271c5.543,0,9.238,1.109,10.899,2.032v29.191
	C206.361,95.912,201.743,94.989,196.94,94.989L196.94,94.989z M130.233,140.625c2.217,0,9.978-1.107,12.562-1.479v24.943
	c-5.356,1.292-17.182,3.141-24.941,3.141c-9.978,0-28.638-1.107-28.638-28.267V89.816H76.283V67.459h12.935l4.434-22.171l30.67-7.39
	V67.46h18.476l-4.618,22.357h-13.857v42.865C124.321,139.331,126.353,140.625,130.233,140.625z M39.505,95.728
	c0,3.88,2.588,5.173,8.684,7.944l3.696,1.664c8.683,3.88,20.691,10.162,20.691,28.639c0,29.561-21.987,33.256-37.691,33.256
	c-10.162,0-20.878-2.402-28.084-4.617v-25.314c6.281,1.666,17.184,4.249,21.986,4.249c5.358,0,9.423-0.737,9.423-5.542
	c0-3.695-2.587-5.357-8.314-7.943l-4.435-2.033c-8.313-3.881-20.139-10.53-20.139-28.453c0-26.237,20.508-31.963,37.692-31.963
	c12.934,0,21.433,2.955,25.866,4.619v24.573c-5.174-1.662-15.703-3.88-21.985-3.88C42.646,90.925,39.505,92.032,39.505,95.728z"/>
</svg>
